<?xml version="1.0" standalone="no"?>
<!DOCTYPE svg PUBLIC "-//W3C//DTD SVG 20010904//EN"
 "http://www.w3.org/TR/2001/REC-SVG-20010904/DTD/svg10.dtd">
<svg version="1.0" xmlns="http://www.w3.org/2000/svg"
 width="1024.000000pt" height="1024.000000pt" viewBox="0 0 1024.000000 1024.000000"
 preserveAspectRatio="xMidYMid meet">

<g transform="translate(0.000000,1024.000000) scale(0.100000,-0.100000)"
fill="#000000" stroke="none">
<path d="M2100 8624 c-240 -47 -375 -213 -387 -480 -9 -189 18 -324 81 -407
24 -31 25 -39 19 -101 -6 -65 -7 -68 -43 -86 -20 -10 -48 -36 -63 -57 -24 -34
-33 -40 -93 -51 -163 -31 -341 -129 -426 -236 -56 -69 -100 -170 -122 -276
-18 -89 -46 -342 -81 -725 -14 -154 -35 -372 -45 -485 -24 -250 -25 -284 -3
-320 16 -28 16 -37 -5 -172 -37 -238 -43 -341 -40 -643 1 -159 3 -387 3 -505
l0 -215 -74 -155 c-83 -174 -210 -466 -308 -705 -36 -88 -81 -198 -100 -245
-19 -47 -36 -101 -38 -120 -2 -19 -19 -76 -39 -127 -43 -111 -71 -247 -62
-297 8 -43 34 -59 121 -75 81 -15 140 -14 154 3 10 12 16 11 35 -9 21 -21 36
-23 157 -30 74 -4 209 -6 301 -4 146 4 168 6 187 23 56 51 -12 182 -127 247
-89 50 -138 88 -151 116 -11 25 -11 25 26 19 21 -4 43 -3 49 1 6 5 37 60 69
123 75 150 359 691 470 895 98 182 77 97 179 720 31 187 56 354 56 371 0 25
14 42 80 103 74 67 100 79 100 47 0 -8 -31 -44 -70 -82 -38 -37 -70 -76 -70
-86 0 -10 55 -81 123 -159 215 -247 227 -263 212 -271 -7 -5 -31 -41 -53 -80
-49 -90 -196 -287 -291 -391 -62 -68 -70 -80 -61 -98 20 -35 39 -34 82 7 98
95 317 389 366 491 13 27 13 37 3 56 -12 22 -4 45 84 243 219 495 239 538 268
563 16 14 43 53 59 86 17 33 64 122 105 198 l75 137 33 -20 c35 -22 76 -26
105 -10 13 7 33 6 64 -2 41 -11 47 -10 83 13 97 64 146 89 177 89 33 0 71 31
95 78 9 17 20 22 50 22 22 0 44 -6 51 -15 7 -8 34 -21 60 -29 26 -8 62 -22 80
-31 20 -10 44 -15 64 -11 17 3 57 9 90 15 32 5 63 14 69 20 6 6 32 11 57 11
33 0 55 7 80 25 19 14 42 25 52 25 34 0 78 30 84 57 4 14 2 60 -3 102 -6 42
-9 77 -8 79 5 6 1083 92 1165 92 4 0 11 -16 15 -36 17 -94 100 -217 233 -347
90 -88 116 -71 128 85 l7 86 95 -99 c133 -139 154 -134 151 33 l-2 103 29 17
c16 10 32 18 36 18 4 0 39 -61 79 -136 61 -117 70 -139 61 -159 -7 -15 -21
-25 -39 -27 -33 -4 -64 -47 -108 -148 -16 -38 -33 -70 -36 -70 -3 0 -28 32
-55 72 -65 95 -93 128 -110 128 -21 0 -42 -40 -60 -113 -15 -61 -16 -71 -1
-107 15 -38 14 -39 -9 -55 -39 -25 -40 -57 -5 -119 39 -68 100 -129 155 -155
100 -49 252 -51 394 -6 79 25 223 111 313 186 26 22 49 39 52 39 3 0 2 -13 -3
-29 -4 -16 -18 -89 -30 -163 -11 -73 -23 -143 -26 -155 -6 -31 -110 -167 -190
-248 -89 -91 -207 -188 -435 -361 -374 -283 -501 -461 -634 -887 l-36 -118
-37 7 c-357 65 -512 360 -390 744 55 174 164 344 355 553 109 120 142 161 143
179 1 21 -36 38 -84 38 -146 0 -352 -105 -497 -252 -205 -208 -324 -476 -336
-758 -8 -206 27 -359 119 -514 49 -84 163 -205 242 -259 79 -53 225 -121 311
-142 39 -10 71 -19 72 -20 1 0 -9 -43 -22 -95 -34 -131 -57 -294 -49 -345 8
-59 38 -103 82 -123 32 -14 90 -17 412 -22 206 -3 479 -3 607 0 272 6 269 5
266 96 -3 100 -74 213 -171 275 l-43 27 63 7 c181 20 402 66 573 119 43 14 80
24 80 23 12 -21 149 -363 161 -400 42 -143 66 -172 145 -188 24 -4 186 -8 360
-9 308 0 317 1 343 21 26 21 27 25 21 78 l-7 57 227 1 c168 1 230 5 242 14 12
11 14 25 9 68 -24 202 -210 324 -510 333 -47 2 -86 4 -86 6 0 1 25 33 55 70
31 37 82 119 115 182 57 113 60 117 112 140 75 35 242 138 334 205 120 89 207
169 266 245 29 38 56 66 59 62 12 -12 387 -888 540 -1261 76 -185 52 -176 465
-176 303 0 323 1 343 19 25 23 26 57 5 146 -36 155 -150 257 -296 268 -51 3
-69 9 -72 21 -5 15 -11 55 -56 351 -41 274 -174 1030 -225 1285 -100 493 -137
613 -270 875 -126 247 -279 456 -553 759 -93 102 -203 227 -244 276 -208 250
-583 539 -866 666 l-64 29 21 27 c110 145 219 318 228 364 8 42 -12 62 -55 54
-129 -24 -546 -161 -685 -224 l-82 -37 -100 8 c-55 4 -146 5 -203 1 l-103 -6
7 44 c3 24 21 113 40 198 38 175 40 193 19 211 -47 39 -362 -276 -521 -521
-35 -53 -56 -74 -111 -107 -159 -94 -327 -232 -359 -293 -20 -39 -17 -96 6
-134 l20 -33 -38 -34 c-21 -19 -86 -71 -145 -117 -124 -96 -148 -126 -155
-192 l-4 -48 -52 -5 c-28 -3 -134 -10 -236 -16 -102 -6 -344 -25 -538 -41
l-353 -30 -40 35 c-37 34 -58 41 -102 38 -10 -1 -30 12 -44 28 -57 68 -130 76
-252 26 l-63 -25 -47 24 c-61 30 -315 183 -389 234 l-57 39 -28 110 c-46 183
-124 410 -178 522 -43 88 -64 117 -128 180 -51 51 -105 91 -163 124 -49 27
-88 51 -88 55 0 3 25 28 55 54 60 52 106 127 156 252 17 44 40 88 50 98 22 21
22 22 8 48 -8 15 -6 56 7 152 16 128 15 303 -2 413 -5 36 -3 45 24 75 66 76
98 188 60 212 -13 9 -28 6 -67 -12 -65 -31 -111 -26 -291 30 -121 37 -148 42
-255 44 -66 2 -131 1 -145 -1z m147 -320 c92 -32 124 -38 218 -42 75 -3 130 1
172 11 74 17 70 22 79 -100 l6 -88 -43 -15 c-36 -12 -44 -19 -44 -40 0 -23 4
-25 43 -24 41 1 42 0 41 -30 -1 -17 -4 -56 -8 -86 l-7 -55 -26 57 c-30 63 -40
72 -68 63 -30 -10 -25 -35 30 -142 28 -54 50 -101 50 -105 0 -4 -28 -8 -62
-10 -58 -3 -63 -5 -66 -27 -5 -30 12 -41 61 -41 45 0 45 -2 -8 -115 -97 -209
-204 -237 -391 -103 -45 32 -71 32 -82 -1 -6 -19 65 -77 134 -107 35 -16 62
-31 61 -34 -1 -3 -27 -54 -56 -115 l-53 -110 -35 73 c-27 57 -61 101 -153 199
-65 69 -130 147 -145 174 -24 45 -26 56 -20 114 6 53 11 65 25 65 26 0 70 39
70 61 0 26 -25 35 -57 20 -23 -10 -28 -8 -59 24 -35 38 -64 115 -64 171 0 23
10 44 31 69 25 29 38 35 70 35 32 0 43 -6 70 -40 37 -46 60 -50 94 -16 73 74
102 238 60 340 -7 16 -5 18 8 13 9 -3 65 -23 124 -43z m-390 -877 c23 -34 84
-107 135 -161 l92 -99 -73 -68 c-40 -38 -76 -69 -80 -69 -9 0 -191 362 -191
381 0 18 52 79 67 79 4 0 27 -29 50 -63z m-75 -268 c96 -196 110 -219 132
-219 16 0 55 28 118 84 l94 83 28 -68 c28 -67 28 -71 17 -147 -39 -258 -70
-479 -76 -540 -9 -87 -13 -93 -50 -84 -27 7 -45 37 -197 332 -91 179 -173 329
-182 335 -11 7 -20 5 -33 -8 -17 -17 -11 -32 145 -337 162 -317 162 -319 136
-322 -36 -4 -53 -31 -34 -53 12 -14 26 -16 78 -12 55 4 72 1 143 -29 148 -62
369 -166 369 -173 0 -4 -12 -41 -26 -82 -14 -41 -36 -123 -49 -184 -21 -102
-24 -110 -45 -107 -53 8 -503 163 -575 198 -165 81 -277 229 -505 669 -46 88
-87 166 -93 173 -14 18 -35 15 -47 -8 -9 -17 5 -50 84 -204 140 -272 254 -455
352 -562 72 -78 170 -137 319 -189 44 -16 81 -29 83 -31 2 -1 -53 -289 -74
-383 l-5 -24 -137 6 c-155 7 -312 27 -452 56 -108 22 -125 28 -232 78 l-78 36
0 49 c0 27 9 135 20 241 10 105 31 320 45 477 48 535 70 704 105 804 55 161
174 267 375 335 143 48 124 63 247 -190z m652 85 c3 -9 6 -59 6 -112 l0 -96
-36 35 c-55 53 -56 59 -24 127 30 63 43 74 54 46z m155 -121 c98 -54 172 -135
226 -246 49 -101 130 -338 175 -511 16 -61 32 -119 35 -128 7 -18 188 -139
350 -233 138 -80 131 -71 87 -119 -22 -23 -43 -50 -48 -59 -7 -11 -27 -19 -60
-23 l-49 -6 -24 44 c-60 108 -125 158 -205 158 -25 0 -99 -12 -165 -26 l-119
-25 -40 20 c-50 26 -73 54 -123 156 l-40 80 45 225 c54 273 57 299 34 314 -30
19 -47 -13 -68 -132 -17 -94 -88 -446 -105 -518 -5 -21 -13 -18 -167 53 -90
41 -167 79 -172 84 -17 15 85 712 108 738 8 9 21 34 30 55 l17 40 62 -62 c45
-44 70 -62 89 -62 34 0 39 15 45 128 3 50 8 92 11 92 3 0 35 -17 71 -37z
m5010 -10 c-86 -142 -164 -245 -296 -390 -85 -93 -95 -115 -61 -137 15 -9 31
2 101 72 l83 82 129 -64 c273 -135 555 -352 753 -578 96 -110 122 -139 368
-412 142 -158 273 -328 357 -463 105 -171 221 -417 260 -553 47 -164 134 -587
207 -1010 28 -162 69 -396 90 -520 22 -124 49 -292 60 -375 23 -166 45 -272
61 -291 6 -8 30 -10 72 -7 144 12 248 -82 282 -255 l7 -32 -119 0 -119 0 -12
44 c-13 49 -61 111 -92 119 -20 5 -50 -15 -50 -34 0 -5 12 -19 26 -32 29 -24
54 -68 54 -92 0 -13 -18 -15 -115 -15 -62 0 -136 5 -164 11 -45 9 -52 15 -70
52 -20 42 -166 387 -391 922 -67 160 -140 330 -163 378 l-40 88 51 107 c54
112 105 272 96 297 -8 21 -44 29 -59 14 -6 -8 -20 -45 -30 -84 -51 -196 -177
-403 -334 -547 -206 -189 -601 -408 -935 -518 -72 -24 -100 -29 -106 -21 -9
15 -66 347 -80 466 -6 50 -14 143 -19 208 -8 123 -20 154 -54 141 -10 -3 -20
-17 -23 -30 -8 -30 11 -280 32 -424 39 -271 147 -734 180 -771 8 -9 30 -20 48
-23 17 -3 63 -21 102 -40 103 -49 194 -160 194 -236 l0 -30 -59 0 -59 0 -16
46 c-20 60 -55 105 -99 129 -30 16 -38 17 -51 6 -24 -20 -20 -33 20 -72 35
-33 64 -78 64 -99 0 -6 -32 -10 -83 -10 l-83 0 -23 55 c-38 90 -115 140 -145
92 -9 -14 -4 -24 32 -56 23 -21 42 -43 42 -49 0 -6 3 -18 7 -28 6 -16 -1 -17
-97 -11 -125 8 -144 18 -159 86 -12 57 -59 177 -176 451 -46 107 -122 290
-171 405 -48 116 -125 293 -172 395 -120 263 -121 266 -122 395 0 201 60 830
101 1050 52 284 91 335 255 335 34 0 85 -7 113 -16 57 -19 84 -8 79 30 -5 35
-71 60 -174 64 -127 6 -176 -12 -263 -92 -73 -69 -239 -197 -316 -244 -137
-84 -342 -112 -453 -63 -53 24 -100 68 -127 120 -15 29 -15 30 23 43 26 9 96
13 232 13 178 0 201 2 263 24 111 38 191 109 251 221 50 94 64 180 43 265 -29
117 -124 230 -237 284 -44 21 -70 26 -130 26 -80 0 -92 -4 -239 -85 l-74 -40
-154 2 -154 3 -21 34 -21 33 91 88 c136 130 128 148 -66 151 -67 0 -122 5
-122 10 0 5 4 9 9 9 4 0 53 38 108 84 l100 84 32 -31 c25 -26 34 -30 49 -21
31 20 24 42 -32 115 -77 98 -76 108 25 203 167 158 379 274 583 321 67 16 332
37 426 34 l59 -2 -24 -29 c-28 -34 -30 -39 -13 -56 18 -18 39 -15 79 12 56 39
229 123 331 162 81 31 428 141 451 143 5 1 -2 -16 -14 -36z m-2175 -1217 c30
-39 61 -83 71 -98 l17 -27 -51 -25 -50 -26 -15 22 c-34 53 -58 123 -63 191
l-6 72 22 -19 c12 -11 46 -52 75 -90z m-2794 48 c42 -16 69 -31 66 -38 -35
-78 -62 -155 -81 -229 -12 -50 -28 -93 -34 -95 -7 -2 -41 1 -76 8 l-63 12 5
36 c19 131 78 332 98 332 8 0 46 -12 85 -26z m1215 -26 c80 -94 46 -159 -40
-77 -35 33 -95 40 -130 15 -18 -13 -165 -38 -174 -30 -10 9 29 39 93 71 95 48
134 61 178 62 31 1 42 -5 73 -41z m-704 -9 c30 -21 99 -115 99 -133 0 -6 -13
5 -29 24 -25 29 -32 33 -48 24 -35 -21 -25 -43 57 -134 87 -94 95 -118 48
-134 -23 -8 -32 -4 -74 33 -86 76 -132 31 -49 -48 34 -33 43 -46 33 -52 -27
-17 -55 -8 -93 31 -44 45 -59 49 -75 20 -14 -25 -1 -50 42 -84 l32 -25 -27 -6
c-21 -6 -38 -1 -68 19 -51 34 -83 31 -87 -6 -3 -27 -4 -27 -30 -14 -41 21
-180 169 -187 198 -8 30 15 116 51 198 l25 56 127 26 c163 33 215 34 253 7z
m854 -53 c37 -37 57 -217 25 -223 -26 -5 -63 99 -64 178 -1 38 3 69 7 69 4 0
19 -11 32 -24z m2145 -63 c-7 -21 -22 -60 -33 -86 l-20 -48 -34 60 c-35 62
-36 80 -5 82 9 0 35 9 57 18 22 10 42 17 43 15 2 -1 -2 -20 -8 -41z m-2388
-23 c4 -14 19 -65 34 -113 23 -74 25 -90 13 -98 -27 -17 -35 -8 -67 80 -31 85
-40 140 -25 155 14 13 38 0 45 -24z m-124 -12 c-3 -7 -14 -14 -26 -16 -40 -6
-64 -50 -60 -109 2 -29 -1 -53 -5 -53 -40 0 -77 62 -77 129 0 46 1 46 153 59
11 1 17 -3 15 -10z m-235 -65 c3 -27 9 -56 12 -65 12 -30 -33 -9 -53 26 -38
64 -34 83 14 85 18 1 22 -6 27 -46z m517 -13 c34 -67 37 -85 14 -94 -39 -15
-38 -16 -79 112 -14 42 -14 42 10 42 20 0 30 -11 55 -60z m1908 -25 l3 -60
-46 45 c-26 25 -51 53 -56 63 -9 17 -6 18 43 15 l53 -3 3 -60z m-248 -25 c0
-44 -2 -80 -5 -80 -6 0 -88 88 -98 106 -6 11 3 19 35 33 68 31 68 30 68 -59z
m-1903 -14 c26 -63 25 -86 -6 -86 -26 0 -51 47 -51 98 0 73 23 69 57 -12z
m-1457 -16 c91 -28 170 -50 177 -50 25 0 25 -26 2 -130 -22 -106 -24 -108 -53
-115 -116 -24 -203 -35 -285 -35 -84 0 -93 2 -89 18 3 9 20 95 39 189 19 95
36 173 39 173 3 0 79 -23 170 -50z m408 -95 c58 -1 65 -4 102 -40 l39 -38 -25
-41 c-13 -23 -57 -101 -96 -175 l-71 -134 -24 29 c-35 43 -90 144 -98 181 -4
19 2 69 14 127 12 53 21 98 21 102 0 3 17 3 38 -2 20 -4 65 -8 100 -9z m3808
-99 c8 -22 -42 -112 -78 -140 -18 -13 -54 -34 -81 -45 l-47 -20 6 25 c5 18 0
32 -16 49 -18 19 -20 27 -11 44 12 21 84 75 123 91 36 14 98 12 104 -4z m-273
-180 c15 -16 27 -30 25 -31 -2 -2 -31 -5 -65 -8 -89 -7 -95 0 -81 91 l12 73
40 -48 c23 -26 53 -61 69 -77z m-340 -6 l18 -30 -35 0 c-44 0 -60 25 -50 77
l7 37 21 -27 c12 -15 30 -40 39 -57z m687 -735 c-24 -218 -42 -523 -38 -645
l4 -135 86 -185 c81 -174 158 -351 284 -654 30 -72 54 -133 54 -137 0 -10
-132 -50 -273 -84 -124 -30 -350 -65 -421 -65 l-49 0 69 49 c83 58 196 177
243 255 18 30 47 95 64 143 28 79 31 100 31 208 1 129 -9 172 -60 279 -55 117
-187 227 -329 276 -77 27 -110 24 -110 -10 0 -21 9 -27 60 -45 138 -48 262
-143 311 -237 127 -246 53 -555 -181 -757 -62 -54 -210 -143 -262 -159 -21 -6
-128 -28 -238 -50 -199 -38 -200 -38 -203 -65 -2 -16 2 -29 11 -32 7 -3 85 7
173 22 273 48 422 28 532 -71 48 -44 92 -126 92 -173 l0 -33 -63 0 -64 0 -12
42 c-36 118 -164 226 -186 157 -6 -17 4 -31 44 -68 41 -38 81 -100 81 -126 0
-3 -42 -5 -94 -5 l-94 0 -6 36 c-5 23 -24 52 -55 85 -42 44 -53 50 -82 47 -26
-2 -35 -8 -37 -25 -2 -16 7 -28 37 -47 34 -22 71 -69 71 -91 0 -9 -641 -5
-689 4 -67 13 -74 28 -68 146 3 67 17 146 40 240 20 77 54 221 76 320 44 195
87 343 146 500 103 277 233 438 531 660 277 206 438 346 538 469 22 25 40 45
42 44 1 -2 -2 -39 -6 -83z m-1405 -17 c-148 -157 -269 -332 -328 -473 -88
-211 -105 -431 -46 -591 64 -171 221 -300 411 -340 40 -8 74 -16 75 -18 1 -1
-4 -29 -11 -61 -8 -33 -21 -95 -31 -137 -19 -92 -18 -91 -133 -52 -290 99
-480 294 -553 569 -33 121 -31 325 4 458 58 221 197 444 356 572 100 80 263
162 329 164 8 1 -25 -41 -73 -91z"/>
<path d="M2332 8120 c-17 -7 -22 -17 -20 -32 3 -21 10 -24 73 -29 39 -4 88
-10 110 -14 31 -5 44 -3 54 9 16 19 7 35 -33 51 -42 18 -156 27 -184 15z"/>
<path d="M2380 7974 c-10 -11 -11 -23 -4 -42 17 -48 84 -38 84 12 0 43 -53 63
-80 30z"/>
<path d="M2404 7566 c-15 -12 -17 -18 -8 -33 9 -14 26 -19 75 -21 77 -3 94 6
85 42 -6 25 -10 26 -69 26 -39 0 -71 -5 -83 -14z"/>
<path d="M6360 6474 c-47 -20 -156 -67 -243 -105 -86 -38 -161 -69 -166 -69
-6 0 -11 21 -13 46 -4 55 -26 77 -53 54 -15 -12 -17 -26 -12 -83 7 -80 26
-110 68 -105 18 2 38 -8 63 -30 60 -53 94 -65 189 -70 66 -3 98 0 132 12 93
36 166 140 187 271 21 124 -8 139 -152 79z m86 -61 c-3 -10 -8 -31 -12 -48
-25 -110 -134 -202 -221 -187 -21 3 -23 8 -23 75 l0 72 123 52 c67 28 126 52
130 52 5 1 6 -7 3 -16z m-326 -173 c0 -27 -3 -50 -7 -50 -11 0 -73 51 -73 60
0 9 53 37 73 39 4 1 7 -21 7 -49z"/>
<path d="M6910 4635 l0 -195 125 0 125 0 0 35 0 35 -85 0 -85 0 0 160 0 160
-40 0 -40 0 0 -195z"/>
<path d="M7210 4635 l0 -195 130 0 130 0 0 35 0 35 -90 0 -90 0 0 50 0 50 80
0 80 0 0 30 0 30 -80 0 -80 0 0 45 0 45 90 0 90 0 0 35 0 35 -130 0 -130 0 0
-195z"/>
<path d="M7610 4808 c-113 -57 -124 -262 -19 -340 53 -40 157 -36 209 9 40 33
57 68 61 123 l4 45 -83 3 -82 3 0 -31 c0 -28 2 -30 40 -30 48 0 53 -18 15 -55
-33 -34 -93 -34 -123 -2 -19 20 -22 35 -22 103 0 71 3 83 23 102 13 12 36 22
53 22 34 0 74 -25 74 -46 0 -10 13 -14 46 -14 42 0 45 1 38 23 -13 41 -43 75
-84 91 -55 22 -98 20 -150 -6z"/>
<path d="M7965 4648 c-37 -101 -70 -189 -72 -195 -4 -9 8 -13 40 -13 44 0 44
0 57 45 l13 45 66 0 67 0 14 -42 c14 -41 17 -43 58 -46 23 -2 42 1 42 6 0 5
-31 92 -69 193 l-69 184 -40 3 -39 3 -68 -183z m132 7 l21 -65 -45 0 c-38 0
-45 3 -40 18 3 9 11 38 18 65 7 26 16 47 19 47 3 0 15 -29 27 -65z"/>
<path d="M8383 4819 c-70 -21 -113 -93 -113 -190 0 -83 32 -144 92 -175 66
-34 193 -2 223 57 26 49 20 59 -30 59 -37 0 -45 -3 -45 -19 0 -35 -52 -56
-100 -40 -39 14 -53 54 -48 140 3 60 8 74 27 90 45 36 121 15 121 -34 0 -13
10 -17 45 -17 52 0 58 14 25 67 -33 55 -125 84 -197 62z"/>
<path d="M8610 4824 c0 -4 27 -57 61 -118 60 -109 61 -112 61 -188 l0 -78 44
0 44 0 0 75 c0 74 2 79 60 186 33 60 60 114 60 119 0 6 -18 10 -40 10 l-40 0
-41 -82 -42 -83 -40 83 -40 82 -43 0 c-24 0 -44 -3 -44 -6z"/>
<path d="M7302 4263 c-58 -28 -77 -67 -80 -163 -2 -67 1 -93 15 -120 35 -67
117 -100 195 -80 48 13 108 68 108 99 0 18 -6 21 -40 21 -22 0 -40 -4 -40 -10
0 -35 -69 -61 -115 -44 -42 17 -60 138 -31 209 25 60 106 60 136 0 13 -25 21
-30 53 -30 43 0 48 18 20 67 -36 62 -147 88 -221 51z"/>
<path d="M7680 4258 c-56 -29 -87 -74 -95 -142 -21 -164 112 -273 251 -206 51
25 72 55 87 125 35 170 -101 295 -243 223z m136 -69 c15 -17 19 -37 19 -104 0
-102 -15 -125 -80 -125 -54 0 -76 24 -83 89 -6 65 4 117 29 142 27 27 90 26
115 -2z"/>
<path d="M7980 4085 l0 -198 100 5 c86 4 105 8 139 31 48 32 68 66 76 133 8
58 -6 120 -36 158 -35 44 -76 59 -181 64 l-98 5 0 -198z m201 96 c26 -27 29
-36 29 -96 0 -60 -3 -69 -29 -96 -23 -23 -39 -29 -70 -29 l-41 0 0 125 0 125
41 0 c31 0 47 -6 70 -29z"/>
<path d="M8360 4085 l0 -195 130 0 130 0 0 35 0 35 -90 0 -90 0 0 50 0 50 80
0 80 0 0 30 0 30 -80 0 -80 0 0 45 0 45 90 0 90 0 0 35 0 35 -130 0 -130 0 0
-195z"/>
<path d="M2563 4843 c-30 -65 -64 -139 -74 -165 -10 -25 -68 -158 -128 -295
-61 -138 -111 -255 -111 -262 0 -7 66 -85 148 -173 81 -88 152 -169 158 -181
7 -12 44 -166 83 -342 115 -509 203 -888 212 -912 6 -15 17 -23 32 -23 l24 0
-14 -71 c-7 -40 -14 -114 -15 -165 -2 -85 0 -96 20 -116 21 -21 30 -23 175
-23 l152 0 9 41 9 40 32 -34 c24 -26 43 -37 81 -43 71 -11 433 -11 538 1 95
11 126 22 126 46 0 29 -49 111 -89 147 -52 47 -71 56 -226 107 -131 43 -186
73 -239 129 l-29 30 24 19 23 20 -18 153 c-39 334 -167 1074 -217 1258 -29
110 -81 200 -258 452 -256 365 -341 479 -357 479 -10 0 -36 -44 -71 -117z"/>
</g>
</svg>
