<?xml version="1.0" standalone="no"?>
<!DOCTYPE svg PUBLIC "-//W3C//DTD SVG 20010904//EN"
 "http://www.w3.org/TR/2001/REC-SVG-20010904/DTD/svg10.dtd">
<svg version="1.0" xmlns="http://www.w3.org/2000/svg"
 width="1024.000000pt" height="1024.000000pt" viewBox="0 0 1024.000000 1024.000000"
 preserveAspectRatio="xMidYMid meet">

<g transform="translate(0.000000,1024.000000) scale(0.100000,-0.100000)"
fill="#000000" stroke="none">
<path d="M2090 6860 c-96 -9 -147 -23 -235 -67 -245 -124 -399 -298 -454 -513
-18 -72 -19 -73 -92 -128 -41 -31 -94 -77 -119 -102 -122 -121 -229 -307 -251
-434 -15 -88 -6 -265 16 -328 17 -47 16 -49 -16 -175 -32 -121 -33 -137 -33
-298 1 -151 4 -181 27 -270 74 -278 264 -487 524 -574 34 -12 113 -28 175 -36
62 -9 164 -31 225 -51 l113 -36 65 -79 c65 -79 174 -169 250 -207 22 -11 78
-32 125 -47 166 -53 439 -45 667 21 95 28 151 54 292 138 59 35 131 67 195 87
139 43 232 87 318 152 145 109 395 391 502 564 58 94 86 204 110 437 3 21 10
43 18 47 34 23 233 78 313 88 102 12 2463 32 3763 31 599 -1 807 2 818 11 21
17 17 47 -8 60 -18 9 -413 10 -1733 5 -940 -4 -1971 -11 -2290 -16 -621 -9
-628 -9 -805 -66 -41 -13 -76 -21 -79 -18 -2 2 -13 36 -23 76 -33 131 -94 235
-208 358 -41 44 -51 59 -47 80 15 74 18 204 7 290 -38 294 -167 483 -415 607
-33 17 -71 34 -84 38 -14 4 -70 53 -125 109 -86 86 -114 108 -187 143 -126 62
-214 84 -354 90 -154 7 -250 -11 -359 -68 -43 -22 -86 -38 -95 -36 -9 3 -60
24 -114 46 -160 67 -256 84 -397 71z m300 -119 c52 -18 105 -40 118 -49 l23
-18 -62 -54 -61 -53 -107 -9 c-136 -10 -280 -35 -356 -60 -77 -25 -260 -117
-275 -137 -15 -22 -178 -117 -185 -109 -6 7 18 115 33 148 35 74 248 272 352
326 75 38 168 54 300 50 108 -3 138 -7 220 -35z m777 9 c100 -16 183 -46 269
-97 83 -49 176 -122 139 -108 -11 3 -62 11 -114 17 -115 14 -272 0 -452 -38
l-123 -27 -20 29 c-11 16 -50 58 -86 92 -61 60 -64 65 -46 78 66 48 294 76
433 54z m-467 -180 c44 -34 80 -62 80 -65 0 -2 3 -10 6 -19 10 -26 -77 -21
-134 8 -26 13 -71 32 -100 41 -28 10 -49 21 -46 26 4 8 103 69 111 69 1 0 39
-27 83 -60z m806 -91 c129 -23 130 -24 163 -92 43 -91 61 -172 61 -279 0 -85
-18 -187 -39 -225 -6 -11 -17 2 -45 52 -46 83 -140 208 -193 256 -87 79 -245
173 -358 214 -82 30 -87 41 -22 55 143 29 330 38 433 19z m-1234 -27 c-16 -22
-33 -30 -88 -40 -38 -7 -109 -30 -159 -51 -72 -31 -108 -40 -178 -45 -81 -6
-87 -5 -79 11 21 36 379 152 475 153 l48 0 -19 -28z m183 18 c3 -5 0 -10 -7
-10 -7 0 -23 -3 -36 -6 -18 -5 -21 -3 -16 10 7 18 49 22 59 6z m1390 -125
c160 -125 242 -243 286 -410 18 -68 20 -98 15 -200 -3 -65 -10 -123 -14 -127
-5 -5 -35 6 -68 23 -72 39 -177 76 -262 94 -35 8 -66 16 -69 19 -3 3 2 21 11
40 42 90 60 187 60 336 0 129 -3 153 -25 218 -14 39 -24 72 -21 72 2 0 41 -29
87 -65z m-1245 28 c-19 -15 -70 -60 -112 -100 -42 -40 -80 -73 -85 -73 -14 0
-102 47 -119 64 -18 18 -15 23 40 84 28 30 34 32 100 33 39 0 89 4 111 8 22 5
54 9 70 10 l30 1 -35 -27z m547 -83 c175 -94 289 -187 361 -292 33 -48 31 -66
-2 -29 -59 65 -263 173 -366 194 l-65 12 -47 92 -47 92 44 -13 c24 -8 79 -33
122 -56z m-331 41 c17 -10 52 -46 78 -80 51 -68 56 -64 -53 -40 -29 6 -84 9
-122 7 -56 -4 -69 -2 -74 11 -7 17 27 51 95 96 43 29 39 29 76 6z m-613 -7 c7
-7 -13 -54 -23 -54 -4 0 -20 4 -36 9 -16 5 -42 13 -59 17 l-30 7 45 12 c50 14
94 18 103 9z m-493 -94 c0 -5 -21 -26 -47 -47 -60 -47 -166 -155 -206 -208
l-30 -40 7 79 c3 43 6 90 6 103 0 16 8 27 28 34 15 5 59 25 97 44 88 43 145
56 145 35z m325 -10 c49 -6 93 -14 96 -18 4 -4 -4 -41 -18 -83 l-25 -76 -118
-7 c-124 -7 -225 -28 -349 -70 -41 -14 -76 -24 -78 -22 -10 10 154 158 231
209 126 84 119 83 261 67z m265 -69 l35 -6 -35 -22 c-32 -20 -106 -53 -117
-53 -6 0 3 37 17 76 9 22 14 25 38 19 15 -4 43 -11 62 -14z m370 -20 c0 -4
-23 -18 -50 -29 -44 -19 -52 -19 -57 -6 -8 22 6 32 52 37 22 2 43 4 48 5 4 1
7 -2 7 -7z m-203 -67 c2 -7 -12 -14 -34 -16 -46 -6 -54 -1 -28 18 22 16 56 15
62 -2z m454 -12 c24 -16 50 -36 58 -45 7 -9 19 -17 26 -17 14 0 25 -200 16
-288 l-6 -53 -54 83 c-71 108 -158 198 -249 258 -47 31 -69 51 -61 56 30 18
99 33 160 33 55 1 72 -3 110 -27z m264 1 c70 -22 170 -74 235 -122 63 -48 195
-175 183 -178 -4 -1 -75 -4 -156 -6 l-148 -5 -55 94 c-31 52 -77 116 -103 142
-26 26 -50 60 -53 75 -6 30 -1 30 97 0z m-1852 -240 c-164 -204 -212 -276
-280 -418 l-37 -79 -14 44 c-28 92 -1 242 68 380 37 74 156 226 222 284 l53
46 3 -117 c2 -100 0 -121 -15 -140z m1065 138 c-26 -33 -45 -38 -74 -17 -31
23 -5 38 79 45 17 1 16 -2 -5 -28z m177 -11 c106 -45 239 -152 318 -254 43
-56 46 -80 14 -100 -20 -14 -30 -13 -103 7 -94 26 -108 35 -133 91 -19 44 -99
125 -168 170 l-42 28 29 32 c17 17 30 34 30 39 0 10 3 9 55 -13z m-660 -25
c-162 -80 -329 -271 -378 -435 -8 -25 -25 30 -52 167 -14 70 -25 128 -25 130
0 1 17 11 38 21 20 11 62 33 92 50 98 54 252 98 355 101 l40 1 -70 -35z m133
-122 c-3 -68 -10 -99 -29 -137 -22 -44 -30 -51 -84 -70 -41 -15 -87 -44 -145
-93 -87 -73 -115 -105 -156 -177 l-23 -40 -14 32 c-11 28 -12 41 -1 80 45 168
103 267 207 353 65 55 207 138 235 139 11 0 13 -19 10 -87z m260 65 c38 -11
39 -19 8 -72 -13 -23 -29 -60 -36 -82 l-12 -41 -63 -6 c-34 -3 -68 -7 -76 -9
-10 -2 -13 6 -11 32 4 46 33 106 77 157 37 43 39 44 113 21z m834 -30 c51 -82
46 -123 -17 -142 -19 -6 -20 -1 -20 94 0 55 1 100 3 100 1 0 17 -24 34 -52z
m-669 -67 c52 -24 107 -73 107 -96 0 -7 -60 -6 -153 1 l-76 7 20 50 c22 56 28
67 35 67 2 0 32 -13 67 -29z m732 -1 c3 -5 2 -10 -4 -10 -5 0 -13 5 -16 10 -3
6 -2 10 4 10 5 0 13 -4 16 -10z m395 -100 c0 -17 -39 -90 -87 -162 -42 -64
-69 -84 -77 -55 -33 112 -52 167 -62 189 -11 21 -11 28 -1 31 25 11 227 7 227
-3z m-2173 -146 c85 -268 79 -233 59 -348 -9 -55 -20 -150 -23 -209 -7 -123 1
-118 -100 -61 -72 40 -96 74 -118 165 -37 161 10 485 79 540 13 11 28 29 31
40 13 39 29 11 72 -127z m1872 92 c27 -43 82 -254 79 -300 l-2 -35 -26 20
c-56 44 -201 145 -230 161 -23 13 -30 24 -30 46 0 16 -7 35 -15 42 -17 14 -20
30 -5 30 6 0 29 12 51 27 36 23 82 37 141 42 9 0 26 -14 37 -33z m596 -2 c44
-14 109 -40 145 -57 61 -30 65 -34 68 -70 6 -74 -65 -337 -101 -372 -7 -7 -7
-5 -2 5 4 8 -5 3 -22 -12 -16 -16 -32 -28 -35 -28 -3 0 -8 38 -11 84 -12 147
-93 372 -166 459 l-26 30 35 -7 c19 -3 71 -18 115 -32z m-1648 -22 c8 -5 9
-26 3 -76 -15 -121 7 -262 55 -357 23 -44 17 -38 -44 46 -82 111 -110 184
-126 321 l-5 52 37 10 c48 13 65 14 80 4z m218 -7 c33 -3 92 -13 130 -21 70
-16 71 -16 90 -62 11 -26 21 -50 23 -54 2 -4 -32 -33 -75 -64 -43 -31 -117
-91 -165 -131 l-88 -74 -11 28 c-34 87 -48 237 -33 347 7 47 8 48 38 42 17 -3
58 -8 91 -11z m1206 -171 c6 -76 11 -159 12 -184 0 -55 -18 -219 -26 -226 -2
-3 -15 10 -28 28 -12 18 -53 65 -90 104 -66 68 -68 73 -59 104 5 18 7 37 4 41
-2 5 17 39 44 76 27 37 66 99 86 136 21 38 40 67 42 64 3 -2 9 -67 15 -143z
m-1718 -12 c-14 -74 -18 -145 -18 -298 l0 -202 -29 21 c-46 33 -173 165 -206
215 -17 25 -30 55 -30 67 0 52 157 236 245 286 27 16 52 24 53 19 2 -6 -4 -54
-15 -108z m1842 -7 c9 -33 19 -71 22 -85 70 -350 71 -327 -9 -402 -35 -32 -66
-58 -69 -58 -11 0 -31 58 -25 69 3 5 16 54 27 108 16 76 21 132 20 248 0 83
-3 168 -6 190 -5 39 -5 39 9 15 8 -14 22 -52 31 -85z m-854 58 c16 -10 29 -23
29 -31 0 -26 -84 -172 -100 -172 -4 0 -16 37 -28 83 l-21 82 27 28 c30 31 52
34 93 10z m-1783 -78 c-10 -66 -6 -231 7 -285 6 -23 4 -22 -25 10 -45 51 -83
134 -75 162 9 30 96 191 101 186 2 -2 -2 -35 -8 -73z m902 52 c0 -7 39 -90 86
-184 l87 -173 -72 -75 c-39 -41 -71 -81 -71 -88 0 -20 -47 -60 -63 -54 -22 8
-33 246 -18 389 15 137 30 210 42 202 5 -3 9 -11 9 -17z m2212 -65 c53 -69 95
-165 114 -260 9 -45 15 -84 13 -86 -2 -2 -73 -45 -158 -96 -138 -83 -267 -150
-288 -150 -5 0 -6 35 -5 77 4 77 4 79 59 150 62 81 123 215 154 336 29 117 25
110 51 93 13 -8 40 -37 60 -64z m-1514 -26 c6 -13 16 -61 23 -107 l13 -82 -64
-59 c-70 -64 -190 -148 -211 -148 -27 0 -89 122 -89 174 0 15 33 44 126 111
70 50 138 100 153 112 33 28 35 28 49 -1z m475 -69 l57 -40 -18 -28 c-18 -30
-143 -162 -147 -157 -2 2 -1 67 2 145 7 163 -3 156 106 80z m-188 -235 c-7
-81 -9 -86 -65 -171 -61 -91 -138 -171 -165 -171 -19 0 -19 13 -1 48 21 42 44
157 51 262 7 84 10 98 35 125 15 17 53 68 86 115 l59 85 3 -105 c2 -58 0 -142
-3 -188z m365 62 c0 -55 -50 -274 -77 -339 -14 -33 -27 -70 -30 -81 -4 -19
-16 -24 -79 -33 -41 -6 -91 -11 -111 -11 l-36 0 7 38 c3 20 11 80 17 132 l12
95 124 132 c124 131 125 132 149 116 17 -11 24 -24 24 -49z m-2412 5 c-6 -16
-12 -28 -14 -26 -5 5 13 57 20 57 3 0 0 -14 -6 -31z m555 -272 c-3 -4 -9 -5
-14 -2 -11 7 -12 108 -1 225 l7 85 6 -150 c3 -82 4 -153 2 -158z m-499 229
c20 -30 65 -80 99 -112 33 -33 93 -95 131 -139 39 -44 99 -108 134 -142 l64
-62 9 -83 c11 -108 41 -224 81 -312 32 -72 40 -84 92 -150 16 -20 27 -38 25
-40 -6 -7 -159 22 -211 40 -75 25 -185 103 -274 195 -120 125 -168 212 -215
396 -31 120 -31 297 0 396 12 37 23 67 25 67 1 0 19 -24 40 -54z m658 -61 c36
-45 100 -113 142 -153 42 -39 76 -74 76 -77 0 -7 -189 -5 -235 3 l-40 7 -17
80 c-20 95 -22 254 -3 233 6 -7 41 -49 77 -93z m1840 -15 c30 -41 58 -81 62
-88 11 -19 -42 -150 -68 -166 -28 -18 -145 -60 -151 -54 -6 6 28 116 48 155
19 36 22 56 6 33 -8 -12 -9 -10 -5 10 3 14 13 65 22 113 9 49 20 85 24 80 4
-4 32 -42 62 -83z m-771 -63 c-25 -105 -43 -172 -45 -174 -3 -3 -136 128 -136
133 0 3 74 60 149 116 l36 26 3 -30 c2 -16 -1 -48 -7 -71z m-438 29 c26 -30
47 -57 47 -60 0 -6 -119 -32 -188 -41 -50 -7 -53 -6 -44 11 14 25 122 144 131
144 4 0 28 -24 54 -54z m2058 -164 c-49 -191 -106 -298 -258 -488 -121 -149
-304 -313 -417 -372 -51 -26 -155 -72 -164 -72 -3 0 26 33 64 73 90 93 130
151 159 235 13 37 40 105 60 152 55 129 62 149 80 256 9 54 21 104 26 110 4 6
41 26 81 45 40 19 143 69 228 112 153 78 155 79 158 54 2 -13 -6 -61 -17 -105z
m-1941 30 c0 -4 50 -41 110 -81 66 -44 110 -80 110 -90 -1 -20 -66 -110 -86
-118 -34 -13 -270 88 -413 176 -71 44 -71 44 34 60 39 6 106 21 150 35 95 28
95 28 95 18z m1402 -40 c-3 -35 -9 -45 -29 -53 -31 -12 -53 3 -53 36 0 17 11
28 42 44 23 11 43 19 43 18 1 -1 0 -21 -3 -45z m-853 -42 c-5 -25 -11 -54 -14
-65 -4 -17 -11 -20 -44 -17 l-40 4 52 63 c29 35 53 63 54 61 1 -1 -2 -22 -8
-46z m719 -37 c3 -17 -7 -25 -53 -42 -94 -35 -101 -23 -20 33 55 38 68 40 73
9z m-2141 11 c23 -6 26 -13 38 -73 l7 -33 -45 30 c-27 19 -46 41 -49 57 -6 27
5 31 49 19z m370 -28 c2 -2 -8 -40 -22 -86 -14 -46 -25 -94 -25 -106 0 -34
-12 -36 -61 -11 -44 22 -69 52 -127 157 l-31 55 132 -3 c73 -2 133 -5 134 -6z
m287 -106 c56 -26 136 -60 179 -75 43 -15 80 -31 82 -36 17 -26 -140 -84 -260
-96 l-52 -5 -31 53 c-37 66 -87 191 -96 243 l-8 40 43 -39 c23 -21 88 -59 143
-85z m1616 73 c-1 -18 -18 -35 -24 -24 -4 6 -4 16 -1 21 7 12 25 13 25 3z
m-372 -45 c-5 -13 -91 -46 -125 -47 -32 -1 -29 17 5 25 15 3 45 12 67 19 51
17 58 18 53 3z m-1438 -178 c-19 -12 -67 -13 -74 -2 -5 9 2 44 26 127 l11 40
26 -78 c22 -67 23 -79 11 -87z m883 139 c31 -10 37 -17 37 -40 0 -24 -5 -29
-35 -35 -19 -3 -56 -3 -81 1 -43 6 -45 8 -26 20 10 8 25 28 32 45 7 17 18 29
24 26 6 -3 28 -10 49 -17z m817 -5 c14 -35 12 -176 -3 -254 -11 -53 -26 -85
-81 -168 -75 -113 -193 -252 -249 -295 -44 -33 -128 -52 -272 -62 -127 -8
-244 7 -337 43 -84 32 -165 81 -152 91 5 3 9 13 9 21 0 23 74 58 148 70 79 12
210 58 276 96 76 45 222 159 282 221 58 59 140 158 157 188 9 18 152 74 190
74 15 1 26 -7 32 -25z m-509 -13 c-7 -13 -30 -22 -72 -30 -34 -6 -66 -8 -71
-5 -23 14 4 30 68 40 38 6 73 12 77 13 4 0 3 -7 -2 -18z m-1566 -73 c81 -42
117 -71 180 -147 16 -19 21 -45 27 -140 3 -64 9 -126 13 -138 6 -20 4 -23 -19
-23 -66 0 -170 90 -222 191 -30 61 -70 171 -85 239 -5 25 -12 53 -15 62 -6 21
-3 20 121 -44z m1687 -50 c-57 -69 -123 -128 -209 -186 -90 -60 -152 -96 -158
-90 -2 2 59 67 135 145 139 142 164 160 232 162 l26 1 -26 -32z m-490 -33 c6
-25 2 -38 -27 -82 -19 -28 -46 -60 -61 -70 -14 -10 -43 -33 -64 -50 -20 -18
-57 -40 -81 -50 -52 -19 -184 -22 -247 -4 l-43 12 81 87 c44 48 108 111 143
139 l62 53 114 -3 115 -2 8 -30z m198 -40 c-41 -42 -96 -90 -122 -106 -27 -17
-45 -36 -41 -42 3 -5 1 -7 -5 -3 -5 3 -13 0 -15 -6 -4 -9 -6 -9 -6 -1 -1 6 14
30 33 52 19 23 47 67 62 99 40 82 39 82 107 82 l61 0 -74 -75z m-954 -51 c14
-2 27 -18 38 -44 9 -22 16 -42 16 -45 0 -2 -17 3 -37 11 -46 19 -173 96 -173
105 0 3 30 0 68 -8 37 -8 77 -17 88 -19z m241 -29 c-32 -30 -61 -55 -65 -55
-6 0 -51 62 -60 83 -2 4 20 8 50 8 29 1 67 5 83 9 52 13 51 11 -8 -45z m-362
-89 c20 -14 58 -32 86 -41 28 -10 48 -19 46 -21 -15 -15 -138 -70 -145 -65 -9
5 -33 151 -26 151 2 0 19 -11 39 -24z m294 -116 c10 -5 48 -39 84 -75 l65 -65
-42 -12 c-79 -23 -334 -6 -373 25 -19 14 -16 37 5 37 9 0 58 22 107 49 92 50
123 58 154 41z m317 -79 c-3 -4 -19 -14 -36 -21 -24 -10 -33 -10 -45 0 -23 19
-8 30 41 30 25 0 43 -4 40 -9z m-50 -153 c75 -48 160 -83 259 -109 74 -18 118
-23 247 -23 86 -1 156 -2 155 -2 -1 -1 -44 -16 -94 -33 -261 -87 -517 -104
-688 -47 -95 33 -243 112 -304 165 l-44 38 144 0 c120 0 154 3 204 20 33 12
62 21 66 22 3 1 27 -13 55 -31z"/>
</g>
</svg>
