<svg width="499" height="123" viewBox="0 0 499 123" fill="none" xmlns="http://www.w3.org/2000/svg">
<path d="M295.133 65.8392C295.133 53.651 290.031 43 272.663 43C263.762 43 256.708 45.5255 252.799 47.8314L255.621 57.6039C259.204 55.4078 264.848 53.5412 270.167 53.5412C278.959 53.5412 280.369 58.5922 280.369 61.7765V62.5451C261.157 62.5451 249 69.2431 249 82.8588C249 91.2039 255.187 99 265.933 99C272.555 99 278.091 96.3647 281.347 92.0824H281.672C281.672 92.0824 283.844 101.306 296 97.7922C295.349 93.949 295.133 89.7765 295.133 84.8353V65.8392ZM280.804 78.5765C280.804 79.5647 280.695 80.5529 280.479 81.4314C279.393 85.1647 275.594 88.349 270.818 88.349C266.802 88.349 263.654 86.0431 263.654 81.2118C263.654 73.8549 271.686 71.8784 280.804 71.8784" fill="white"/>
<path d="M0 26C0 26 12.6897 77.8668 14.6587 86.2006C17.0654 96.0695 21.2224 99.6881 33.4744 97.2757L41.3508 65.1468C43.3199 57.142 44.742 51.44 45.9453 43.3255H46.164C47.0393 51.5496 48.3519 57.142 49.9929 65.1468C49.9929 65.1468 53.1653 79.7309 54.9156 87.4068C56.5565 95.0826 61.151 99.9074 73.1843 97.2757L92 26H76.7943L70.3401 56.813C68.5897 65.6951 67.0582 72.8227 65.8549 80.9371H65.6361C64.5421 72.8227 63.1201 66.1337 61.3698 57.3613L54.6968 26H38.8347L31.7242 56.5937C29.6456 65.9144 27.7859 73.3709 26.5826 81.3758H26.3638C25.1605 73.9192 23.4103 64.4889 21.6599 55.4972C21.6599 55.4972 17.3936 33.5662 15.9715 26" fill="white"/>
<path d="M134.224 65.8392C134.224 53.651 129.014 43 111.167 43C102.076 43 94.8707 45.5255 90.88 47.8314L93.7621 57.6039C97.3094 55.4078 103.074 53.5412 108.617 53.5412C117.596 53.5412 119.037 58.5922 119.037 61.7765V62.5451C99.4157 62.5451 87 69.2431 87 82.8588C87 91.2039 93.3187 99 104.293 99C111.055 99 116.709 96.3647 120.035 92.0824H120.368C120.368 92.0824 122.584 101.306 135 97.7922C134.335 93.949 134.113 89.7765 134.113 84.8353V65.8392H134.224ZM119.591 78.5765C119.591 79.5647 119.481 80.5529 119.258 81.4314C118.15 85.1647 114.27 88.349 109.393 88.349C105.291 88.349 102.076 86.0431 102.076 81.2118C102.076 73.8549 110.28 71.8784 119.591 71.8784" fill="white"/>
<path d="M142 26V97H156V81.9262V26H142Z" fill="white"/>
<path d="M339 26V78.9002C339 86.1891 340.316 91.2693 343.281 94.472C345.805 97.233 350.085 99 355.134 99C359.414 99 363.695 98.1165 365.67 97.4539L365.451 86.0787C363.915 86.41 362.268 86.7413 359.963 86.7413C355.024 86.7413 353.378 83.5386 353.378 77.0227V56.702H366V43.0076H353.378V26" fill="white"/>
<path d="M302 44.1904V97H316.797V69.9459C316.797 68.5391 316.905 67.2405 317.122 66.0501C318.202 60.3146 322.522 56.7435 328.787 56.7435C330.515 56.7435 331.704 56.9599 333 57.1764V43.3246C331.919 43.1082 331.164 43 329.759 43C324.25 43 317.986 46.4629 315.393 54.1463H315.069V44.1904" fill="white"/>
<path d="M164 44.296V97H178.575V66.004C178.575 64.6 178.685 63.088 179.233 61.684C180.438 58.552 183.397 54.88 188.109 54.88C194.028 54.88 196.767 59.74 196.767 66.76V96.784H211.343V65.464C211.343 64.06 211.561 62.44 211.89 61.252C213.096 57.688 216.274 54.88 220.657 54.88C226.576 54.88 229.425 59.632 229.425 67.948V96.892H244V65.788C244 49.48 235.562 43 226.028 43C221.863 43 218.466 43.972 215.507 45.808C212.986 47.32 210.686 49.48 208.712 52.396H208.384C206.082 46.672 200.713 43 193.589 43C184.493 43 180.438 47.536 178.027 51.316H177.808V44.188" fill="white"/>
<path d="M444 41C446.701 41 448.987 39.4775 449.299 37.6286L452 5.76393C452 2.61009 448.467 0 444 0C439.533 0 436 2.61009 436 5.76393L438.701 37.6286C439.013 39.4775 441.299 41 444 41Z" fill="white"/>
<path d="M427.009 51.7094C428.416 49.1856 428.308 46.4422 426.792 45.1254L400.576 26.5806C397.868 24.9346 393.751 26.9098 391.476 30.9699C389.202 35.03 389.634 39.5291 392.234 41.1751L421.158 54.7819C423.108 55.55 425.601 54.2333 427.009 51.7094Z" fill="white"/>
<path d="M460.937 51.6384C462.497 54.1705 464.949 55.4917 466.843 54.8311L496.599 41.1794C499.385 39.528 499.831 35.0142 497.491 30.9407C495.151 26.8672 490.916 24.9956 488.13 26.5369L461.16 45.1428C459.712 46.3539 459.599 49.2163 460.937 51.6384Z" fill="white"/>
<path d="M444 82C446.701 82 448.987 83.5226 449.299 85.3714L452 117.236C452 120.39 448.467 123 444 123C439.533 123 436 120.39 436 117.236L438.701 85.3714C439.013 83.4138 441.299 82 444 82Z" fill="white"/>
<path d="M460.937 71.2958C462.497 68.7679 464.949 67.4491 466.843 68.2184L496.599 81.8466C499.385 83.3853 499.831 88.0013 497.491 92.0678C495.151 96.1343 490.916 98.0027 488.13 96.464L461.16 77.8901C459.712 76.5712 459.599 73.8236 460.937 71.2958Z" fill="white"/>
<path d="M427.009 71.2469C428.416 73.7751 428.308 76.523 426.792 77.8421L400.576 96.4184C397.868 98.0672 393.751 96.0886 391.476 92.0216C389.202 87.9546 389.634 83.4479 392.234 81.7992L421.158 68.1692C423.108 67.5097 425.601 68.8287 427.009 71.2469Z" fill="white"/>
</svg>
