<svg width="508" height="108" viewBox="0 0 508 108" fill="none" xmlns="http://www.w3.org/2000/svg">
<g clip-path="url(#clip0_223_454)">
<path d="M179.314 62.2046L176.286 70.7442H176.034C175.529 68.8186 174.604 65.8883 173.09 62.3721L156.857 21.7674H140.961V86.4837H151.475V46.5488C151.475 44.0372 151.475 41.1907 151.391 37.6744C151.306 35.9163 151.138 34.5767 151.054 33.5721H151.306C151.811 36.0837 152.4 37.9256 152.82 39.0976L172.333 86.3163H179.734L199.079 38.679C199.499 37.5907 199.92 35.4139 200.34 33.5721H200.593C200.34 38.3442 200.172 42.6139 200.088 45.2093V86.2325H211.274V21.6H195.967L179.314 62.2046ZM221.871 39.8511H232.805V86.2325H221.871V39.8511ZM227.422 20.2604C225.572 20.2604 224.058 20.9302 222.797 22.1023C221.535 23.2744 220.862 24.7814 220.862 26.6232C220.862 28.3814 221.535 29.8883 222.797 31.0604C224.058 32.2325 225.572 32.8186 227.422 32.8186C229.273 32.8186 230.871 32.1488 232.048 31.0604C233.31 29.8883 233.983 28.3814 233.983 26.6232C233.983 24.8651 233.31 23.3581 232.048 22.1023C230.955 20.9302 229.357 20.2604 227.422 20.2604ZM271.578 39.4325C269.559 39.0139 267.457 38.7628 265.438 38.7628C260.476 38.7628 255.934 39.8511 252.149 42.0279C248.365 44.2046 245.337 47.2186 243.402 50.986C241.384 54.8372 240.375 59.2744 240.375 64.3814C240.375 68.8186 241.384 72.7535 243.318 76.3535C245.253 79.8697 247.944 82.7163 251.561 84.6418C255.009 86.5674 259.046 87.5721 263.588 87.5721C268.802 87.5721 273.26 86.4837 276.793 84.4744L276.877 84.3907V74.3442L276.456 74.679C274.858 75.8511 273.008 76.8558 271.157 77.4418C269.223 78.1116 267.457 78.4465 265.943 78.4465C261.569 78.4465 258.121 77.1907 255.682 74.4279C253.159 71.7488 251.897 68.0651 251.897 63.4604C251.897 58.6883 253.159 54.9209 255.766 52.1581C258.373 49.3953 261.822 47.9721 266.027 47.9721C269.559 47.9721 273.176 49.1442 276.456 51.4883L276.877 51.8232V41.1907L276.793 41.1069C275.363 40.5209 273.765 39.8511 271.578 39.4325ZM307.659 39.0976C304.968 39.0976 302.445 39.9349 300.258 41.693C298.408 43.2 297.146 45.3767 296.053 47.9721H295.969V39.8511H285.035V86.2325H295.969V62.5395C295.969 58.5209 296.81 55.1721 298.66 52.7442C300.51 50.2325 302.865 48.9767 305.725 48.9767C306.734 48.9767 307.744 49.2279 309.005 49.3953C310.183 49.7302 311.024 50.0651 311.612 50.4837L312.033 50.8186V39.9349L311.781 39.8511C311.024 39.3488 309.51 39.0976 307.659 39.0976ZM337.433 38.8465C329.779 38.8465 323.64 41.107 319.35 45.5442C314.977 49.9814 312.874 56.093 312.874 63.7953C312.874 70.9953 315.061 76.8558 319.266 81.1256C323.471 85.3116 329.191 87.4883 336.34 87.4883C343.825 87.4883 349.797 85.2279 354.086 80.707C358.459 76.186 360.562 70.1581 360.562 62.707C360.562 55.3395 358.544 49.479 354.422 45.2093C350.469 40.9395 344.666 38.8465 337.433 38.8465ZM346.18 74.5116C344.161 77.107 340.965 78.3628 337.012 78.3628C333.059 78.3628 329.863 77.107 327.593 74.3442C325.322 71.7488 324.228 67.9814 324.228 63.2093C324.228 58.2697 325.406 54.5023 327.593 51.8232C329.863 49.1442 332.975 47.8046 336.928 47.8046C340.797 47.8046 343.825 49.0604 346.012 51.6558C348.198 54.2511 349.376 58.0186 349.376 62.9581C349.208 67.9814 348.283 71.9163 346.18 74.5116ZM384.953 59.1069C381.504 57.6837 379.318 56.5953 378.308 55.6744C377.467 54.8372 377.047 53.6651 377.047 52.1581C377.047 50.9023 377.551 49.6465 378.813 48.8093C380.075 47.9721 381.504 47.5535 383.607 47.5535C385.457 47.5535 387.392 47.8883 389.242 48.3907C391.093 48.893 392.775 49.6465 394.12 50.6511L394.541 50.986V40.7721L394.289 40.6883C393.027 40.186 391.345 39.6837 389.326 39.2651C387.308 38.9302 385.457 38.7628 383.944 38.7628C378.729 38.7628 374.44 40.0186 371.075 42.7814C367.711 45.3767 366.113 48.893 366.113 52.9953C366.113 55.1721 366.449 57.0976 367.206 58.6883C367.963 60.279 369.057 61.786 370.571 63.0418C372.085 64.2139 374.271 65.5535 377.299 66.8093C379.822 67.8977 381.757 68.7349 382.934 69.4046C384.112 70.0744 384.869 70.8279 385.457 71.4139C385.878 72.0837 386.13 72.9209 386.13 74.0093C386.13 77.107 383.775 78.6139 378.981 78.6139C377.131 78.6139 375.197 78.279 372.926 77.5256C370.655 76.7721 368.552 75.6837 366.786 74.4279L366.365 74.093V84.7256L366.618 84.8093C368.216 85.5628 370.15 86.0651 372.505 86.6511C374.86 87.0697 376.963 87.4046 378.813 87.4046C384.448 87.4046 389.074 86.1488 392.354 83.386C395.718 80.7069 397.485 77.2744 397.485 72.8372C397.485 69.7395 396.644 66.9767 394.793 64.8837C392.354 62.8744 389.326 60.7814 384.953 59.1069ZM426.333 38.8465C418.679 38.8465 412.54 41.107 408.25 45.5442C403.961 49.9814 401.774 56.093 401.774 63.7953C401.774 70.9953 403.961 76.8558 408.166 81.1256C412.371 85.3116 418.091 87.4883 425.24 87.4883C432.725 87.4883 438.697 85.2279 442.986 80.707C447.359 76.186 449.462 70.1581 449.462 62.707C449.462 55.3395 447.444 49.479 443.322 45.2093C439.369 40.9395 433.566 38.8465 426.333 38.8465ZM434.996 74.5116C432.977 77.107 429.781 78.3628 425.828 78.3628C421.791 78.3628 418.679 77.107 416.408 74.3442C414.138 71.7488 413.044 67.9814 413.044 63.2093C413.044 58.2697 414.222 54.5023 416.408 51.8232C418.679 49.1442 421.791 47.8046 425.744 47.8046C429.529 47.8046 432.641 49.0604 434.828 51.6558C437.014 54.2511 438.192 58.0186 438.192 62.9581C438.192 67.9814 437.099 71.9163 434.996 74.5116ZM507.916 48.8093V39.8511H496.898V26.1209L496.561 26.2046L486.132 29.3023L485.88 29.386V39.8511H469.395V33.9907C469.395 31.3116 470.068 29.2186 471.246 27.879C472.423 26.5395 474.189 25.8697 476.376 25.8697C477.89 25.8697 479.488 26.2046 481.254 26.9581L481.675 27.2093V17.7488L481.422 17.6651C479.908 17.1628 477.89 16.8279 475.283 16.8279C472.002 16.8279 469.143 17.5814 466.536 18.8372C463.928 20.2604 461.994 22.186 460.564 24.7814C459.134 27.293 458.377 30.1395 458.377 33.4046V39.8511H450.724V48.7256H458.377V86.2325H469.395V48.8093H485.88V72.6697C485.88 82.4651 490.506 87.4046 499.757 87.4046C501.271 87.4046 502.869 87.1535 504.383 86.9023C505.981 86.5674 507.159 86.1488 507.832 85.8139L507.916 85.7302V76.7721L507.495 77.1069C506.822 77.5256 506.234 77.8604 505.224 78.1116C504.383 78.3628 503.626 78.4465 503.038 78.4465C500.851 78.4465 499.337 77.9442 498.244 76.6883C497.234 75.5163 496.73 73.5907 496.73 70.7442V48.8093H507.916Z" fill="white"/>
<path d="M0 0H51.557V51.3209H0V0Z" fill="white"/>
<path d="M56.9399 0H108.497V51.3209H56.9399V0Z" fill="white"/>
<path d="M0 56.6791H51.557V108H0V56.6791Z" fill="white"/>
<path d="M56.9399 56.6791H108.497V108H56.9399V56.6791Z" fill="white"/>
</g>
<defs>
<clipPath id="clip0_223_454">
<rect width="508" height="108" fill="white"/>
</clipPath>
</defs>
</svg>
