<svg width="549" height="104" viewBox="0 0 549 104" fill="none" xmlns="http://www.w3.org/2000/svg">
<path d="M335.158 19.6833V87.9826H354.481V19.6833H335.158ZM183.286 19.5705V87.9262H202.778V34.8547L217.977 34.9111C222.949 34.9111 226.452 36.1518 228.825 38.6898C231.876 41.9046 233.119 47.2061 233.119 56.7375V87.9262H251.99V50.1952C251.99 23.2364 234.757 19.5705 217.977 19.5705H183.286ZM366.289 19.6833V87.9826H397.591C414.258 87.9826 419.739 85.2191 425.615 79.0152C429.796 74.6725 432.451 65.0846 432.451 54.5944C432.451 45.0065 430.191 36.4338 426.18 31.0759C419.117 21.5445 408.777 19.6833 393.353 19.6833H366.289ZM385.443 34.5163H393.749C405.783 34.5163 413.58 39.8742 413.58 53.9176C413.58 67.9046 405.84 73.3189 393.749 73.3189H385.443V34.5163ZM307.36 19.6833L291.258 73.7701L275.833 19.6833H254.984L277.02 87.9826H304.818L327.022 19.6833H307.36ZM441.491 87.9262H460.814V19.6833H441.491V87.9262ZM495.618 19.6833L468.668 87.9262H487.708L492.002 75.9132H523.924L527.992 87.9262H548.672L521.439 19.6833H495.618ZM508.161 32.1475L519.857 64.0694H496.07L508.161 32.1475ZM58.7035 31.0195V21.6573C59.6075 21.6009 60.568 21.5445 61.472 21.5445C87.236 20.7549 104.073 43.5965 104.073 43.5965C104.073 43.5965 85.88 68.8633 66.331 68.8633C63.506 68.8633 61.02 68.4121 58.76 67.6226V39.141C68.7605 40.3818 70.7945 44.7809 76.84 54.7636L90.2305 43.4837C90.2305 43.4837 80.456 30.6811 63.958 30.6811C62.15 30.7375 60.3985 30.8503 58.7035 31.0195ZM58.7035 0V13.987C59.6075 13.9306 60.568 13.8742 61.472 13.8178C97.2365 12.577 120.571 43.0889 120.571 43.0889C120.571 43.0889 93.79 75.6312 65.9355 75.6312C63.393 75.6312 61.02 75.4056 58.76 75.0108V83.6963C60.681 83.9219 62.715 84.0911 64.749 84.0911C90.739 84.0911 109.497 70.8373 127.69 55.2148C130.685 57.6399 143.058 63.5054 145.601 66.0434C128.312 80.4816 88.027 92.1562 65.201 92.1562C62.9975 92.1562 60.907 92.0434 58.8165 91.8178V104H157.522V0L58.7035 0ZM58.7035 67.679V75.0672C34.691 70.7809 28.024 45.8525 28.024 45.8525C28.024 45.8525 39.55 33.1063 58.7035 31.0195V39.141H58.647C48.6465 37.9002 40.7365 47.3189 40.7365 47.3189C40.7365 47.3189 45.2 63.0542 58.7035 67.679ZM16.046 44.7809C16.046 44.7809 30.284 23.8568 58.7035 21.6573V14.0434C27.233 16.5813 0 43.2017 0 43.2017C0 43.2017 15.4245 87.757 58.7035 91.8742V83.7527C26.9505 79.7484 16.046 44.7809 16.046 44.7809Z" fill="white"/>
</svg>
