<?xml version="1.0" encoding="UTF-8"?>
<svg version="1.1" xmlns="http://www.w3.org/2000/svg" width="4096" height="1348">
<path d="M0 0 C1.32621563 0.16890579 2.65255402 0.3368501 3.97900391 0.50390625 C91.16262218 11.6123368 171.61790805 45.45640321 260 113 C260.86165771 113.7130127 260.86165771 113.7130127 261.74072266 114.44042969 C268.54852531 120.07841867 275.15880617 125.88729479 281.6003418 131.94165039 C284.62768194 134.77993327 287.7239441 137.45262565 291 140 C289.53284488 143.37933422 287.65463694 145.60269558 285.06594849 148.20820618 C284.2443927 149.03973709 283.42283691 149.87126801 282.5763855 150.72799683 C281.67348785 151.63155914 280.77059021 152.53512146 279.84033203 153.46606445 C278.88062852 154.43339159 277.92132864 155.40111932 276.96240234 156.36921692 C274.35988447 158.9936571 271.75084353 161.61151574 269.13988733 164.22755837 C267.50963076 165.86145892 265.88067989 167.49664985 264.25216293 169.13228416 C258.57307337 174.8358531 252.88829955 180.53369224 247.19873047 186.22680664 C241.89044392 191.53873499 236.59545303 196.86367117 231.30629838 202.19464332 C226.76645161 206.76912415 222.21708999 211.33399431 217.66024292 215.89154023 C214.93782945 218.61474837 212.21957927 221.34182604 209.51099014 224.07879066 C206.96594643 226.6498996 204.40933286 229.20889877 201.84318542 231.75893974 C200.45195076 233.14747936 199.07313802 234.54842988 197.69467163 235.949646 C196.8674762 236.76707779 196.04028076 237.58450958 195.1880188 238.42671204 C194.47161791 239.14512425 193.75521702 239.86353647 193.01710701 240.60371876 C191 242 191 242 188.88888359 241.84637737 C186.05729495 240.57758952 184.17595254 238.63625515 181.9375 236.5 C180.9511412 235.57736755 179.96281176 234.65683793 178.97265625 233.73828125 C178.4739502 233.27502441 177.97524414 232.81176758 177.46142578 232.33447266 C173.47246491 228.69203027 169.23457599 225.34950191 165 222 C164.38914551 221.51660156 163.77829102 221.03320312 163.14892578 220.53515625 C152.46234124 212.11812625 141.45962329 204.32836064 130 197 C129.40106934 196.61424805 128.80213867 196.22849609 128.18505859 195.83105469 C109.61227067 183.96702803 89.52580737 173.97821293 69 166 C67.92153809 165.5666333 67.92153809 165.5666333 66.82128906 165.12451172 C-20.35907623 130.13176804 -125.39832444 133.10673134 -211.64160156 169.10253906 C-222.96194968 173.96618994 -234.08692519 179.2821113 -245 185 C-246.03858154 185.54213135 -246.03858154 185.54213135 -247.09814453 186.09521484 C-264.32859618 195.16900875 -280.72328573 205.92026699 -296 218 C-296.61149902 218.48291504 -297.22299805 218.96583008 -297.85302734 219.46337891 C-310.65304526 229.61038165 -322.55558203 240.47729344 -334.1479187 251.97369385 C-335.15653658 252.97361485 -336.16651817 253.97216258 -337.17800903 254.96917725 C-343.92184014 261.62789272 -350.09865945 268.57379402 -356 276 C-356.95252073 277.13920327 -357.90885781 278.27524079 -358.87109375 279.40625 C-404.71890821 334.21586844 -431.3228018 404.64961557 -440 475 C-440.17789063 476.40523926 -440.17789063 476.40523926 -440.359375 477.83886719 C-448.94361879 548.88881355 -435.48054637 622.56345012 -405 687 C-404.37593262 688.32862061 -404.37593262 688.32862061 -403.73925781 689.68408203 C-387.55920577 723.85979068 -365.40508053 754.15294714 -340 782 C-339.091915 783.01254315 -338.18438828 784.02558718 -337.27734375 785.0390625 C-332.79013678 790.02915279 -328.29084426 794.85802499 -323.13671875 799.17578125 C-320.99350096 801.00554854 -318.93677129 802.91299675 -316.88208008 804.84106445 C-309.92256214 811.34736253 -302.60921694 817.27250891 -295 823 C-294.32727051 823.50789062 -293.65454102 824.01578125 -292.96142578 824.5390625 C-236.39061721 866.98350377 -168.54345121 892.5835603 -98 898 C-97.29649414 898.05639648 -96.59298828 898.11279297 -95.86816406 898.17089844 C-2.91242515 905.33438219 95.11170561 881.11714853 167.0625 820.1875 C171.6383673 816.25650116 176.13863928 812.23820344 180.6015625 808.1796875 C182.2337364 806.69637637 183.87474918 805.22274608 185.5234375 803.7578125 C194.87196268 795.44481626 203.24607199 786.82689016 211 777 C211.79277344 776.02417969 212.58554687 775.04835938 213.40234375 774.04296875 C248.57077816 729.87408194 263.35944638 674.72350629 272 620 C159.47 619.67 46.94 619.34 -69 619 C-69 571.48 -69 523.96 -69 475 C90.39 475 249.78 475 414 475 C418.64780792 504.04879949 421.22026486 531.92393135 421.1875 561.1875 C421.18659363 562.69526505 421.18659363 562.69526505 421.18566895 564.23348999 C421.04719264 649.60666242 402.96932954 735.61920132 335 853 C334.56880859 853.58136719 334.13761719 854.16273438 333.69335938 854.76171875 C322.63781129 869.60434398 310.50320811 883.64350028 297.328125 896.63671875 C295.32138026 898.67376669 293.461518 900.74883413 291.625 902.9375 C287.85469615 907.33179353 283.59672242 911.14787854 279.30078125 915.01171875 C277.03885328 917.04657538 274.81162468 919.11184515 272.60546875 921.20703125 C265.28577474 928.14664238 257.73888311 934.55068841 249.72363281 940.67041016 C248.03564677 941.97250251 246.37050793 943.29865912 244.7109375 944.63671875 C220.42632375 964.17771166 193.85037372 980.09221651 166 994 C164.70231689 994.65476318 164.70231689 994.65476318 163.37841797 995.32275391 C83.22198843 1035.57611573 -12.11743717 1048.77393831 -229 1019 C-229.99290039 1018.69126953 -230.98580078 1018.38253906 -232.00878906 1018.06445312 C-297.18539645 997.77584813 -359.27949381 963.10191762 -411.0078125 918.5546875 C-413.87918941 916.10314638 -416.80278357 913.73440595 -419.75 911.375 C-424.08320897 907.8530885 -428.01595511 904.09061022 -431.91015625 900.09375 C-433.75252173 898.24794084 -435.63269645 896.55453331 -437.625 894.875 C-446.41849383 887.32002643 -454.79584955 878.86587822 -462.2734375 870.0078125 C-464.11132307 867.87054286 -466.01753909 865.80363877 -467.93579102 863.73852539 C-473.54845203 857.68980013 -478.87512334 851.47020462 -484 845 C-484.50370117 844.36884277 -485.00740234 843.73768555 -485.52636719 843.08740234 C-505.17851531 818.41484426 -522.38756038 792.21699838 -537.58056641 764.58056641 C-538.8284049 762.31196427 -540.09036752 760.05196069 -541.35546875 757.79296875 C-570.50581035 705.01571508 -587.44032388 645.56764401 -595.70574951 586.10345459 C-595.97709792 584.16371589 -596.25975828 582.22556856 -596.54345703 580.28759766 C-602.15603517 540.48678287 -601.8361855 495.73495633 -596 456 C-595.7935072 454.53928713 -595.58747549 453.07850902 -595.38183594 451.61767578 C-587.4046175 395.6046843 -571.50482232 340.29723981 -545.08251953 290.07519531 C-543.81308389 287.64168089 -542.57706814 285.19223171 -541.33984375 282.7421875 C-531.61913128 263.62696096 -520.70479037 245.28571395 -508.27929688 227.80126953 C-507.00546224 226.00769092 -505.74405322 224.20588461 -504.484375 222.40234375 C-498.61092076 214.0360394 -492.39931849 205.96942052 -486 198 C-484.89205078 196.61554688 -484.89205078 196.61554688 -483.76171875 195.203125 C-479.39352586 189.80477327 -474.9058985 184.51187656 -470.375 179.25 C-469.58536865 178.32876343 -469.58536865 178.32876343 -468.77978516 177.38891602 C-465.53457634 173.64324004 -462.16033014 170.09098143 -458.61230469 166.63037109 C-456.94438285 164.94375965 -455.40568513 163.18635752 -453.875 161.375 C-446.92408477 153.32574602 -439.24590559 145.72953298 -431.1328125 138.85546875 C-428.8771857 136.89315606 -426.7033969 134.85322283 -424.52783203 132.80297852 C-417.90597031 126.58116723 -410.98751899 120.92685995 -403.78710938 115.39306641 C-401.99827919 113.99865861 -400.23826105 112.57476905 -398.484375 111.13671875 C-383.16796229 98.5938977 -366.76890269 87.5024966 -350 77 C-349.09169434 76.43104004 -349.09169434 76.43104004 -348.16503906 75.85058594 C-336.72654944 68.73678554 -324.90345909 62.29660334 -313 56 C-311.50895752 55.21036865 -311.50895752 55.21036865 -309.98779297 54.40478516 C-273.10670112 35.03557865 -233.45030295 20.8454511 -193 11 C-191.42025391 10.61038086 -191.42025391 10.61038086 -189.80859375 10.21289062 C-171.70434452 5.80120534 -153.46134143 2.67956308 -134.99859619 0.26428223 C-133.12469782 0.01648928 -131.25245787 -0.24375537 -129.38037109 -0.50488281 C-87.65005813 -6.13891249 -41.69345018 -5.62333007 0 0 Z " fill="#FFFFFF" transform="translate(599,3)"/>
<path d="M0 0 C1.05371796 0.00140488 1.05371796 0.00140488 2.12872314 0.00283813 C60.66316624 0.17111202 118.48267225 19.02645131 162.5625 58.1875 C163.32949219 58.83332031 164.09648437 59.47914063 164.88671875 60.14453125 C168.99304868 63.60949156 172.43400739 67.23470117 175.7265625 71.48828125 C177.94056565 73.77164884 177.94056565 73.77164884 183.5625 75.1875 C183.5625 57.3675 183.5625 39.5475 183.5625 21.1875 C230.0925 21.1875 276.6225 21.1875 324.5625 21.1875 C324.62289235 94.40779864 324.62289235 94.40779864 324.63945007 117.07989502 C324.64033807 118.2927549 324.64033807 118.2927549 324.64124402 119.53011701 C324.66114106 146.78006574 324.67688391 174.03001523 324.68952942 201.27996826 C324.68994359 202.17018155 324.69035776 203.06039483 324.69078448 203.97758428 C324.69976577 223.33001917 324.70807595 242.6824543 324.71569599 262.03488977 C324.7194376 271.52700339 324.72332731 281.01911694 324.72729492 290.51123047 C324.7276872 291.45574825 324.72807948 292.40026604 324.72848364 293.37340557 C324.74123972 323.92043145 324.76375262 354.46744055 324.79139166 385.01445629 C324.81977144 416.43763112 324.83817527 447.86079668 324.84424497 479.28398411 C324.84510928 483.73477106 324.84608619 488.18555799 324.84713173 492.63634491 C324.847334 493.51221824 324.84753627 494.38809156 324.84774467 495.29050651 C324.85127294 509.32017121 324.86514111 523.34980704 324.8829961 537.37946003 C324.90077491 551.52606847 324.90737495 565.67264864 324.90300413 579.81926784 C324.90094045 587.46711492 324.90356351 595.11488482 324.92011642 602.76271629 C325.11609197 697.06310428 314.28797932 794.2012395 252.5625 870.1875 C252.09054199 870.77515137 251.61858398 871.36280273 251.13232422 871.96826172 C239.24673366 886.67558106 225.71011973 900.83180097 210.5625 912.1875 C209.21467513 913.2367626 207.86703568 914.28626341 206.51953125 915.3359375 C164.48611932 947.6243754 114.48445432 964.99768681 62.5625 973.1875 C61.46147949 973.36684082 60.36045898 973.54618164 59.22607422 973.73095703 C22.21259224 979.47669102 -18.59483376 978.93941959 -55.4375 972.1875 C-56.60829102 971.97319336 -57.77908203 971.75888672 -58.98535156 971.53808594 C-113.40581505 961.17300182 -164.91513183 937.03588432 -206.4375 900.1875 C-207.82195313 898.96933594 -207.82195313 898.96933594 -209.234375 897.7265625 C-222.50060778 885.81627064 -235.54600452 873.33018816 -246.4375 859.1875 C-247.3820638 858.02850936 -248.33024893 856.87246445 -249.28125 855.71875 C-268.41891943 832.41368755 -284.92841947 805.50019931 -295.4375 777.1875 C-278.03697312 769.64793558 -260.56147487 762.30254771 -243.03637695 755.05786133 C-241.26382221 754.32506262 -239.49128008 753.59223336 -237.71875 752.859375 C-236.37401863 752.30342903 -236.37401863 752.30342903 -235.00212097 751.73625183 C-227.85997447 748.78125591 -220.72575052 745.80751539 -213.59375 742.828125 C-211.97838348 742.15360291 -211.97838348 742.15360291 -210.3303833 741.4654541 C-206.08283115 739.6917089 -201.83529179 737.91794364 -197.5892334 736.140625 C-186.92521461 731.67715777 -176.27140446 727.22647812 -165.4375 723.1875 C-164.72787109 724.6415625 -164.72787109 724.6415625 -164.00390625 726.125 C-140.5025348 773.93481204 -105.60036917 814.28644959 -54.19848633 832.73291016 C-6.34853677 848.89628402 48.30323128 844.99923002 93.75488281 823.16430664 C131.17858317 804.58196569 157.06902846 770.46637781 170.22265625 731.37109375 C179.31262659 703.04553645 182.48501937 674.00159724 182.87890625 644.37890625 C182.8995629 643.03270459 182.920561 641.68650812 182.94187927 640.34031677 C182.99620351 636.85367133 183.04599494 633.36697652 183.09472656 629.88024902 C183.14561081 626.2996804 183.20094184 622.71918051 183.25585938 619.13867188 C183.36233847 612.15500781 183.4640122 605.17128123 183.5625 598.1875 C178.28645767 599.81336275 178.28645767 599.81336275 174.4375 603.5625 C160.8277509 619.98295815 143.96219338 632.56797716 125.5625 643.1875 C124.85996094 643.59564941 124.15742188 644.00379883 123.43359375 644.42431641 C63.2799689 678.89966088 -10.70124962 682.40386886 -76.75 664.9375 C-110.0397526 655.70740169 -141.85430538 641.66219368 -170.4375 622.1875 C-171.42049072 621.52113525 -171.42049072 621.52113525 -172.42333984 620.84130859 C-191.56868978 607.79274767 -208.71548787 592.94118692 -225.15716553 576.64205933 C-226.58040827 575.23168844 -228.0071896 573.82489122 -229.43408203 572.41821289 C-235.53999046 566.31939295 -241.09041775 559.95737552 -246.4375 553.1875 C-247.34616821 552.05973145 -247.34616821 552.05973145 -248.27319336 550.90917969 C-256.70892071 540.4283186 -264.46751527 529.69694904 -271.4375 518.1875 C-271.90865234 517.41132324 -272.37980469 516.63514648 -272.86523438 515.83544922 C-303.44940451 464.96731845 -320.87865252 407.63155046 -322.4375 348.1875 C-322.47037109 347.1046875 -322.47037109 347.1046875 -322.50390625 346 C-324.76583265 261.55474772 -294.28776784 174.00964038 -236.703125 111.6640625 C-234.82603839 109.61221266 -233.00375363 107.53089046 -231.1875 105.42578125 C-227.35169482 101.03233898 -223.31299932 96.87081285 -219.1875 92.75 C-218.44024658 92.00355225 -217.69299316 91.25710449 -216.9230957 90.48803711 C-212.14889842 85.76637711 -207.30946307 81.35088414 -202.01953125 77.2109375 C-199.21145527 75.01035753 -196.52007665 72.69787361 -193.8125 70.375 C-140.19077984 25.77053959 -69.70516616 -0.12091185 0 0 Z M-121.79052734 196.40429688 C-129.83165618 205.11055318 -136.28822834 215.09638754 -142.4375 225.1875 C-142.98422363 226.06535156 -142.98422363 226.06535156 -143.54199219 226.9609375 C-163.98710572 260.01958533 -172.65697242 299.36574623 -172.6875 337.875 C-172.68817474 338.64450989 -172.68884949 339.41401978 -172.68954468 340.20684814 C-172.61086471 397.02554676 -151.5838324 449.22563543 -111.875 490 C-76.35450185 524.50198924 -29.19553278 541.89927098 19.9609375 541.40234375 C54.59203371 540.58981002 89.3063275 528.68716887 116.5625 507.1875 C117.39910156 506.54167969 118.23570312 505.89585937 119.09765625 505.23046875 C127.99987079 498.25454484 136.385034 490.94886009 143.5625 482.1875 C143.99288574 481.67477539 144.42327148 481.16205078 144.86669922 480.63378906 C152.67403367 471.32209521 159.46563264 461.69788912 165.5625 451.1875 C165.91795898 450.57970703 166.27341797 449.97191406 166.63964844 449.34570312 C178.16389011 429.41363443 185.16901241 407.46563521 189.8125 385 C189.96364258 384.278125 190.11478516 383.55625 190.27050781 382.8125 C193.072187 368.36772516 193.94719768 353.80931364 193.875 339.125 C193.87284485 338.3259021 193.8706897 337.5268042 193.86846924 336.70349121 C193.66250935 288.75174269 180.31978976 238.88998423 149.5625 201.1875 C149.14532715 200.67026367 148.7281543 200.15302734 148.29833984 199.62011719 C134.09409433 182.07400583 117.9801349 167.75522375 98.5625 156.1875 C97.99515137 155.8462207 97.42780273 155.50494141 96.84326172 155.15332031 C23.09213604 111.45049846 -65.76534749 137.85884489 -121.79052734 196.40429688 Z " fill="#FFFFFF" transform="translate(2856.4375,371.8125)"/>
<path d="M0 0 C1.15894775 -0.00101212 1.15894775 -0.00101212 2.34130859 -0.00204468 C80.95841614 0.10540513 166.58511 26.07623509 224.76171875 81.08984375 C226.6860109 82.89652212 228.64575274 84.6145735 230.6484375 86.33203125 C235.48446324 90.54887489 240.03560102 95.03702101 244.57104492 99.57324219 C245.98918284 100.98919947 247.41546665 102.39698289 248.84179688 103.8046875 C255.02302259 109.97302672 260.66540798 116.38823555 266.0625 123.25 C266.63701904 123.97058594 267.21153809 124.69117188 267.8034668 125.43359375 C304.44830925 171.65332463 327.00696816 226.13304216 336.0625 284.25 C336.22766113 285.27528809 336.39282227 286.30057617 336.56298828 287.35693359 C341.69269187 320.61247837 341.41078561 357.04888648 336.0625 390.25 C335.89089355 391.35134277 335.71928711 392.45268555 335.54248047 393.58740234 C325.35729399 457.4200322 297.69493204 517.36104799 254.0625 565.25 C253.44697266 565.92724121 252.83144531 566.60448242 252.19726562 567.30224609 C244.83124415 575.37023675 237.37565208 583.14441588 229.0625 590.25 C228.0431339 591.15366704 227.0249801 592.05870279 226.0078125 592.96484375 C210.2726915 606.86992193 193.16508527 618.64828507 175.0625 629.25 C174.19818359 629.75772949 173.33386719 630.26545898 172.44335938 630.78857422 C94.42270731 676.13552901 -1.99840238 686.47338047 -88.91748047 664.03930664 C-140.0515538 650.3044652 -188.54550868 625.68402246 -227.5 589.50390625 C-229.56594186 587.59357219 -231.66700579 585.7567003 -233.8125 583.9375 C-242.51056719 576.34678428 -250.56465374 568.07879445 -257.71875 559.01953125 C-259.65275064 556.60543538 -261.66262358 554.2877762 -263.71435547 551.97412109 C-276.88082271 536.96692355 -287.31637087 519.67506221 -296.9375 502.25 C-297.32599121 501.56196289 -297.71448242 500.87392578 -298.11474609 500.16503906 C-341.00609216 424.16938885 -348.38466622 327.75560641 -325.9375 244.25 C-323.8548962 236.83009514 -321.47842723 229.52455221 -318.9375 222.25 C-318.59847656 221.27820801 -318.25945312 220.30641602 -317.91015625 219.30517578 C-297.8503482 162.49660767 -261.64375327 110.41796716 -213.9375 73.25 C-213.06834961 72.57203369 -213.06834961 72.57203369 -212.18164062 71.88037109 C-151.44926347 24.75771058 -76.77100801 0.06140848 0 0 Z M-128.50195312 186.88183594 C-129.75293618 188.07409938 -131.02332325 189.24593722 -132.296875 190.4140625 C-170.43037763 226.45996462 -187.3072931 281.87211202 -189.0625 332.8828125 C-189.84536447 380.5396873 -176.47352356 429.35644317 -146.9375 467.25 C-146.52983398 467.77335937 -146.12216797 468.29671875 -145.70214844 468.8359375 C-134.3401731 483.21049009 -121.11883469 496.92799693 -105.9375 507.25 C-105.24462891 507.72244141 -104.55175781 508.19488281 -103.83789062 508.68164062 C-63.62961407 535.75359173 -14.70977542 547.57215895 33.33837891 538.78466797 C62.75498576 533.01101955 90.72451595 521.28291903 114.0625 502.25 C114.57441895 501.83814453 115.08633789 501.42628906 115.61376953 501.00195312 C158.26697145 466.56871576 183.16494776 416.91697398 189.65234375 362.77734375 C194.83533673 305.8312983 181.64280863 248.56828587 145.5625 203.5 C117.42778274 170.10879641 81.31955127 146.06010152 38.0625 137.25 C37.29180176 137.08918945 36.52110352 136.92837891 35.72705078 136.76269531 C-24.05778332 124.862164 -85.05891107 145.27402958 -128.50195312 186.88183594 Z " fill="#FFFFFF" transform="translate(1413.9375,371.75)"/>
<path d="M0 0 C0.78485779 0.00060425 1.56971558 0.0012085 2.37835693 0.00183105 C15.85406336 0.02981373 29.17581941 0.5346269 42.5625 2.1875 C43.56796875 2.31108887 44.5734375 2.43467773 45.609375 2.56201172 C80.70179274 7.06313806 114.3772309 16.53950696 146.5625 31.1875 C148.00764335 31.82850648 149.45294987 32.46914526 150.8984375 33.109375 C168.46516566 41.00959295 184.99177743 50.87399004 200.5625 62.1875 C201.38717773 62.78473877 201.38717773 62.78473877 202.22851562 63.39404297 C213.43192839 71.55037369 223.93129894 80.38483317 234.07177734 89.81445312 C236.47893263 92.03159058 238.9327413 94.19667897 241.375 96.375 C245.11280633 99.77106404 248.54276292 103.23748424 251.78515625 107.10546875 C253.0445489 108.58075729 254.3493515 110.01782396 255.68359375 111.42578125 C312.29080986 171.19333455 339.07511817 255.84083255 338.9375 336.875 C338.93668427 338.68757797 338.93668427 338.68757797 338.93585205 340.53677368 C338.89556852 360.05639811 338.02405431 378.9566427 334.5625 398.1875 C334.34819336 399.39212891 334.13388672 400.59675781 333.91308594 401.83789062 C320.55268901 474.45466226 283.02989209 543.99301374 226.5625 592.1875 C225.19544922 593.38826172 225.19544922 593.38826172 223.80078125 594.61328125 C196.06534722 618.79197498 163.58665465 637.43452561 129.5625 651.1875 C128.77665527 651.50912109 127.99081055 651.83074219 127.18115234 652.16210938 C91.22486964 666.71528874 51.30197129 674.23273792 12.5625 675.1875 C11.68899902 675.20941406 10.81549805 675.23132812 9.91552734 675.25390625 C-42.35376363 676.3437959 -94.33094655 666.84455188 -142.06347656 645.25927734 C-144.26194523 644.26675601 -146.46928318 643.29758505 -148.6796875 642.33203125 C-167.31031261 634.04062402 -185.00894761 623.24002889 -201.4375 611.1875 C-201.99937012 610.77580566 -202.56124023 610.36411133 -203.14013672 609.93994141 C-222.39181599 595.71386878 -240.88982404 579.4040385 -256.4375 561.1875 C-257.23800781 560.27613281 -258.03851562 559.36476563 -258.86328125 558.42578125 C-307.09925826 503.0941834 -337.34579929 426.67619814 -337.640625 353.03125 C-337.64632507 351.89006714 -337.65202515 350.74888428 -337.65789795 349.57312012 C-337.66729543 347.16285105 -337.67386088 344.75256943 -337.67773438 342.34228516 C-337.68732583 338.75268339 -337.71835297 335.16368384 -337.75 331.57421875 C-338.14677163 245.09323476 -303.5512851 160.71882599 -242.79199219 99.31469727 C-241.63246043 98.14700122 -240.47263218 96.97959951 -239.3125 95.8125 C-238.75937134 95.25392303 -238.20624268 94.69534607 -237.63635254 94.11984253 C-230.57465727 87.00646547 -223.35206636 80.36293073 -215.4375 74.1875 C-214.64746582 73.56375488 -213.85743164 72.94000977 -213.04345703 72.29736328 C-187.51870605 52.32404392 -159.45684503 36.3563201 -129.4375 24.1875 C-128.64875488 23.86442871 -127.86000977 23.54135742 -127.04736328 23.20849609 C-86.97875859 6.99251643 -43.07412354 -0.06190293 0 0 Z M-131.4375 189.1875 C-132.09105469 189.78820312 -132.74460937 190.38890625 -133.41796875 191.0078125 C-170.43949035 226.00678067 -187.52382054 280.68554296 -189.296875 330.3112793 C-189.91841784 354.40577579 -187.06201369 378.0089499 -180.4375 401.1875 C-180.13900146 402.26765381 -180.13900146 402.26765381 -179.83447266 403.36962891 C-172.56252738 429.21153763 -158.96665914 453.89246944 -141.4375 474.1875 C-140.7671875 474.96738281 -140.096875 475.74726562 -139.40625 476.55078125 C-137.12664892 479.14011074 -134.79710622 481.67083021 -132.4375 484.1875 C-131.73995605 484.93604248 -131.73995605 484.93604248 -131.02832031 485.69970703 C-119.10381489 498.39441822 -105.53823667 508.53773988 -90.4375 517.1875 C-89.31472656 517.84234375 -88.19195313 518.4971875 -87.03515625 519.171875 C-45.5012334 542.77316486 4.37274976 546.93075435 50.08081055 534.72753906 C80.13037496 526.23488112 105.85235632 510.44229915 128.5625 489.1875 C129.96822266 487.88039063 129.96822266 487.88039063 131.40234375 486.546875 C171.42772319 448.4647327 189.03994698 393.22457905 190.51025391 339.18017578 C191.51583167 281.58030572 169.69770962 228.76874139 130.60546875 187.1015625 C102.87676568 158.52575038 64.61862046 141.0123935 25.5625 135.1875 C24.93053711 135.0932373 24.29857422 134.99897461 23.64746094 134.90185547 C-34.53407621 127.28511559 -89.76001759 149.41230932 -131.4375 189.1875 Z " fill="#FFFFFF" transform="translate(2143.4375,371.8125)"/>
<path d="M0 0 C0.86638092 0.00093658 1.73276184 0.00187317 2.62539673 0.00283813 C15.51538404 0.03302476 28.23310131 0.24834341 41 2.1875 C42.56838623 2.42146484 42.56838623 2.42146484 44.16845703 2.66015625 C97.61057863 10.878509 147.28451071 32.31909277 188 68.1875 C188.73476562 68.82300781 189.46953125 69.45851563 190.2265625 70.11328125 C192.16320491 71.79144748 194.08386477 73.48597192 196 75.1875 C196.78890625 75.88359375 197.5778125 76.5796875 198.390625 77.296875 C206.81198902 84.78827244 214.69568777 92.6038174 222 101.1875 C222.78761719 102.08597656 223.57523438 102.98445313 224.38671875 103.91015625 C253.23311236 137.04961627 274.4547516 175.78806611 290.52929688 216.48876953 C292.11631556 220.48002667 293.73525772 224.45734354 295.359375 228.43359375 C296.19682256 230.49290195 297.03328275 232.55260729 297.86917114 234.61254883 C298.41115416 235.94540462 298.95513496 237.27744994 299.50119019 238.60864258 C300.26128981 240.46427386 301.01171685 242.32385828 301.76171875 244.18359375 C302.19444092 245.24763428 302.62716309 246.3116748 303.07299805 247.40795898 C304 250.1875 304 250.1875 304 254.1875 C277.17033287 265.45237693 250.30401052 276.62477102 223.40328979 287.71882629 C213.76348733 291.6954428 204.13135488 295.6904772 194.5 299.6875 C180.00590772 305.70184566 165.50500757 311.69952874 151 317.6875 C136.39138951 323.71847552 121.78615424 329.75746109 107.1875 335.8125 C106.34907562 336.16024475 105.51065125 336.5079895 104.64682007 336.86627197 C98.76435453 339.30621816 92.88214566 341.74678278 87 344.1875 C80.27101397 346.97960224 73.54190693 349.77141234 66.8125 352.5625 C65.97447845 352.91008362 65.13645691 353.25766724 64.27304077 353.61578369 C49.54800044 359.72254011 34.81494015 365.80978374 20.08013916 371.89294434 C6.44493861 377.52239911 -7.1864734 383.16087487 -20.8125 388.8125 C-21.65092438 389.16024475 -22.48934875 389.5079895 -23.35317993 389.86627197 C-29.23564547 392.30621816 -35.11785434 394.74678278 -41 397.1875 C-61.86119298 405.84357142 -82.72450043 414.49451251 -103.59707642 423.12310791 C-105.58350316 423.94439413 -107.5698149 424.76595857 -109.55599976 425.58782959 C-115.70032078 428.13004907 -121.84738794 430.66540731 -128 433.1875 C-128.77355835 433.50479065 -129.5471167 433.8220813 -130.34411621 434.14898682 C-132.4646538 435.01643761 -134.58725693 435.87855856 -136.7109375 436.73828125 C-137.8870459 437.21563721 -139.0631543 437.69299316 -140.27490234 438.18481445 C-143 439.1875 -143 439.1875 -145 439.1875 C-126.79839168 479.04671821 -93.66202436 512.63583471 -52.625 528.5 C-5.98395599 545.76672921 48.25195874 545.20000419 94 525.1875 C125.56057943 510.56215307 152.34812202 488.15716589 173 460.1875 C173.88792288 459.00805929 174.77725186 457.82967585 175.66796875 456.65234375 C177.79200236 453.84057771 179.90063528 451.01775466 182 448.1875 C187.05377689 449.87439766 191.20077006 452.78125677 195.6015625 455.70703125 C196.45444855 456.26918335 197.30733459 456.83133545 198.18606567 457.41052246 C201.00220957 459.26894005 203.81371523 461.13424152 206.625 463 C208.59527329 464.30313625 210.56565246 465.60611242 212.53613281 466.90893555 C230.7348052 478.95637506 248.82407396 491.16523799 266.90129089 503.39379883 C277.23191708 510.37843493 287.60749235 517.29531038 298 524.1875 C296.81148909 527.39286748 295.56002125 530.06493815 293.49609375 532.7890625 C293.0074585 533.43842773 292.51882324 534.08779297 292.01538086 534.75683594 C291.49468018 535.43520508 290.97397949 536.11357422 290.4375 536.8125 C289.89810791 537.52180664 289.35871582 538.23111328 288.80297852 538.96191406 C281.84226277 548.07224743 274.57313753 556.80361851 266.765625 565.19921875 C264.07232643 568.0955535 261.44512012 571.04839677 258.8125 574 C255.45937425 577.68948946 252.04355782 581.06842561 248.2265625 584.26953125 C245.97504237 586.20899859 243.8259699 588.23869227 241.67407227 590.28735352 C233.6059354 597.92281042 224.93970293 604.6093418 216 611.1875 C215.31421875 611.69812988 214.6284375 612.20875977 213.921875 612.73486328 C203.25220888 620.6531198 192.11715851 627.43445304 180.47363281 633.82519531 C178.24990148 635.04987167 176.04170665 636.29807399 173.8359375 637.5546875 C100.29218904 678.76454655 4.87762151 685.37241125 -75.70507812 663.16650391 C-123.97047896 649.31670349 -169.65819354 626.40167941 -206.7890625 592.21484375 C-208.73982911 590.4260666 -210.72980395 588.70906881 -212.75 587 C-221.76747098 579.13955686 -230.42157781 570.44458344 -238 561.1875 C-238.4139502 560.68734375 -238.82790039 560.1871875 -239.25439453 559.671875 C-257.50216717 537.5641185 -272.22165102 513.82139481 -285 488.1875 C-285.39928711 487.39778809 -285.79857422 486.60807617 -286.20996094 485.79443359 C-327.206616 403.81890172 -327.19252753 301.78462184 -299.1875 215.9375 C-293.28945373 198.41985413 -285.63242675 181.52065094 -277 165.1875 C-276.63471191 164.48882813 -276.26942383 163.79015625 -275.89306641 163.0703125 C-267.03012543 146.22135578 -256.41392927 130.530914 -244.33740234 115.81738281 C-243.46235786 114.75097227 -242.59265164 113.68015333 -241.72900391 112.60449219 C-234.82632733 104.02450495 -227.19520107 96.1755501 -219.4375 88.375 C-218.95462524 87.88685822 -218.47175049 87.39871643 -217.97424316 86.89578247 C-211.33252024 80.19810581 -204.41212221 74.02611566 -197 68.1875 C-196.392771 67.70063721 -195.78554199 67.21377441 -195.15991211 66.7121582 C-182.23088978 56.37667618 -168.3545293 47.4062432 -154 39.1875 C-153.37496582 38.82833496 -152.74993164 38.46916992 -152.10595703 38.09912109 C-106.0179364 11.92262991 -52.72085442 -0.07372312 0 0 Z M-123 191.1875 C-155.89401059 230.12629495 -171.22897606 275.39321787 -170 326.1875 C-163.92157566 324.24964139 -158.02753487 322.04686211 -152.15625 319.5546875 C-150.91172562 319.03141624 -150.91172562 319.03141624 -149.64205933 318.49757385 C-147.85784066 317.74702656 -146.07423685 316.99501624 -144.29119873 316.2416687 C-139.47043283 314.20508986 -134.64494527 312.17974055 -129.8203125 310.15234375 C-128.33707993 309.52849541 -128.33707993 309.52849541 -126.82388306 308.89204407 C-117.02098971 304.77060632 -107.20023463 300.69283068 -97.375 296.625 C-95.68073686 295.9231978 -93.98648233 295.22137482 -92.29223633 294.51953125 C-88.8998755 293.11441763 -85.50736437 291.70966769 -82.11474609 290.30517578 C-73.47129442 286.72678472 -64.82927506 283.14493781 -56.1875 279.5625 C-55.33363708 279.20856171 -54.47977417 278.85462341 -53.60003662 278.48995972 C-41.72807209 273.56844937 -29.86162814 268.63386689 -18 263.6875 C-0.07909277 256.21437901 17.85675942 248.77749576 35.79443359 241.34472656 C40.95308633 239.20707187 46.11136503 237.06851584 51.26953125 234.9296875 C52.53849747 234.40353851 52.53849747 234.40353851 53.83309937 233.86676025 C58.07118596 232.10947897 62.30914057 230.35188038 66.546875 228.59375 C74.55737874 225.27078703 82.56916049 221.95100013 90.58505249 218.64105225 C94.37389368 217.07634873 98.16206997 215.51003915 101.95019531 213.94360352 C103.75731755 213.19686811 105.56476576 212.45092101 107.37255859 211.70581055 C109.87810638 210.67305199 112.38252102 209.63758947 114.88671875 208.6015625 C115.62230515 208.29920685 116.35789154 207.9968512 117.11576843 207.68533325 C121.16555543 206.00638043 125.10068819 204.19997412 129 202.1875 C126.68261659 185.7828648 110.39428018 170.19638481 98.0234375 160.390625 C92.87056124 156.63581594 87.55565953 153.31174148 82 150.1875 C80.94554688 149.59195313 79.89109375 148.99640625 78.8046875 148.3828125 C11.2327622 112.44029904 -73.34562942 135.82067971 -123 191.1875 Z " fill="#FFFFFF" transform="translate(3792,371.8125)"/>
<path d="M0 0 C47.85 0 95.7 0 145 0 C145 326.04 145 652.08 145 988 C97.15 988 49.3 988 0 988 C0 661.96 0 335.92 0 0 Z " fill="#FFFFFF" transform="translate(3268,38)"/>
</svg>
