<svg width="439" height="132" viewBox="0 0 439 132" fill="none" xmlns="http://www.w3.org/2000/svg">
<path d="M120.757 2.53956C121.351 3.00091 121.351 3.00091 121.958 3.47158C122.371 3.7865 122.784 4.10142 123.21 4.42588C124.727 5.69968 125.69 7.18558 126.707 8.87184C126.971 9.2963 126.971 9.2963 127.239 9.72934C127.667 10.4187 128.088 11.1115 128.509 11.805C128.725 11.4923 128.942 11.1797 129.165 10.8575C132.626 5.95734 136.414 1.58592 142.646 0.511031C149.75 -0.16751 155.587 0.813735 161.232 5.48469C165.347 9.25439 166.492 14.3453 166.94 19.6998C166.997 21.0692 167.001 22.4361 166.998 23.8065C166.999 24.2072 166.999 24.608 167 25.0208C167.001 26.3631 166.998 27.7052 166.994 29.0474C166.994 29.5139 166.993 29.9804 166.992 30.461C166.985 34.0053 166.967 37.5496 166.946 41.0939C166.94 42.1164 166.934 43.139 166.928 44.1616C166.903 48.6994 166.869 53.237 166.824 57.7746C166.81 59.2934 166.798 60.8121 166.789 62.3309C166.778 64.1378 166.76 65.9446 166.738 67.7514C166.73 68.4245 166.725 69.0976 166.723 69.7708C166.718 70.6966 166.706 71.622 166.692 72.5477C166.685 73.3303 166.685 73.3303 166.677 74.1288C166.503 75.402 166.503 75.402 165.937 76.2268C164.63 77.0895 163.106 76.923 161.592 76.9234C161.239 76.9267 160.886 76.9301 160.523 76.9335C159.778 76.9382 159.032 76.9395 158.286 76.9375C157.146 76.9371 156.008 76.9553 154.868 76.9748C154.143 76.9771 153.418 76.9782 152.694 76.9782C152.353 76.9854 152.013 76.9926 151.662 77C150.12 76.9803 149.243 76.903 148.069 75.8617C146.985 74.008 147.058 72.5202 147.096 70.4082C147.097 69.7904 147.097 69.7904 147.097 69.1601C147.101 67.798 147.117 66.4364 147.132 65.0743C147.137 64.1218 147.14 63.1693 147.143 62.2168C147.152 59.7045 147.171 57.1925 147.193 54.6803C147.226 50.6788 147.243 46.6771 147.261 42.6755C147.269 41.2877 147.28 39.9 147.292 38.5122C147.322 34.6413 147.328 30.7731 147.152 26.9054C147.114 26.0505 147.114 26.0505 147.075 25.1784C146.836 23.5453 146.337 22.4484 145.541 21.0156C145.397 20.5814 145.252 20.1472 145.104 19.6998C142.449 18.6221 139.45 18.2583 136.685 19.1395C134.48 20.1582 132.989 21.3467 132.086 23.6834C131.186 26.4976 130.944 29.0233 130.968 31.9674C130.966 32.4265 130.965 32.8857 130.963 33.3587C130.96 34.3475 130.96 35.3364 130.963 36.3252C130.967 37.8904 130.962 39.4554 130.956 41.0206C130.938 45.4678 130.938 49.9149 130.939 54.3621C130.939 57.0888 130.93 59.8153 130.917 62.5419C130.912 64.0836 130.918 65.625 130.923 67.1667C130.919 68.1102 130.915 69.0537 130.91 69.9971C130.916 70.6394 130.916 70.6394 130.923 71.2946C130.903 73.1579 130.851 74.2482 129.909 75.8874C128.481 77.1175 127.079 77.0161 125.286 76.9782C124.933 76.9782 124.58 76.9782 124.216 76.9783C123.471 76.9759 122.727 76.9682 121.982 76.9555C120.841 76.9371 119.701 76.9375 118.56 76.9405C117.836 76.9359 117.112 76.9302 116.388 76.9234C116.047 76.9233 115.706 76.9232 115.354 76.9231C112.995 76.8713 112.995 76.8713 112.043 76.1705C111.328 75.2 111.305 74.6487 111.288 73.4473C111.279 73.0475 111.27 72.6476 111.262 72.2356C111.259 71.798 111.256 71.3605 111.253 70.9098C111.245 70.4487 111.237 69.9875 111.229 69.5125C111.205 67.9851 111.191 66.4579 111.176 64.9304C111.161 63.8694 111.146 62.8084 111.13 61.7474C111.054 56.2179 111.032 50.6891 111.047 45.1591C111.048 44.6336 111.049 44.1081 111.05 43.5666C111.057 41.0443 111.07 38.5223 111.094 36.0002C111.461 27.6437 111.461 27.6437 108.42 20.1384C106.129 18.3552 103.329 18.494 100.559 18.8226C98.6703 19.3905 97.654 20.366 96.4917 21.975C94.8741 25.2436 94.7544 28.733 94.7697 32.316C94.7674 32.9981 94.7674 32.9981 94.7649 33.6941C94.7619 34.6748 94.7608 35.6555 94.7614 36.6362C94.7618 38.1885 94.7562 39.7406 94.7488 41.2928C94.7286 45.7037 94.7178 50.1145 94.7149 54.5254C94.7127 57.2288 94.7022 59.9321 94.6864 62.6355C94.6821 63.6644 94.6811 64.6934 94.6834 65.7223C94.6865 67.1585 94.679 68.5943 94.6691 70.0304C94.6727 70.4552 94.6762 70.8799 94.6799 71.3175C94.6571 73.1727 94.6006 74.2538 93.6609 75.8853C92.2343 77.1183 90.8323 77.0161 89.0384 76.9782C88.6854 76.9782 88.3323 76.9782 87.9685 76.9783C87.2237 76.9759 86.4789 76.9682 85.7342 76.9555C84.5934 76.9371 83.4537 76.9375 82.3128 76.9405C81.5886 76.9359 80.8645 76.9302 80.1403 76.9234C79.7991 76.9233 79.4579 76.9232 79.1063 76.9231C76.7735 76.8719 76.7735 76.8719 75.7943 76.2282C74.953 74.9988 75.0626 74.0071 75.0596 72.5248C75.0573 72.2312 75.0549 71.9376 75.0525 71.6351C75.0462 70.6491 75.0493 69.6634 75.0525 68.6775C75.05 67.9715 75.0469 67.2654 75.0434 66.5594C75.0355 64.6401 75.0361 62.7208 75.0385 60.8015C75.0399 59.2003 75.0372 57.5991 75.0346 55.9979C75.0285 52.2209 75.0291 48.444 75.0341 44.6671C75.0391 40.7683 75.033 36.8695 75.0213 32.9707C75.0116 29.6254 75.0087 26.2801 75.0113 22.9348C75.0127 20.9358 75.0117 18.937 75.0042 16.9381C74.9974 15.0585 74.9991 13.179 75.0074 11.2994C75.009 10.6092 75.0076 9.9189 75.003 9.22865C74.9973 8.28703 75.0023 7.34605 75.01 6.40446C75.0101 5.87734 75.0102 5.35023 75.0103 4.80714C75.2738 3.19763 75.6832 2.67848 76.9758 1.71718C78.1201 1.53708 79.0787 1.46045 80.2222 1.46875C80.6905 1.46468 80.6905 1.46468 81.1683 1.46052C81.8272 1.45741 82.4861 1.45879 83.145 1.46436C84.15 1.47044 85.1531 1.45551 86.158 1.43877C86.7997 1.43836 87.4414 1.43917 88.0831 1.44134C88.3816 1.43553 88.6801 1.42971 88.9876 1.42372C90.6411 1.45587 91.3523 1.68939 92.6665 2.72759C93.8184 4.23352 93.9102 5.50498 93.9259 7.33674C93.9369 7.64064 93.9479 7.94453 93.9592 8.25763C93.9847 9.00122 93.9976 9.74522 94.0078 10.4892C94.1829 10.2133 94.358 9.93737 94.5384 9.6531C100.28 0.970822 111.252 -2.9676 120.757 2.53956Z" fill="white"/>
<path d="M209.525 0.0113553C210.43 0.0209296 211.334 0.0113488 212.24 8.16486e-05C219.383 -0.01516 226.501 2.10243 231.778 7.25857C235.76 11.8297 237.009 17.2272 237.018 23.2337C237.02 23.5641 237.022 23.8945 237.025 24.2349C237.029 24.9474 237.033 25.6599 237.036 26.3724C237.041 27.5043 237.05 28.6361 237.059 29.7679C237.085 32.9844 237.109 36.2009 237.123 39.4175C237.132 41.3903 237.148 43.363 237.167 45.3357C237.173 46.0827 237.177 46.8297 237.178 47.5766C237.189 53.0173 237.35 57.8834 240.677 62.3485C242.904 65.362 242.904 65.362 243 67.2881C241.561 69.6115 239.457 71.1625 237.372 72.8572C236.476 73.6169 235.651 74.3608 234.826 75.1917C234.422 75.5964 234.017 76.001 233.601 76.418C233.238 76.794 232.874 77.17 232.5 77.5575C230.985 78.6348 230.115 78.6405 228.307 78.3882C227.362 77.8332 227.362 77.8332 226.578 77.0562C226.292 76.7741 226.006 76.4919 225.711 76.2012C221.95 72.1783 221.95 72.1783 220.96 69.9521C219.44 70.6323 218.364 71.5759 217.125 72.6994C210.22 78.5803 202.886 79.447 194.167 78.8323C189.222 78.1694 184.99 75.308 181.865 71.3847C178.039 65.6691 177.468 58.7606 178.379 52.0409C179.798 45.4765 183.188 40.1722 188.662 36.485C197.041 31.3767 207.853 29.7536 217.503 29.9914C217.477 28.6585 217.439 27.3276 217.395 25.9953C217.389 25.6227 217.383 25.2501 217.377 24.8662C217.256 21.6638 216.533 19.1669 214.235 16.9209C211.605 15.1885 208.407 15.5099 205.403 15.7832C203.17 16.4603 201.596 17.4046 200.055 19.1965C199.284 20.812 198.651 22.4468 198.068 24.143C197.624 25.1073 197.624 25.1073 196.328 25.9953C195.344 26.0287 195.344 26.0287 194.194 25.919C193.771 25.8801 193.349 25.8412 192.913 25.8011C192.471 25.7553 192.03 25.7095 191.574 25.6623C191.146 25.6234 190.718 25.5845 190.276 25.5444C182.383 24.7831 182.383 24.7831 180.853 23.63C180.062 22.4878 180.299 21.4316 180.497 20.1018C181.94 13.7156 185.206 9.0374 190.278 5.12698C196.219 1.33929 202.618 -0.0750956 209.525 0.0113553ZM200.731 46.7805C198.322 50.3867 198.137 53.6651 198.489 57.9639C198.85 59.9481 199.552 61.4365 201.028 62.7925C203.268 64.3577 204.83 64.9003 207.564 64.624C210.867 63.7605 213.078 62.2615 214.91 59.2959C216.505 56.0141 217.566 52.9834 217.545 49.2971C217.544 48.8435 217.543 48.3899 217.541 47.9226C217.538 47.4541 217.534 46.9856 217.53 46.5029C217.528 46.0259 217.526 45.5488 217.524 45.0573C217.519 43.8834 217.512 42.7095 217.503 41.5356C211.326 41.2248 205.253 42.1336 200.731 46.7805Z" fill="white"/>
<path d="M31.7204 0.0236093C32.6563 0.0273961 33.591 0.0145453 34.5269 0.000512458C41.6779 -0.0368962 49.1525 1.97091 54.5186 6.96729C59.3419 12.2766 59.9379 18.369 59.9593 25.217C59.963 26.3623 59.9721 27.5075 59.9825 28.6527C60.0036 31.0845 60.0182 33.5164 60.0319 35.9483C60.0477 38.7675 60.0662 41.5866 60.0918 44.4057C60.1006 45.5271 60.1043 46.6483 60.1078 47.7697C60.1535 54.8241 61.294 59.3348 65.5279 65.0056C65.9862 65.9564 65.9862 65.9564 66 67.0251C65.358 68.6512 64.2351 69.6075 62.9539 70.731C62.6984 70.9617 62.443 71.1923 62.1798 71.43C60.1385 73.2585 58.0394 75.0128 55.9055 76.7305C54.9419 77.4917 54.9419 77.4917 54.0775 78.3926C52.764 78.6958 52.2498 78.7664 50.9901 78.3926C47.6286 76.1029 45.2816 72.8665 43.0509 69.5096C42.7934 69.7921 42.7934 69.7921 42.5306 70.0804C37.5984 75.2875 31.4364 78.6992 24.2299 78.986C16.8834 79.097 11.2727 78.66 5.56056 73.507C0.916266 68.9098 0.0734027 63.4957 0.0197057 57.2121C0.0132028 56.7058 0.00669994 56.1994 0 55.6777C0.0517799 51.3683 1.06894 47.6925 3.35525 44.0263C3.56448 43.6839 3.7737 43.3415 3.98927 42.9888C8.69227 36.0506 16.3219 33.0206 24.2653 31.507C29.431 30.6279 34.7163 29.8531 39.9635 29.98C39.9249 28.6377 39.8777 27.2966 39.8257 25.9548C39.8157 25.5784 39.8058 25.2019 39.7955 24.8141C39.681 22.0989 39.3629 19.7931 37.5376 17.6582C34.454 15.3131 31.3277 15.4902 27.6137 15.7671C25.0986 16.4356 23.2043 17.9394 21.8799 20.2086C21.3921 21.3413 20.9553 22.4758 20.5533 23.6421C20.0781 24.7367 19.7264 25.2528 18.7925 25.9826C17.795 26.0664 17.795 26.0664 16.6302 25.9496C16.2034 25.9099 15.7765 25.8702 15.3367 25.8293C14.6594 25.754 14.6594 25.754 13.9683 25.6772C13.5105 25.6305 13.0527 25.5838 12.581 25.5356C11.2688 25.3975 9.95845 25.2479 8.648 25.0943C8.32698 25.0591 8.00596 25.024 7.67521 24.9878C3.69794 24.5407 3.69794 24.5407 2.55237 23.4218C1.53229 21.4762 2.30298 19.552 2.91418 17.5437C5.78473 10.2885 10.2849 5.96129 17.1936 2.55352C21.9201 0.540768 26.6384 -0.00760625 31.7204 0.0236093ZM24.0852 45.5253C21.0695 48.8289 20.3195 51.9308 20.3896 56.3828C20.6647 58.9817 21.5308 61.2407 23.4512 63.0538C25.5157 64.5143 27.3455 64.7872 29.819 64.6239C33.1026 63.9031 35.7429 61.9561 37.5566 59.1171C39.7252 54.9544 40.0902 51.2689 40.0186 46.6357C40.0146 46.1433 40.0107 45.6509 40.0066 45.1436C39.9962 43.9383 39.9818 42.7332 39.9635 41.5279C34.6565 41.3922 28.2242 41.6912 24.0852 45.5253Z" fill="white"/>
<path d="M431.503 3.6843C436.069 7.35 437.988 12.1654 438.825 17.7956C438.948 19.7349 438.951 21.6687 438.947 23.6114C438.949 24.177 438.951 24.7426 438.953 25.3254C438.959 26.863 438.96 28.4005 438.959 29.9381C438.958 31.224 438.96 32.5099 438.962 33.7957C438.967 36.8266 438.967 39.8574 438.965 42.8882C438.962 46.0153 438.968 49.1423 438.977 52.2695C438.985 54.9587 438.987 57.6478 438.986 60.337C438.985 61.9416 438.986 63.546 438.992 65.1505C438.999 66.9346 438.995 68.7184 438.99 70.5025C438.993 71.0354 438.997 71.5683 439 72.1173C438.997 72.6007 438.994 73.0842 438.991 73.5823C438.991 74.004 438.991 74.4256 438.991 74.8601C438.936 75.191 438.882 75.522 438.825 75.8629C437.148 76.9769 435.787 76.8773 433.843 76.8751C433.306 76.8779 433.306 76.8779 432.759 76.8808C432.003 76.8833 431.247 76.8835 430.491 76.8816C429.334 76.8802 428.177 76.8905 427.019 76.9017C426.285 76.9027 425.551 76.903 424.816 76.9025C424.47 76.9066 424.123 76.9107 423.766 76.9148C421.367 76.8945 421.367 76.8945 420.405 76.1929C419.687 75.2249 419.668 74.6958 419.667 73.4992C419.663 73.1059 419.659 72.7126 419.656 72.3073C419.658 71.8768 419.661 71.4463 419.664 71.0027C419.661 70.5483 419.659 70.0939 419.657 69.6258C419.652 68.6371 419.651 67.6484 419.652 66.6597C419.654 65.0909 419.648 63.5224 419.64 61.9537C419.624 58.6168 419.618 55.28 419.613 51.9432C419.608 48.0906 419.598 44.2382 419.578 40.3857C419.572 38.8474 419.573 37.3093 419.576 35.7711C419.84 27.1296 419.84 27.1296 416.3 19.5552C414.785 18.4232 412.86 18.2192 411 18.2355C408.418 18.6403 406.534 19.5761 404.941 21.6602C402.324 26.1664 402.104 31.1828 402.097 36.2515C402.095 36.6697 402.093 37.088 402.091 37.5189C402.086 38.4197 402.082 39.3205 402.079 40.2213C402.074 41.6468 402.065 43.0723 402.056 44.4978C402.029 48.5482 402.005 52.5986 401.99 56.649C401.981 59.1323 401.965 61.6154 401.945 64.0986C401.939 65.0438 401.935 65.989 401.934 66.9342C401.932 68.2525 401.921 69.5705 401.909 70.8888C401.911 71.2793 401.912 71.6699 401.913 72.0723C401.892 73.629 401.868 74.7031 401.153 76.1046C399.878 77.1861 398.354 76.9929 396.758 76.9764C396.402 76.9781 396.045 76.9798 395.678 76.9815C394.924 76.9827 394.17 76.9795 393.416 76.9721C392.263 76.9627 391.111 76.972 389.958 76.9833C389.225 76.9821 388.492 76.9799 387.76 76.9764C387.415 76.98 387.071 76.9836 386.717 76.9872C385.253 76.9621 384.282 76.906 383.085 76.0313C382.034 74.6421 382.069 73.7919 382.065 72.0612C382.062 71.7681 382.059 71.475 382.056 71.1731C382.048 70.1916 382.052 69.2106 382.057 68.229C382.053 67.5252 382.05 66.8214 382.045 66.1175C382.035 64.2061 382.036 62.2949 382.04 60.3835C382.043 58.7884 382.039 57.1934 382.036 55.5983C382.029 51.836 382.03 48.0739 382.038 44.3116C382.045 40.4284 382.038 36.5454 382.024 32.6621C382.012 29.3293 382.009 25.9965 382.013 22.6636C382.015 20.6725 382.014 18.6815 382.005 16.6904C381.997 14.8185 381.999 12.9469 382.01 11.075C382.012 10.3877 382.011 9.70032 382.005 9.01299C381.998 8.0752 382.005 7.13844 382.015 6.2007C382.015 5.67583 382.015 5.15097 382.016 4.6102C382.292 3.27876 382.292 3.27876 383.316 2.23057C384.832 1.32015 386.122 1.26515 387.842 1.28545C388.317 1.28292 388.317 1.28292 388.801 1.28035C389.466 1.27915 390.132 1.28237 390.797 1.28974C391.814 1.29918 392.83 1.28982 393.847 1.27858C394.496 1.27974 395.144 1.28199 395.792 1.28545C396.095 1.28189 396.398 1.27832 396.71 1.27466C398.155 1.30283 398.963 1.43848 400.147 2.28855C400.921 3.39106 401.075 3.94854 401.111 5.27895C401.126 5.65038 401.14 6.02181 401.154 6.40449C401.161 6.78839 401.167 7.17229 401.173 7.56783C401.186 7.95854 401.2 8.34924 401.213 8.75179C401.244 9.71355 401.268 10.6748 401.284 11.6369C401.486 11.3131 401.689 10.9894 401.898 10.6557C402.169 10.2265 402.44 9.79721 402.719 9.35494C402.986 8.93134 403.252 8.50775 403.527 8.07131C406.111 4.19485 409.599 1.55406 414.178 0.393612C420.359 -0.575266 426.275 0.14351 431.503 3.6843Z" fill="white"/>
<path d="M359.53 5.99254C359.934 6.32502 360.338 6.6575 360.754 7.00005C360.754 7.29558 360.754 7.59111 360.754 7.8956C361.003 7.99604 361.252 8.09647 361.509 8.19995C366.333 11.0924 369.409 19.3559 370.927 24.5754C371.175 25.5796 371.412 26.587 371.634 27.5979C371.726 28.0117 371.819 28.4256 371.914 28.852C374.449 42.1167 372.652 55.7959 365.405 67.1423C360.254 74.2449 354.122 78.0545 345.713 79.876C337.808 80.4676 330.609 79.009 324.205 74.0584C323.133 73.092 322.135 72.0944 321.152 71.0324C320.878 70.7478 320.603 70.4632 320.319 70.1701C311.37 60.373 310.737 46.5441 311.063 33.8735C311.188 30.4382 311.859 27.2754 312.884 24.0156C313.047 23.4603 313.209 22.9051 313.377 22.333C316.06 13.8674 321.214 7.11261 328.85 2.88608C339.036 -2.08087 350.386 -0.373826 359.53 5.99254ZM335.298 17.9741C331.209 23.3417 331.445 30.9208 331.459 37.3775C331.461 38.6125 331.451 39.847 331.44 41.0819C331.414 48.4812 331.604 56.9289 336.532 62.8044C338.48 64.4651 340.61 64.5124 343.036 64.4521C345.557 64.161 347.038 62.9377 348.651 60.9853C351.697 56.5018 352.116 50.8146 352.124 45.5073C352.125 45.1307 352.126 44.7541 352.128 44.3662C352.13 43.5725 352.131 42.7789 352.131 41.9853C352.132 40.7935 352.14 39.6019 352.148 38.4101C352.353 26.8786 352.353 26.8786 347.503 16.9719C345.503 15.287 343.107 15.3107 340.627 15.3697C338.46 15.6198 336.837 16.378 335.298 17.9741Z" fill="white"/>
<path d="M64.6144 83.0294C66.5486 83.5224 68.0638 84.4204 69.7749 85.4381C70.4855 85.8484 71.1967 86.2577 71.9085 86.6659C72.2619 86.869 72.6153 87.0721 72.9794 87.2813C83.4246 93.2108 94.6638 97.7139 105.966 101.637C106.242 101.733 106.518 101.829 106.803 101.928C121.004 106.848 135.748 110.431 150.645 112.307C150.984 112.35 151.322 112.392 151.671 112.436C180.315 115.983 209.002 114.343 236.935 106.972C237.415 106.845 237.895 106.719 238.39 106.588C246.158 104.51 253.93 102.211 261.353 99.074C261.843 98.8676 262.333 98.6612 262.837 98.4485C263.777 98.0474 264.712 97.6379 265.644 97.2188C268.283 96.0832 270.471 95.404 273.291 96.3024C274.167 97.1082 274.167 97.1082 274.605 98.0807C274.795 98.4933 274.795 98.4933 274.988 98.9142C275.081 100.508 274.623 101.205 273.729 102.526C272.361 103.709 270.865 104.663 269.349 105.638C268.826 105.982 268.303 106.325 267.78 106.668C246.346 120.609 221.842 128.414 196.637 131.424C196.333 131.462 196.028 131.501 195.714 131.54C192.477 131.916 189.257 131.948 186.001 131.959C185.558 131.96 185.558 131.96 185.105 131.962C183.532 131.969 181.96 131.973 180.388 131.975C179.114 131.977 177.841 131.983 176.568 131.993C166.102 132.075 155.896 131.42 145.607 129.312C144.76 129.141 144.76 129.141 143.896 128.967C114.091 122.854 85.8204 108.924 63.4783 87.8555C63.2242 87.6205 62.9702 87.3856 62.7084 87.1435C62.1643 86.5218 62.1643 86.5218 62 85.4103C62.1643 84.2989 62.1643 84.2989 62.657 83.4653C63.4783 82.9652 63.4783 82.9652 64.6144 83.0294Z" fill="white"/>
<path d="M258.992 2.02028C259.445 2.01792 259.898 2.01557 260.365 2.01314C261.865 2.00769 263.365 2.01489 264.864 2.02272C265.905 2.02265 266.946 2.02201 267.987 2.0208C270.168 2.0202 272.35 2.02568 274.531 2.03559C277.331 2.04797 280.131 2.04677 282.931 2.04122C285.08 2.03819 287.229 2.04157 289.378 2.04699C290.411 2.04896 291.444 2.0491 292.476 2.0474C293.918 2.04614 295.359 2.0533 296.8 2.06282C297.443 2.05988 297.443 2.05988 298.1 2.05688C298.688 2.06335 298.688 2.06335 299.288 2.06996C299.629 2.07102 299.969 2.07207 300.32 2.07317C301.435 2.28226 301.818 2.64697 302.5 3.54595C303.254 7.84114 303.388 13.524 301.366 17.4337C300.746 18.1869 300.114 18.9297 299.475 19.6666C298.769 20.6514 298.088 21.6514 297.406 22.6532C296.628 23.7948 295.84 24.9278 295.047 26.0591C293.475 28.3084 291.91 30.5634 290.346 32.8192C288.472 35.5205 286.59 38.2161 284.701 40.9067C282.245 44.4053 279.835 47.9343 277.436 51.4723C278 51.515 278.565 51.5577 279.147 51.6017C285.716 52.1377 291.997 52.9628 298.098 55.5842C298.38 55.7045 298.661 55.8248 298.952 55.9487C301.009 56.8952 302.765 58.1053 303.797 60.1862C303.908 62.0362 303.914 63.8878 303.924 65.7407C303.932 66.6608 303.951 67.5802 303.97 68.5002C303.974 69.0862 303.978 69.6722 303.981 70.2582C303.987 70.7912 303.994 71.3241 304 71.8732C303.797 73.2571 303.797 73.2571 302.997 74.3179C302.068 74.9998 302.068 74.9998 300.851 74.9675C299.336 74.5233 297.927 73.9658 296.477 73.3387C284.906 68.488 270.945 67.9081 259.25 72.7064C258.63 72.9728 258.013 73.2466 257.401 73.5295C255.573 74.3714 253.964 75.012 251.939 74.9998C250.78 73.8678 250.26 73.1333 250 71.5164C250.004 71.0417 250.007 70.567 250.011 70.0778C250.012 69.5522 250.014 69.0265 250.016 68.4848C250.026 67.9389 250.037 67.393 250.048 66.8306C250.048 66.2914 250.049 65.7522 250.05 65.1967C250.091 60.8223 250.319 57.3535 252.911 53.7325C253.099 53.4594 253.287 53.1862 253.48 52.9048C253.893 52.3072 254.308 51.7117 254.726 51.1179C255.427 50.1202 256.121 49.1171 256.814 48.1127C258.092 46.2613 259.378 44.4149 260.666 42.57C261.919 40.7738 263.168 38.975 264.417 37.1761C264.662 36.8231 264.908 36.47 265.16 36.1062C266.542 34.117 267.919 32.125 269.292 30.1301C269.596 29.6891 269.9 29.2481 270.212 28.7938C270.794 27.9488 271.375 27.1034 271.956 26.2577C273.363 24.2132 274.787 22.184 276.241 20.1731C276.548 19.7495 276.854 19.3259 277.169 18.8895C277.4 18.5708 277.63 18.2522 277.868 17.9239C277.425 17.9215 277.425 17.9215 276.974 17.9191C273.911 17.9009 270.847 17.8707 267.784 17.8334C266.64 17.8211 265.496 17.8119 264.352 17.8058C262.71 17.7965 261.068 17.7762 259.425 17.7537C258.655 17.7529 258.655 17.7529 257.87 17.752C257.394 17.7435 256.919 17.7349 256.428 17.726C256.009 17.7221 255.59 17.7183 255.158 17.7143C254.099 17.4882 254.099 17.4882 253.316 16.68C252.207 14.6601 252.601 12.1133 252.614 9.86352C252.605 9.32491 252.597 8.7863 252.588 8.23137C252.588 7.7141 252.588 7.19683 252.588 6.66389C252.588 6.19127 252.587 5.71865 252.586 5.23171C253.205 1.66259 256.054 1.99137 258.992 2.02028Z" fill="white"/>
<path d="M294.365 82.9855C296.552 85.4443 296.013 88.7793 295.723 91.7786C294.184 103.019 289.025 113.633 279.97 121.385C278.668 122.092 277.741 122.055 276.257 121.926C276.107 121.788 275.958 121.65 275.804 121.507C275.988 119.234 276.457 117.463 277.445 115.357C282.855 104.114 282.855 104.114 283.132 92.2496C280.503 89.8871 276.091 89.9526 272.631 89.9508C271.835 89.9617 271.835 89.9617 271.022 89.9729C270.466 89.9764 269.91 89.9799 269.337 89.9835C265.867 90.0256 262.462 90.2179 259.023 90.6411C256.156 90.9928 253.339 91.026 250.453 90.9411C250.175 89.9581 250.175 89.9581 250 88.8476C254.001 83.8711 262.619 81.8069 268.944 80.7974C276.676 79.7891 287.398 79.0637 294.365 82.9855Z" fill="white"/>
</svg>
