<?xml version="1.0" encoding="UTF-8"?>
<svg version="1.1" xmlns="http://www.w3.org/2000/svg" width="891" height="352">
<path d="M0 0 C19.0669393 14.59233621 26.66135867 35.92988783 30.0859375 58.89453125 C31.18714553 67.4805541 31.35425233 75.97746243 31.3125 84.625 C31.31067719 85.41170074 31.30885437 86.19840149 31.30697632 87.00894165 C31.18639708 118.00409068 25.58865089 148.08105023 3.69921875 171.45703125 C-12.3478369 186.87376066 -33.81743327 193.32222914 -55.75073242 193.31152344 C-64.97420514 193.10303325 -74.07341124 191.23164719 -83 189 C-83 209.46 -83 229.92 -83 251 C-101.47971115 254.46494584 -101.47971115 254.46494584 -110.23046875 255.82421875 C-111.19479324 255.97534622 -112.15911774 256.12647369 -113.15266418 256.28218079 C-115.15439612 256.59505588 -117.15632422 256.90667854 -119.15844727 257.21704102 C-122.22160879 257.69279763 -125.28365518 258.17533704 -128.34570312 258.65820312 C-130.30722822 258.96394896 -132.26881456 259.26930222 -134.23046875 259.57421875 C-135.13878952 259.71792404 -136.04711029 259.86162933 -136.98295593 260.00968933 C-137.83186905 260.14015152 -138.68078217 260.27061371 -139.55541992 260.4050293 C-140.29547775 260.52033493 -141.03553558 260.63564056 -141.79801941 260.75444031 C-144.18527632 261.02066158 -146.59794477 261 -149 261 C-149 172.89 -149 84.78 -149 -6 C-129.86 -6 -110.72 -6 -91 -6 C-89.68 -0.06 -88.36 5.88 -87 12 C-85.55625 10.63875 -84.1125 9.2775 -82.625 7.875 C-60.40499128 -12.03562579 -25.40759769 -17.6474477 0 0 Z M-74 42 C-74.79659531 42.33737686 -75.59319061 42.67475372 -76.41392517 43.02235413 C-79.45202578 44.71594324 -81.02824027 46.10146454 -83 49 C-84.71413551 55.85368244 -84.04309291 63.2470668 -83.87890625 70.24609375 C-83.86210914 72.34356451 -83.84930318 74.44107071 -83.84031677 76.53858948 C-83.80603927 82.04522094 -83.71770858 87.54969778 -83.61798096 93.05548096 C-83.52572449 98.67926893 -83.4847686 104.30340694 -83.43945312 109.92773438 C-83.3430829 120.95276688 -83.18958531 131.97620391 -83 143 C-81.28719298 143.49922914 -79.57182595 143.98967895 -77.85546875 144.4765625 C-76.90051514 144.75064941 -75.94556152 145.02473633 -74.96166992 145.30712891 C-67.41760897 147.07203246 -59.84270804 146.81444576 -53 143 C-43.71408715 137.19136516 -39.6906855 126.71591638 -36.8125 116.5703125 C-32.06295078 95.6996972 -30.44325292 66.81433473 -41.34765625 47.62890625 C-44.39955944 43.19347361 -47.75789945 39.60677411 -53 38 C-60.84105231 36.84193689 -67.04414404 38.47094631 -74 42 Z " fill="#FEFEFE" transform="translate(673,91)"/>
<path d="M0 0 C14.54189534 11.78840036 22.41101915 29.66103631 26.85546875 47.41796875 C27.02062988 48.0610498 27.18579102 48.70413086 27.35595703 49.36669922 C31.66027658 67.17598825 30.12707327 86.23718012 29.85546875 104.41796875 C27.51519563 105.58810531 26.19599855 105.52797439 23.59078979 105.5002594 C22.69614014 105.49321991 21.80149048 105.48618042 20.87973022 105.47892761 C19.89574249 105.4659816 18.91175476 105.45303558 17.89794922 105.43969727 C16.86377869 105.43008972 15.82960815 105.42048218 14.76409912 105.4105835 C11.33355075 105.37750798 7.90312635 105.33720823 4.47265625 105.296875 C2.098973 105.27258224 -0.27471488 105.24873827 -2.64840698 105.22532654 C-8.9054694 105.1624016 -15.16245013 105.09335881 -21.41943359 105.02307129 C-27.80041778 104.9524637 -34.18146004 104.88760145 -40.5625 104.82226562 C-53.08990725 104.69314492 -65.61723877 104.55776046 -78.14453125 104.41796875 C-77.68900487 106.65735752 -77.22676956 108.89538226 -76.76171875 111.1328125 C-76.50503418 112.37925537 -76.24834961 113.62569824 -75.98388672 114.90991211 C-73.97802332 123.29334757 -70.18607764 128.06644247 -63.58203125 133.54296875 C-46.58719833 142.81287762 -22.68901742 139.22758679 -4.75 134.24609375 C2.6304438 132.05782428 9.73143728 129.32122153 16.85546875 126.41796875 C17.8567343 132.04057695 18.85352709 137.66395282 19.84619141 143.28808594 C20.18448168 145.20106391 20.5239911 147.11382671 20.86474609 149.02636719 C21.35445032 151.77613496 21.83975864 154.52664785 22.32421875 157.27734375 C22.47733521 158.13164978 22.63045166 158.98595581 22.78820801 159.8661499 C22.92835327 160.66667786 23.06849854 161.46720581 23.21289062 162.29199219 C23.399422 163.34456207 23.399422 163.34456207 23.58972168 164.418396 C23.85546875 166.41796875 23.85546875 166.41796875 23.85546875 170.41796875 C-10.24643874 187.4199255 -51.72412683 192.55349107 -88.41088867 180.59350586 C-101.37159061 176.01904378 -111.66621141 169.33030323 -121.14453125 159.41796875 C-122.25248047 158.26554687 -122.25248047 158.26554687 -123.3828125 157.08984375 C-142.53351168 135.22457945 -145.58969587 102.15401272 -144.14453125 74.41796875 C-142.23689995 50.23790528 -134.87466489 28.14431833 -119.14453125 9.41796875 C-118.60570312 8.76570313 -118.066875 8.1134375 -117.51171875 7.44140625 C-88.70174256 -24.26404494 -32.70177618 -24.12426112 0 0 Z M-70.33203125 32.60546875 C-76.92583674 42.83723589 -79.14453125 54.35237935 -79.14453125 66.41796875 C-63.63453125 66.41796875 -48.12453125 66.41796875 -32.14453125 66.41796875 C-32.14453125 54.03962297 -32.49305239 40.23906167 -41.73046875 30.796875 C-47.11479438 26.16110196 -50.93091523 26.07543682 -57.87109375 26.13671875 C-63.45907814 26.61683197 -66.36299632 28.63643382 -70.33203125 32.60546875 Z " fill="#FEFEFE" transform="translate(861.14453125,97.58203125)"/>
<path d="M0 0 C-0.63562896 10.00940985 -2.37422955 19.81573991 -4.0625 29.6875 C-4.34738545 31.37168052 -4.63189358 33.0559249 -4.91601562 34.74023438 C-5.60633167 38.82757186 -6.30173945 42.91401254 -7 47 C-11.46050042 45.52103337 -15.91726741 44.03343988 -20.359375 42.5 C-31.98234861 38.51158386 -43.64734857 34.7318447 -56 34 C-56.81082031 33.94714844 -57.62164062 33.89429688 -58.45703125 33.83984375 C-64.30478133 33.63324121 -69.74553487 34.24820037 -75 37 C-77.11212504 40.16818756 -77.33156464 42.13219252 -77.55859375 45.8671875 C-76.38877561 50.33376584 -72.62004764 52.6210392 -68.85546875 54.921875 C-67.63981476 55.54510174 -66.4165682 56.15366323 -65.1875 56.75 C-64.5080835 57.08652588 -63.82866699 57.42305176 -63.12866211 57.76977539 C-56.9250054 60.7454242 -50.52578 63.09402006 -44.0625 65.4375 C-23.62948182 72.87774025 -4.09130733 82.15744837 5.67578125 102.69140625 C11.8714228 118.17137201 11.85746875 136.28382447 5.55859375 151.78125 C-1.57574671 167.01000458 -13.40337045 177.76134818 -29 184 C-65.69151992 196.00813379 -106.55599656 190.21785861 -141 174 C-141.33 173.67 -141.66 173.34 -142 173 C-141.92795414 163.09041966 -139.60333576 153.05307857 -137.9375 143.3125 C-137.65261455 141.62831948 -137.36810642 139.9440751 -137.08398438 138.25976562 C-136.39366833 134.17242814 -135.69826055 130.08598746 -135 126 C-131.56832818 127.11469052 -128.21742324 128.27415594 -124.91796875 129.734375 C-108.2104619 136.91794243 -90.76769243 142.45441029 -72.4375 142.625 C-71.18078491 142.64143555 -71.18078491 142.64143555 -69.89868164 142.65820312 C-64.2827279 142.52580791 -59.62922126 141.28787481 -55 138 C-52.88662454 134.82993681 -52.70308567 132.96572363 -52.5390625 129.23046875 C-53.51963254 124.48550694 -56.08546468 121.60617277 -60.046875 118.98046875 C-61.27137172 118.36282613 -62.50670139 117.76636372 -63.75 117.1875 C-64.43320313 116.85621094 -65.11640625 116.52492187 -65.8203125 116.18359375 C-73.07035135 112.77480355 -80.6000685 110.1076474 -88.1184082 107.3605957 C-102.77200825 101.9529551 -116.23246862 95.66482566 -127 84 C-127.825 83.113125 -128.65 82.22625 -129.5 81.3125 C-138.56312157 70.21946791 -140.79716158 55.8077858 -139.85693359 41.88085938 C-138.14455533 25.91891213 -130.98765988 12.48104678 -118.6953125 2.04296875 C-86.35159115 -22.29435601 -34.59776114 -16.32744193 0 0 Z " fill="#FEFEFE" transform="translate(142,94)"/>
<path d="M0 0 C-0.33 18.48 -0.66 36.96 -1 56 C12.86 56 26.72 56 41 56 C40.34662172 61.88040449 39.62813061 67.64848572 38.625 73.46484375 C38.43091553 74.6039193 38.43091553 74.6039193 38.23291016 75.76600647 C37.96192248 77.35179717 37.68961323 78.93736258 37.41601562 80.52270508 C36.99695586 82.95516995 36.58419486 85.38865026 36.171875 87.82226562 C35.90662577 89.36985612 35.64101404 90.91738453 35.375 92.46484375 C35.25205566 93.19186996 35.12911133 93.91889618 35.00244141 94.66795349 C34.11479985 99.77040031 34.11479985 99.77040031 33 102 C21.78 102 10.56 102 -1 102 C-0.89166777 112.53609348 -0.77949396 123.07212719 -0.66066074 133.60810757 C-0.60562614 138.50100513 -0.55223862 143.39390884 -0.50268555 148.28686523 C-0.45475322 153.01368638 -0.40240252 157.74044028 -0.34705925 162.46718025 C-0.3267657 164.26555761 -0.30803233 166.06395331 -0.29092598 167.86236382 C-0.2665914 170.3919521 -0.23658044 172.92141677 -0.20532227 175.45092773 C-0.1995668 176.18533081 -0.19381134 176.91973389 -0.18788147 177.6763916 C-0.33739554 189.71706106 -0.33739554 189.71706106 5 200 C13.9982796 205.86404738 27.15409386 202.23073827 37 201 C37 217.17 37 233.34 37 250 C15.05974265 258.77610294 -15.54320199 257.66316113 -37.20703125 248.4375 C-49.04244896 242.34598431 -57.53785685 232.45098749 -62 220 C-65.8703579 207.4724705 -65.38600501 194.85254584 -65.29296875 181.8828125 C-65.28736302 179.57111895 -65.28309755 177.2594218 -65.28010559 174.94772339 C-65.26873377 168.90779519 -65.23933363 162.86808862 -65.20599365 156.82824707 C-65.17512635 150.64724728 -65.16156487 144.46621115 -65.14648438 138.28515625 C-65.11445567 126.18999188 -65.06175144 114.09504917 -65 102 C-73.91 102 -82.82 102 -92 102 C-90.42306362 87.52085685 -87.74610983 73.29860158 -85 59 C-80.11872346 57.6947891 -75.55858276 56.71990337 -70.5 56.375 C-69.4584375 56.30023438 -68.416875 56.22546875 -67.34375 56.1484375 C-66.5703125 56.09945312 -65.796875 56.05046875 -65 56 C-64.91363281 55.18144531 -64.82726562 54.36289063 -64.73828125 53.51953125 C-63.62785005 43.85164857 -62.09108717 34.27688656 -60.4375 24.6875 C-60.21553955 23.39368408 -59.9935791 22.09986816 -59.76489258 20.7668457 C-58.13013975 11.39041924 -58.13013975 11.39041924 -57 8 C-49.84770588 6.85417764 -42.69428445 5.71560611 -35.54003906 4.58203125 C-33.10715706 4.19567429 -30.67453643 3.80766766 -28.2421875 3.41796875 C-24.7428648 2.85761969 -21.24264031 2.30323979 -17.7421875 1.75 C-16.65759247 1.57500977 -15.57299744 1.40001953 -14.45553589 1.21972656 C-12.92462814 0.97947754 -12.92462814 0.97947754 -11.36279297 0.734375 C-10.47010712 0.59225586 -9.57742126 0.45013672 -8.65768433 0.30371094 C-5.78868694 -0.02414812 -2.88766992 0 0 0 Z " fill="#FEFEFE" transform="translate(247,29)"/>
<path d="M0 0 C0 18.81 0 37.62 0 57 C-7.92 57.33 -15.84 57.66 -24 58 C-33.05868099 60.22201208 -33.05868099 60.22201208 -40.625 64.125 C-41.44226563 64.64320313 -42.25953125 65.16140625 -43.1015625 65.6953125 C-44.92277764 66.86202397 -44.92277764 66.86202397 -46 68 C-46.10828721 69.65717994 -46.14685501 71.31895425 -46.15821838 72.97962952 C-46.1680072 74.0580159 -46.17779602 75.13640228 -46.18788147 76.24746704 C-46.19363693 77.4407663 -46.1993924 78.63406555 -46.20532227 79.86352539 C-46.21522186 81.11212845 -46.22512146 82.36073151 -46.23532104 83.64717102 C-46.26157245 87.08088157 -46.28340809 90.51456808 -46.30332303 93.94831777 C-46.32514424 97.5331522 -46.35255178 101.1179437 -46.37937927 104.70274353 C-46.42935859 111.4954693 -46.4742779 118.28821883 -46.51740164 125.08099121 C-46.57594547 134.25696178 -46.64226037 143.43287592 -46.70815182 152.60879612 C-46.81180842 167.07249277 -46.90504305 181.53623756 -47 196 C-68.78 196 -90.56 196 -113 196 C-113 131.65 -113 67.3 -113 1 C-93.86 1 -74.72 1 -55 1 C-54.01 6.94 -53.02 12.88 -52 19 C-51.67 19.33 -51.34 19.66 -51 20 C-50.6596875 19.43152344 -50.319375 18.86304687 -49.96875 18.27734375 C-43.84225894 8.51732208 -36.12563495 1.76541972 -24.875 -1.25 C-16.38248922 -2.9041934 -8.17742704 -2.72580901 0 0 Z " fill="#FEFEFE" transform="translate(418,84)"/>
<path d="M0 0 C21.78 0 43.56 0 66 0 C66 64.35 66 128.7 66 195 C44.22 195 22.44 195 0 195 C0 130.65 0 66.3 0 0 Z " fill="#FEFEFE" transform="translate(433,85)"/>
<path d="M0 0 C7.16467549 5.81118443 11.03747776 13.56460423 12.4375 22.5625 C13.27981532 32.0504669 10.39462222 39.78314807 4.6875 47.3125 C-1.75023419 54.40078417 -9.89706515 58.77901548 -19.484375 59.46875 C-30.9660707 59.89663928 -39.69365219 56.04185838 -48.2890625 48.6015625 C-54.38464996 42.4540977 -56.98379411 34.72608472 -57.50390625 26.16015625 C-57.09513464 16.53544279 -53.21361951 8.0602613 -46.3125 1.3125 C-31.93455695 -8.87697923 -14.88500123 -10.10154148 0 0 Z " fill="#FEFEFE" transform="translate(488.3125,6.6875)"/>
</svg>
