<svg width="573" height="100" viewBox="0 0 573 100" fill="none" xmlns="http://www.w3.org/2000/svg">
<path d="M218.351 0.907661C210.19 3.12443 206.562 8.2633 206.562 17.6342V22.6723H201.524H196.385L196.688 28.4157L196.99 34.2599L201.826 34.5622L206.562 34.8645V56.5284V78.0915H214.623H222.684V56.4276V34.7638H228.226H233.768V28.718V22.6723H228.226H222.684V19.2464C222.684 14.8128 224.8 13.2006 230.141 13.4022C234.574 13.6037 234.574 13.6037 235.682 9.17016C237.597 1.31071 237.799 1.41147 227.218 0.101564C225.002 -0.200723 221.072 0.202326 218.351 0.907661Z" fill="white"/>
<path d="M454.437 14.2083C454.437 21.0601 454.236 26.7028 453.933 26.7028C453.732 26.7028 451.918 25.5944 449.903 24.2845C440.028 17.5334 425.216 20.8586 418.364 31.2371C410.001 43.8323 412.016 65.597 422.294 74.464C431.161 82.0212 444.663 81.9204 452.724 74.3633L455.445 71.6427V74.8671V78.0915H463.002H470.559L470.358 40.0034L470.055 2.01604L462.297 1.81452L454.437 1.71375V14.2083ZM448.19 36.779C453.933 40.3057 456.251 50.5834 453.026 58.3421C448.694 68.6198 434.99 68.6198 430.657 58.3421C424.712 44.1346 436.501 29.6249 448.19 36.779Z" fill="white"/>
<path d="M10.0762 14.6114V22.6723H5.03811H0V28.7181V34.7638H5.03811H10.0762V51.9941C10.0762 65.8993 10.3785 69.9298 11.6884 72.6504C14.6105 78.7969 23.1753 81.3159 33.6546 79.0992L39.4988 77.89L38.8942 73.3557C38.5919 70.8367 38.2896 67.8138 38.2896 66.8062C38.2896 65.0932 37.7858 64.8917 34.3599 65.4963C32.0424 65.8993 29.5233 65.6978 28.3142 64.9925C26.2989 63.9848 26.1982 63.078 26.1982 49.3743V34.7638H32.2439H38.2896V28.7181V22.6723H32.2439H26.1982V14.6114V6.55039H18.1372H10.0762V14.6114Z" fill="white"/>
<path d="M158.7 22.1685C152.755 24.3853 148.02 28.718 144.594 34.8645C140.865 41.8171 139.858 53.9086 142.478 61.6673C147.113 75.5725 162.832 83.0289 179.256 79.0991C184.596 77.7892 195.479 71.4412 195.479 69.5267C195.378 69.0229 193.564 66.5039 191.448 64.0856L187.418 59.652L183.488 62.4734C173.412 69.426 160.514 67.1084 157.29 57.8383L156.282 54.9162H175.83C198.3 54.9162 197.192 55.42 195.982 45.0415C194.672 34.3607 190.44 27.3074 182.883 23.3776C177.644 20.6571 164.545 20.0525 158.7 22.1685ZM177.644 36.8798C179.155 38.492 180.364 40.7087 180.364 41.8171C180.364 43.7316 179.659 43.8324 168.777 43.8324C161.32 43.8324 157.189 43.4293 157.189 42.8247C157.189 40.5072 160.111 36.1744 162.429 35.0661C168.676 31.9424 173.613 32.547 177.644 36.8798Z" fill="white"/>
<path d="M251.905 22.37C245.255 24.7883 237.395 33.1516 235.38 39.8019C230.443 56.4276 237.395 72.7511 251.804 78.1923C264.198 82.8273 279.816 78.7968 286.567 69.2244C291.001 62.9772 292.009 59.4505 292.109 50.3819C292.21 43.9331 291.706 41.3133 289.792 37.2828C287.071 31.2371 282.436 26.4005 276.693 23.4784C271.151 20.5563 258.354 20.0525 251.905 22.37ZM270.042 36.6782C277.7 42.1194 278.204 57.0322 270.949 63.6825C265.71 68.4183 257.145 67.1084 252.51 60.6596C250.797 58.3421 250.394 56.3269 250.394 50.4827C250.394 44.0339 250.696 42.724 253.215 39.4996C257.548 33.7561 264.4 32.6477 270.042 36.6782Z" fill="white"/>
<path d="M378.06 22.7731C375.642 23.9822 373.425 25.5944 373.122 26.2997C372.216 28.6173 370.805 27.9119 370.805 25.1914C370.805 22.7731 370.603 22.6723 363.752 22.6723H356.698V50.3819V78.0915H364.759H372.82V58.9467C372.82 39.9026 372.82 39.7011 375.339 37.2828C378.866 33.6554 385.617 33.7561 389.043 37.3836C391.36 39.9026 391.461 40.4064 391.763 59.0474L392.066 78.0915H400.127H408.087V58.1406C408.087 37.4843 407.382 32.3455 403.754 27.3074C399.22 20.8586 386.524 18.6418 378.06 22.7731Z" fill="white"/>
<path d="M65.9993 23.1761C64.3871 24.083 62.1704 25.7959 61.2635 27.0051L59.4498 29.2218V25.8967V22.6723H51.8926H44.3354V50.3819V78.0915H52.3964H60.4574V62.4734C60.4574 45.243 61.3643 41.2125 65.8986 38.2904C67.813 36.9805 69.929 36.6782 74.0603 36.9805L79.5014 37.4843L80.7106 30.5317C81.4159 26.8035 81.7182 23.3776 81.3152 23.0753C81.0129 22.7731 78.0908 22.2692 74.8664 22.0677C70.6344 21.6647 68.2161 21.967 65.9993 23.1761Z" fill="white"/>
<path d="M500.284 22.7731C499.176 23.3776 497.06 25.2921 495.548 27.0051L492.727 30.1287V26.4005V22.6723H485.673H478.62V50.3819V78.0915H486.681H494.742V61.6673C494.742 47.2583 494.944 44.9407 496.757 42.1194C499.377 37.7866 501.997 36.5775 508.143 36.8798L513.383 37.182L514.794 30.431C515.6 26.7028 515.902 23.3776 515.6 23.0753C514.391 21.8662 502.299 21.5639 500.284 22.7731Z" fill="white"/>
<path d="M84.8413 45.5453C85.1436 66.4031 85.3452 68.8214 87.1589 72.0458C89.9802 76.9831 96.6305 80.1068 103.885 80.1068C110.838 80.1068 114.365 78.8976 118.194 75.2702L120.914 72.6503V75.3709C120.914 78.0915 120.914 78.0915 128.471 78.0915H136.029V50.3819V22.6723H127.766H119.403L119.705 37.4844C120.108 55.7223 119.504 60.4581 116.38 63.5818C113.156 66.8061 106.001 67.0077 103.18 63.884C101.467 61.9696 101.266 59.7528 100.963 42.2202L100.661 22.6723H92.6H84.5391L84.8413 45.5453Z" fill="white"/>
<path d="M297.45 45.5453C297.752 66.4031 297.954 68.8214 299.767 72.0458C302.589 76.9831 309.239 80.1068 316.494 80.1068C323.447 80.1068 326.973 78.8976 330.802 75.2702L333.523 72.6503V75.3709C333.523 78.0915 333.523 78.0915 341.08 78.0915H348.637V50.3819V22.6723H340.576H332.515V39.8019C332.515 58.1406 331.608 62.7757 327.679 64.8917C324.454 66.6046 318.912 66.2016 316.292 64.0856C313.874 62.1711 313.874 61.768 313.572 42.4217L313.27 22.6723H305.209H297.047L297.45 45.5453Z" fill="white"/>
<path d="M516.91 22.8739C516.91 23.0754 521.646 36.2752 527.389 52.3972L537.869 81.6182L535.753 83.835C534.241 85.5479 532.428 86.1525 528.095 86.354L522.452 86.6563L521.243 92.1982C520.638 95.2211 520.336 97.9417 520.538 98.244C520.84 98.5463 524.669 98.9493 529.002 99.0501C538.876 99.5539 544.821 97.2364 548.449 91.4929C549.859 89.3769 555.804 73.8595 561.548 56.9315C567.392 40.0034 572.531 25.3929 572.833 24.3853C573.438 22.8739 572.732 22.6724 565.074 22.6724H556.61L555.401 26.9044C554.696 29.3227 552.278 37.4844 549.859 45.0416L545.527 58.7452L539.682 40.7088L533.939 22.6724H525.475C520.739 22.6724 516.91 22.7731 516.91 22.8739Z" fill="white"/>
</svg>
