<svg width="501" height="109" viewBox="0 0 501 109" fill="none" xmlns="http://www.w3.org/2000/svg">
<path d="M474.446 88.1155C474.446 80.7722 480.398 74.8146 487.725 74.8146C495.056 74.8146 501 80.7722 501 88.1155C501 95.4587 495.056 101.413 487.725 101.413C480.398 101.413 474.446 95.4587 474.446 88.1155Z" fill="white"/>
<path d="M50.9632 52.8908C50.9632 44.4661 49.3383 38.2156 46.0879 34.1435C42.8331 30.0758 37.9041 28.0437 31.2756 28.0437H24.2257V79.5622H29.6202C36.9817 79.5622 42.3761 77.3754 45.8114 72.9882C49.2421 68.609 50.9632 61.9082 50.9632 52.8908ZM76.1068 52.0127C76.1068 67.3615 71.9883 79.1888 63.7502 87.4901C55.5126 95.7953 43.9325 99.9479 29.0048 99.9479H0V7.97693H31.0301C45.4228 7.97693 56.5346 11.7528 64.365 19.3C72.1919 26.8512 76.1068 37.7505 76.1068 52.0139M156.451 99.9474H179.531V7.59056H156.451V99.9474ZM211.955 65.4977C211.955 71.3861 212.723 75.8775 214.256 78.9639C215.793 82.0549 218.367 83.5981 221.986 83.5981C225.567 83.5981 228.099 82.0549 229.575 78.9639C231.05 75.8775 231.784 71.3861 231.784 65.4977C231.784 59.6398 231.039 55.2215 229.544 52.2393C228.046 49.2481 225.49 47.7514 221.867 47.7514C218.325 47.7514 215.793 49.2413 214.256 52.2042C212.723 55.1717 211.955 59.6013 211.955 65.4977ZM255.275 65.4977C255.275 76.7165 252.34 85.4687 246.453 91.7418C240.571 98.0189 232.337 101.16 221.752 101.16C211.601 101.16 203.521 97.9498 197.523 91.53C191.518 85.1107 188.517 76.4355 188.517 65.4982C188.517 54.3134 191.456 45.6229 197.342 39.4269C203.228 33.2302 211.482 30.1325 222.109 30.1325C228.676 30.1325 234.485 31.5681 239.518 34.4352C244.555 37.3018 248.444 41.4091 251.176 46.7588C253.912 52.1005 255.275 58.351 255.275 65.4977ZM264.441 99.9474H287.525V31.3449H264.441V99.9474ZM264.44 23.0464H287.525V7.58716H264.44V23.0464ZM334.292 82.4497C337.409 82.4497 341.12 81.6566 345.45 80.0828V97.3442C342.338 98.714 339.379 99.6952 336.567 100.277C333.755 100.866 330.454 101.158 326.677 101.158C318.927 101.158 313.341 99.2069 309.909 95.3115C306.493 91.4172 304.78 85.4364 304.78 77.3658V49.0849H296.696V31.3511H304.78V13.8314L328.041 9.77904V31.3505H342.769V49.0855H328.041V75.7874C328.041 80.229 330.128 82.4497 334.292 82.4497ZM387.717 82.4497C390.833 82.4497 394.545 81.6566 398.875 80.0828V97.3442C395.767 98.714 392.804 99.6952 389.992 100.277C387.175 100.866 383.887 101.158 380.102 101.158C372.353 101.158 366.766 99.2069 363.342 95.3115C359.919 91.4172 358.205 85.4364 358.205 77.3658V49.0849H350.118V31.3511H358.205V13.5662L381.462 9.77904V31.3505H396.197V49.0855H381.462V75.7874C381.462 80.229 383.548 82.4497 387.717 82.4497ZM428.002 57.1403C428.317 53.3843 429.389 50.6321 431.217 48.8736C433.054 47.1185 435.321 46.241 438.034 46.241C440.992 46.241 443.344 47.2262 445.088 49.2118C446.844 51.1862 447.758 53.8307 447.831 57.1403H428.002ZM460.553 38.2202C455.066 32.8325 447.282 30.1342 437.212 30.1342C426.626 30.1342 418.48 33.2325 412.771 39.4286C407.065 45.6252 404.211 54.5151 404.211 66.1005C404.211 77.3187 407.296 85.9707 413.451 92.0438C419.61 98.1169 428.259 101.157 439.397 101.157C444.746 101.157 449.349 100.792 453.206 100.065C457.041 99.3451 460.753 98.0438 464.353 96.1658L460.806 80.7054C458.19 81.7761 455.7 82.5993 453.349 83.1415C449.953 83.9312 446.225 84.3272 442.167 84.3272C437.719 84.3272 434.207 83.2383 431.632 81.0601C429.058 78.8778 427.686 75.8679 427.529 72.0348H468.787V61.5009C468.787 51.3675 466.044 43.6044 460.553 38.2202ZM106.74 57.1403C107.056 53.3843 108.128 50.6321 109.956 48.8736C111.789 47.1185 114.06 46.241 116.777 46.241C119.727 46.241 122.079 47.2262 123.827 49.2118C125.583 51.1862 126.493 53.8307 126.574 57.1403H106.74ZM139.295 38.2202C133.805 32.8325 126.024 30.1342 115.95 30.1342C105.361 30.1342 97.2197 33.2325 91.5136 39.4286C85.8081 45.6252 82.9497 54.5151 82.9497 66.1005C82.9497 77.3187 86.0309 85.9707 92.194 92.0438C98.3491 98.1169 106.998 101.157 118.137 101.157C123.485 101.157 128.088 100.792 131.945 100.065C135.78 99.3451 139.492 98.0438 143.096 96.1658L139.545 80.7054C136.928 81.7761 134.439 82.5993 132.091 83.1415C128.688 83.9312 124.964 84.3272 120.906 84.3272C116.461 84.3272 112.946 83.2383 110.371 81.0601C107.793 78.8778 106.425 75.8679 106.268 72.0348H147.526V61.5009C147.526 51.3675 144.783 43.6044 139.295 38.2202Z" fill="white"/>
</svg>
