<svg width="532" height="119" viewBox="0 0 532 119" fill="none" xmlns="http://www.w3.org/2000/svg">
<path fill-rule="evenodd" clip-rule="evenodd" d="M411.114 16.3625C411.114 13.09 413.78 10.115 416.742 10.115C419.704 10.115 422.37 12.495 422.37 16.065C422.37 19.3375 419.704 22.3125 416.742 22.3125C413.78 22.3125 411.114 19.635 411.114 16.3625ZM326.107 14.28C326.107 10.71 328.773 7.735 332.327 7.735C335.882 7.735 337.955 10.4125 337.955 13.9825C337.955 17.5525 335.585 20.5275 332.031 20.5275C328.773 20.5275 325.811 17.5525 326.107 14.28ZM218.886 35.9975C222.44 35.9975 224.513 39.27 224.217 44.03C223.921 49.6825 219.774 55.93 212.666 60.9875C209.111 50.575 211.777 35.9975 218.886 35.9975ZM171.199 111.86C167.645 111.86 165.571 108.29 165.571 104.422C165.571 93.7125 173.272 88.06 183.047 83.3C182.454 106.505 177.123 111.86 171.199 111.86ZM421.481 40.1625C421.481 33.915 421.185 29.75 417.038 29.75C415.261 29.75 414.372 30.0475 412.595 30.6425C414.076 51.765 409.337 70.5075 403.413 70.5075C395.712 70.5075 399.563 25.2875 383.568 25.2875C368.759 25.2875 366.685 61.5825 364.908 61.5825C363.724 61.5825 363.724 52.0625 363.724 44.9225C364.316 41.3525 364.612 38.3775 364.612 35.9975C364.612 32.725 363.131 26.775 355.726 29.75C356.023 55.6325 350.987 71.1025 345.063 71.1025C336.474 71.1025 336.474 47.6 336.474 41.055C336.474 34.8075 337.066 26.18 327.588 29.4525C326.107 52.0625 320.183 69.02 316.629 69.02C311.001 69.02 312.186 30.0475 300.338 30.0475C289.676 30.0475 286.417 66.9375 284.048 66.9375C280.197 66.9375 285.233 25.2875 269.831 25.2875C261.834 25.2875 258.575 39.27 255.317 54.74C254.725 57.715 254.133 57.715 253.836 54.4425C253.836 51.4675 253.836 48.79 253.836 45.815C257.687 30.345 252.948 24.395 245.839 28.56C248.209 57.4175 234.88 71.4 224.81 71.4C221.255 71.4 218.293 69.9125 216.22 67.235C228.364 59.7975 233.695 51.17 233.695 42.84C233.695 33.915 228.66 28.56 219.774 28.56C207.927 28.56 201.114 41.055 201.114 51.4675C201.114 57.12 202.299 61.88 203.78 66.045C199.633 68.1275 195.783 69.615 192.228 71.4C191.932 60.3925 190.748 49.0875 189.859 38.675C183.343 36.89 181.566 39.865 181.269 45.815C180.085 58.905 175.346 66.9375 171.199 66.9375C167.941 66.9375 166.164 63.07 165.867 58.905C164.683 38.08 181.566 32.13 190.451 35.105C192.228 30.6425 190.155 27.0725 182.454 27.0725C172.68 27.0725 165.571 33.0225 160.24 40.46C156.685 45.5175 152.539 49.0875 147.207 53.55C147.207 52.36 147.503 51.17 147.503 49.98C147.503 35.105 139.506 28.8575 132.102 28.8575C125.882 28.8575 121.735 32.725 119.661 38.3775C119.069 32.4275 117.884 30.0475 114.626 30.0475C113.145 30.0475 111.072 30.345 108.999 31.535C109.887 34.8075 110.48 41.9475 110.48 46.7075C110.48 64.5575 105.444 72.2925 100.705 72.2925C95.0776 72.2925 94.189 51.17 93.8928 43.1375C93.0042 42.84 92.1156 42.5425 91.2271 42.5425C86.1918 42.5425 85.5994 49.385 84.4147 55.6325C82.9337 62.475 79.0832 71.1025 73.1594 71.1025C69.6051 71.1025 67.5317 67.5325 67.2355 61.5825C66.6431 49.0875 77.0099 34.2125 93.3004 38.675C95.3738 33.6175 92.1156 29.75 85.3032 29.75C73.4556 29.75 63.6812 38.675 59.2384 49.385C54.7955 59.2025 47.3907 73.185 31.9887 73.185C21.0296 73.185 12.7363 63.665 12.7363 43.435C12.7363 26.18 23.6953 9.51999 35.2468 9.51999C43.244 9.51999 45.3173 17.5525 44.4288 24.99C48.5755 28.2625 55.3879 25.2875 55.3879 16.66C55.3879 10.71 50.6488 0.892498 35.543 0.892498C16.5867 0.892498 0 19.635 0 44.625C0 68.7225 12.1439 82.705 29.323 82.705C40.2821 82.705 50.3526 76.4575 57.4612 65.1525C59.2384 75.2675 66.0508 79.4325 71.086 79.4325C79.3794 79.4325 84.7109 74.0775 87.6728 66.9375C89.4499 74.0775 93.3004 79.73 99.8166 79.73C104.26 79.73 107.814 77.35 110.48 73.78C109.295 99.0675 108.11 115.132 122.92 112.157C120.55 105.017 119.958 91.9275 119.958 80.0275C119.958 47.8975 125.289 37.1875 131.805 37.1875C136.544 37.1875 138.025 43.435 138.025 49.98C138.025 53.55 137.729 57.4175 136.841 61.285C128.843 66.3425 122.327 70.5075 122.327 75.565C122.327 79.73 125.289 80.0275 127.955 80.0275C134.175 80.0275 141.58 73.78 145.726 62.1775C149.281 60.095 153.131 57.4175 156.389 53.8475C156.389 55.0375 156.093 56.2275 156.093 57.4175C156.093 69.02 161.128 75.8625 169.126 75.8625C175.346 75.8625 180.085 71.4 183.343 64.5575C183.639 68.425 183.639 71.995 183.639 75.2675C170.903 81.2175 156.685 87.1675 156.685 103.828C156.685 112.455 162.905 119 170.903 119C188.674 119 192.821 100.258 192.821 78.2425C198.448 75.8625 202.891 73.78 207.927 71.4C212.073 76.755 217.997 79.4325 223.329 79.4325C233.399 79.4325 240.804 74.0775 247.024 63.3675C248.209 71.6975 250.282 79.4325 254.429 79.4325C262.426 79.4325 263.907 37.7825 269.831 37.7825C274.274 37.7825 270.719 83.0025 282.567 83.0025C292.934 83.0025 294.711 43.1375 299.746 43.1375C303.3 43.1375 303.597 79.4325 314.556 79.4325C319.887 79.4325 326.107 72.8875 329.069 58.905C330.55 68.1275 334.993 79.4325 344.175 79.4325C349.506 79.4325 353.949 74.0775 357.504 66.9375C358.392 74.375 360.465 79.4325 364.612 79.4325C374.979 79.4325 374.683 37.7825 382.976 37.7825C389.492 37.7825 387.419 79.4325 402.821 79.4325C410.226 79.4325 413.484 73.185 415.557 65.45C418.223 77.0525 422.962 79.4325 426.516 79.4325C428.886 79.4325 430.663 78.54 433.032 75.8625C420.296 71.1025 421.481 52.36 421.481 40.1625ZM530.48 44.3275C527.814 39.27 522.482 36.89 516.855 37.1875C511.523 37.485 507.673 40.7575 504.711 45.22C501.453 49.98 499.083 55.335 496.121 60.69C493.456 65.7475 490.494 70.5075 486.643 74.6725C482.496 79.135 477.165 82.705 471.241 84.49C473.907 86.5725 477.757 86.87 481.015 87.1675C484.866 87.1675 488.42 86.87 492.271 86.275C499.083 85.085 506.192 82.705 511.227 77.6475C503.526 77.6475 497.306 72.59 496.714 64.5575C501.749 70.5075 509.154 72.8875 516.855 70.805C523.371 69.02 528.702 63.665 531.072 57.12C532.257 52.955 532.553 48.4925 530.48 44.3275ZM530.183 38.675C527.518 30.345 522.482 22.9075 515.67 16.66C508.265 9.8175 499.676 4.76 490.494 0.892498C489.901 0.594998 489.013 0.2975 488.42 0C477.165 13.3875 438.364 23.5025 438.364 52.0625C438.364 63.07 445.472 73.4825 455.543 77.6475C461.763 79.73 468.872 79.4325 474.795 76.755C480.719 74.0775 485.162 69.3175 488.716 63.9625C492.567 58.31 495.529 52.36 499.083 46.41C502.341 41.055 506.784 35.7 513.004 34.2125C519.224 32.725 526.037 34.51 530.183 38.675Z" fill="white"/>
</svg>
