<svg width="276" height="110" viewBox="0 0 276 110" fill="none" xmlns="http://www.w3.org/2000/svg">
<path d="M53.6076 102.342V110H0V102.342H53.6076ZM137.384 102.341C132.007 107.285 124.963 110.02 117.658 110L61.2659 109.924V102.341H137.384ZM217.093 102.341L214.418 110L211.768 102.341H217.093ZM191.456 102.342V110H153.165V102.342H191.456ZM275.696 102.342V110H237.405V102.342H275.696ZM146.058 87.7214C145.401 90.4078 144.363 92.9866 142.977 95.3796H61.2659V87.7214H146.058ZM222.225 87.7217L219.537 95.38H209.324L206.636 87.7217H222.225ZM191.456 87.7214V95.3796H153.165V87.7214H191.456ZM275.696 87.7214V95.3796H237.405V87.7214H275.696ZM53.6076 87.7214V95.3796H0V87.7214H53.6076ZM38.2911 73.1012V80.7595H15.3164V73.1012H38.2911ZM99.557 73.1012V80.7595H76.5823V73.1012H99.557ZM145.874 73.1012C146.553 75.5974 146.897 78.1726 146.899 80.7595H121.139V73.1012H145.874ZM227.358 73.1012L224.669 80.7595H204.192L201.503 73.1012H227.358ZM191.456 73.1012V80.7595H168.481V73.1012H191.456ZM260.38 73.1012V80.7595H237.405V73.1012H260.38ZM38.2911 58.481V66.1392H15.3164V58.481H38.2911ZM191.456 58.481V66.1392H168.481V58.481H191.456ZM260.38 58.481V66.1392H237.405V58.481H260.38ZM136.58 58.4806C139.131 60.6504 141.292 63.2404 142.969 66.1388H76.582V58.4806H136.58ZM232.49 58.4806L229.802 66.139H199.059L196.371 58.4806H232.49ZM212.277 43.861L214.431 50.0512L216.583 43.861H260.38V51.5193H237.405V44.4822L234.935 51.5193H193.926L191.456 44.4813V51.5193H168.481V43.861H212.277ZM76.5823 43.8606L142.969 43.8611C141.292 46.7595 139.131 49.3496 136.581 51.5193H76.5823V43.8606ZM38.2911 43.8606V51.5189H15.3164V43.8606H38.2911ZM38.2911 29.2405V36.8987H15.3164V29.2405H38.2911ZM99.557 29.2405V36.8987H76.5823V29.2405H99.557ZM146.899 29.2406C146.897 31.8274 146.553 34.4026 145.874 36.8988H121.139V29.2406H146.899ZM207.193 29.2405L209.857 36.8988H168.481V29.2405H207.193ZM260.38 29.2405V36.8988H219.004L221.668 29.2405H260.38ZM53.6076 14.6202V22.2785H0V14.6202H53.6076ZM142.977 14.6202C144.363 17.0132 145.401 19.5919 146.058 22.2783H61.2659V14.6202H142.977ZM275.696 14.62V22.2783H224.088L226.752 14.62H275.696ZM202.109 14.62L204.773 22.2783H153.165V14.62H202.109ZM53.6076 5.30778e-05V7.65829H0V5.30778e-05H53.6076ZM117.658 2.64673e-05C124.961 -0.00981166 132.001 2.72336 137.384 7.6582H61.2659V2.64673e-05H117.658ZM275.696 0.000311543V7.65863H229.172L231.836 0.000311543H275.696ZM197.025 0.000311543L199.688 7.65863H153.165V0.000311543H197.025Z" fill="white"/>
</svg>
