<?xml version="1.0" encoding="UTF-8"?>
<svg version="1.1" xmlns="http://www.w3.org/2000/svg" width="1549" height="312">
<path d="M0 0 C0.886875 0.42925781 1.77375 0.85851563 2.6875 1.30078125 C16.24970532 8.29872149 27.46273886 17.79305872 38.328125 28.375 C39.79952127 29.80514217 41.28902328 31.21660624 42.78125 32.625 C49.59858341 39.18344733 55.29939429 46.47866851 61 54 C64.87352738 52.70882421 65.60371054 51.07032616 67.9375 47.75 C71.85243486 42.31699546 76.14674128 37.40052166 80.74975586 32.54199219 C83.13055091 30.02881965 85.44241106 27.5031079 87.63671875 24.82421875 C101.53071442 8.22031979 125.26370904 -6.3937301 147 -9 C175.70047258 -10.47211868 200.33134915 -3.26210029 222.32421875 15.5703125 C264.1691254 53.56670949 284.45629071 108.67961673 290 164 C290.11214844 165.07765625 290.22429687 166.1553125 290.33984375 167.265625 C293.49838347 204.47581891 291.91079865 247.10632504 267.83984375 277.75 C255.1970976 292.37723365 239.04577198 301.6786906 219.55786133 303.28344727 C216.05346245 303.39990616 212.56850906 303.41743571 209.0625 303.375 C207.82975342 303.36339844 206.59700684 303.35179687 205.3269043 303.33984375 C184.68076549 302.96791516 166.24134683 296.26059929 151 282 C151 281.34 151 280.68 151 280 C150.01 279.67 149.02 279.34 148 279 C148 278.34 148 277.68 148 277 C147.01 276.67 146.02 276.34 145 276 C145 275.34 145 274.68 145 274 C144.34 274 143.68 274 143 274 C139.74891606 270.55548772 136.91923389 266.72766814 134 263 C133.505 262.37319336 133.01 261.74638672 132.5 261.10058594 C124.09071415 250.42604872 116.36712067 239.41485397 109 228 C108.53303711 227.28215332 108.06607422 226.56430664 107.58496094 225.82470703 C98.90438386 212.45396409 90.89682276 198.69379891 82.87519836 184.92301941 C78.98104755 178.24263309 74.9979315 171.61862282 71 165 C70.21293542 163.68656101 69.42650335 162.37274284 68.640625 161.05859375 C68.24351318 160.39480713 67.84640137 159.73102051 67.43725586 159.04711914 C66.66180138 157.75086796 65.88656391 156.45448693 65.11157227 155.15795898 C63.10058886 151.80272332 61.0479214 148.48094635 58.9375 145.1875 C57 142 57 142 57 140 C56.34 140 55.68 140 55 140 C54.73300293 140.70833984 54.46600586 141.41667969 54.19091797 142.14648438 C52.95195514 145.11511855 51.51167405 147.84695888 49.9453125 150.65625 C49.336875 151.7501001 48.7284375 152.8439502 48.1015625 153.97094727 C47.44288181 155.14739532 46.78402332 156.32374384 46.125 157.5 C45.44259545 158.72251187 44.7603051 159.94508748 44.078125 161.16772461 C38.64846669 170.88740913 33.15398205 180.5691961 27.59814453 190.21728516 C25.8273115 193.30068798 24.06789225 196.39047115 22.30859375 199.48046875 C15.21875392 211.90071793 7.98554393 224.13473911 0 236 C-0.52335938 236.78487793 -1.04671875 237.56975586 -1.5859375 238.37841797 C-20.00890344 265.97502628 -41.66268506 294.44081271 -75.59204102 302.60742188 C-80.87339879 303.46846043 -86.22516487 303.33703865 -91.5625 303.3125 C-92.81160156 303.30758545 -94.06070313 303.3026709 -95.34765625 303.29760742 C-113.80904832 303.06323428 -128.7530611 298.5825793 -144 288 C-144.763125 287.47664063 -145.52625 286.95328125 -146.3125 286.4140625 C-146.869375 285.94742187 -147.42625 285.48078125 -148 285 C-148 284.34 -148 283.68 -148 283 C-148.58265625 282.75765625 -149.1653125 282.5153125 -149.765625 282.265625 C-162.42974925 275.09223993 -169.98602513 254.45486807 -174 241 C-189.94354495 181.50730301 -175.19479751 112.44763225 -145.10546875 59.85546875 C-126.70341354 28.6403199 -100.85288647 2.40655346 -65.12109375 -7.2734375 C-43.34618348 -12.34244039 -20.04067578 -9.70720233 0 0 Z M135 36 C133.77990234 36.61875 133.77990234 36.61875 132.53515625 37.25 C122.31061903 42.93568263 113.26120115 50.86543992 106 60 C105.14994089 61.03922719 104.29966186 62.07827452 103.44921875 63.1171875 C98.60054991 69.10083165 93.97711862 75.22695345 89.6875 81.625 C89.28418457 82.20459473 88.88086914 82.78418945 88.46533203 83.38134766 C87.22932753 85.19731041 87.22932753 85.19731041 86 88 C87.23331223 91.20352746 89.22514732 94.04158993 91.0546875 96.9375 C91.66296387 97.90397461 92.27124023 98.87044922 92.89794922 99.86621094 C93.87658936 101.41743652 93.87658936 101.41743652 94.875 103 C100.10607732 111.33037545 105.26335178 119.69579558 110.30273438 128.14331055 C116.42064732 138.39606789 122.63118594 148.59248507 128.83581543 158.79289246 C131.16718285 162.62666207 133.49163077 166.46454906 135.8125 170.3046875 C142.68628904 181.66501722 149.69449065 192.91218455 157 204 C157.71800781 205.09699219 158.43601562 206.19398438 159.17578125 207.32421875 C176.6850459 235.48977479 176.6850459 235.48977479 204 252 C213.47006625 252.95012178 223.19719102 251.32783868 230.875 245.375 C241.91541685 234.68464515 245.05894116 218.72554896 245.30078125 203.96484375 C245.32992804 200.95543209 245.32686353 197.94699309 245.3125 194.9375 C245.31067719 194.14653931 245.30885437 193.35557861 245.30697632 192.54064941 C245.19396399 163.27229634 240.70308802 134.6544682 231 107 C230.60039062 105.845 230.20078125 104.69 229.7890625 103.5 C223.54761938 86.40933696 214.66100532 70.95536133 203 57 C202.41605469 56.28070313 201.83210938 55.56140625 201.23046875 54.8203125 C199.86970421 53.17150292 198.44146319 51.5787454 197 50 C196.34 50 195.68 50 195 50 C195 49.34 195 48.68 195 48 C192.97475677 46.28446413 190.9676115 44.72569887 188.8125 43.1875 C187.87204834 42.51473022 187.87204834 42.51473022 186.91259766 41.82836914 C172.04746474 31.57109204 151.58887373 27.47923019 135 36 Z M-82 60 C-116.47768259 96.82728033 -129.56238293 153.07993719 -128.13623047 202.34863281 C-127.34127162 217.82041257 -123.80895279 233.69950264 -112.19140625 244.71484375 C-105.50059645 250.22096288 -97.78709787 252.57168849 -89.15234375 252.22265625 C-74.72514886 250.73018781 -63.48043879 241.67050894 -54.4375 230.8125 C-52.94151801 228.88795378 -51.46296118 226.94976534 -50 225 C-49.21882813 223.98292969 -48.43765625 222.96585938 -47.6328125 221.91796875 C-30.03458238 198.68571149 -14.60774729 173.55540861 0.90625 148.91015625 C3.65050779 144.55126606 6.40413769 140.19842325 9.16625977 135.85083008 C10.3408235 134.00180287 11.51321206 132.15139199 12.68334961 130.29956055 C15.66717462 125.5934496 18.70370445 120.93688139 21.84765625 116.3359375 C22.46068604 115.42835693 23.07371582 114.52077637 23.70532227 113.58569336 C24.87667548 111.85726617 26.06279176 110.1387264 27.26538086 108.43188477 C27.78624268 107.65901123 28.30710449 106.8861377 28.84375 106.08984375 C29.54274414 105.08232056 29.54274414 105.08232056 30.25585938 104.05444336 C31.24286041 101.94517058 31.24286041 101.94517058 30.31860352 99.49902344 C29.05394033 97.10222797 27.72480398 95.05932735 26.05859375 92.92578125 C25.47972412 92.18094482 24.90085449 91.4361084 24.30444336 90.66870117 C23.68835205 89.89115479 23.07226074 89.1136084 22.4375 88.3125 C21.80271729 87.50594971 21.16793457 86.69939941 20.51391602 85.8684082 C15.88974846 80.03307915 11.15795174 74.37394637 6 69 C5.51708496 68.48598633 5.03416992 67.97197266 4.53662109 67.44238281 C-2.36897387 60.11408302 -9.07863338 53.86619997 -18 49 C-19.07894531 48.38898437 -19.07894531 48.38898437 -20.1796875 47.765625 C-41.95773187 36.07157783 -65.10314048 43.89929133 -82 60 Z " fill="#FFFFFF" transform="translate(180,9)"/>
<path d="M0 0 C19.47 0 38.94 0 59 0 C65.74829932 11.24716553 65.74829932 11.24716553 68.5234375 16.30078125 C69.14371826 17.42782471 69.76399902 18.55486816 70.40307617 19.71606445 C71.06041982 20.91485673 71.71772678 22.11366912 72.375 23.3125 C73.07443372 24.58498507 73.7740636 25.85736234 74.47387695 27.12963867 C75.55979174 29.10402499 76.64551646 31.07851399 77.73048401 33.05342102 C80.19505821 37.53937529 82.66714658 42.02110892 85.14453125 46.5 C91.37429766 57.76577213 97.57947502 69.04251832 103.6875 80.375 C107.84841795 88.09412783 112.09891728 95.75436707 116.4375 103.375 C121.66371754 112.55474558 126.70096476 121.82505039 131.68359375 131.13891602 C136.42075076 139.97426774 141.2944454 148.72768351 146.21118164 157.46411133 C150.22495471 164.59938747 154.17278519 171.76282313 158 179 C164.94933627 167.45437586 171.46134352 155.70899466 177.84765625 143.84375 C183.17389286 133.94965351 188.67060828 124.15127644 194.16796875 114.3515625 C200.5216265 103.02416923 206.85151209 91.68447006 213.125 80.3125 C213.4634494 79.69899689 213.8018988 79.08549377 214.15060425 78.45339966 C218.52263746 70.52488332 222.86545333 62.58088774 227.1875 54.625 C231.76473662 46.20204859 236.45387988 37.84669395 241.18920898 29.51171875 C245.41976877 22.05680715 249.56619614 14.55837428 253.66235352 7.02880859 C254.08830811 6.24844238 254.5142627 5.46807617 254.953125 4.6640625 C255.32598633 3.97779785 255.69884766 3.2915332 256.08300781 2.58447266 C257 1 257 1 258 0 C277.14 0 296.28 0 316 0 C316 98.34 316 196.68 316 298 C299.83 298 283.66 298 267 298 C266.505 188.11 266.505 188.11 266 76 C260.58089346 85.63396718 255.17077977 95.2700523 249.8125 104.9375 C244.91675259 113.76181175 240.00168936 122.57490496 235.0625 131.375 C229.8964859 140.5818016 224.78073914 149.81533338 219.6875 159.0625 C214.9411051 167.67950248 210.18026198 176.28695305 205.33984375 184.8515625 C203.42700675 188.23706907 201.52688937 191.62958188 199.62890625 195.0234375 C199.02062988 196.11108398 198.41235352 197.19873047 197.78564453 198.31933594 C196.59736767 200.44473471 195.40950753 202.57036654 194.22216797 204.69628906 C189.86225218 212.49163259 185.44180421 220.25114332 181 228 C174.54099301 228.20301824 168.08280909 228.34300606 161.62133789 228.43945312 C159.42408506 228.47965963 157.22704594 228.53423585 155.03051758 228.60351562 C151.87006985 228.70069421 148.71245134 228.74595337 145.55078125 228.78125 C144.08020012 228.84318542 144.08020012 228.84318542 142.57991028 228.90637207 C139.83222301 228.9081756 137.62242582 228.82603724 135 228 C132.63510502 225.61494573 131.35687697 223.0428795 130 220 C129.30682843 218.76056484 128.60403905 217.52639861 127.88671875 216.30078125 C127.15139826 214.972596 126.41846399 213.64308781 125.6875 212.3125 C125.27145508 211.55976807 124.85541016 210.80703613 124.42675781 210.03149414 C122.94867469 207.35569947 121.47417831 204.67794788 120 202 C117.75993937 197.93391549 115.51935662 193.86811921 113.27813721 189.80267334 C112.5899724 188.55425374 111.9019445 187.30575866 111.21405029 186.05718994 C106.45086755 177.41272979 101.64954546 168.79092441 96.8125 160.1875 C91.63327071 150.97280318 86.56589521 141.70253056 81.54882812 132.39868164 C77.82918491 125.50784814 74.03492932 118.66499765 70.17578125 111.8515625 C67.3808113 106.91595484 64.63456878 101.9533482 61.88793945 96.99072266 C59.05512891 91.87938675 56.19435365 86.78404992 53.328125 81.69140625 C52.91127441 80.95055786 52.49442383 80.20970947 52.06494141 79.44641113 C51.04338914 77.63088737 50.02170759 75.81543635 49 74 C49.00092179 75.13620946 49.00184359 76.27241892 49.00279331 77.44305897 C49.0249688 105.0583804 49.04141431 132.67370068 49.05181217 160.28902912 C49.05697383 173.64345453 49.06401406 186.99787335 49.07543945 200.35229492 C49.08539025 211.98868046 49.09185438 223.62506175 49.09408849 235.26145142 C49.09539492 241.42580993 49.09847654 247.59015627 49.10573006 253.75451088 C49.11249649 259.55166445 49.11461568 265.3488008 49.11310768 271.14595795 C49.11338373 273.27811209 49.11538516 275.41026679 49.11920547 277.54241753 C49.12415242 280.44470707 49.12299453 283.34693086 49.12025452 286.2492218 C49.12316736 287.10038285 49.1260802 287.9515439 49.12908131 288.82849771 C49.12057659 292.1423263 49.05541719 294.83374844 48 298 C32.16 298 16.32 298 0 298 C0 199.66 0 101.32 0 0 Z " fill="#FFFFFF" transform="translate(569,9)"/>
<path d="M0 0 C5.18388093 4.03622999 9.61606993 8.76580199 14.1328125 13.5234375 C14.4628125 5.2734375 14.7928125 -2.9765625 15.1328125 -11.4765625 C30.3128125 -11.4765625 45.4928125 -11.4765625 61.1328125 -11.4765625 C61.1328125 61.7834375 61.1328125 135.0434375 61.1328125 210.5234375 C45.9528125 210.5234375 30.7728125 210.5234375 15.1328125 210.5234375 C14.8028125 201.2834375 14.4728125 192.0434375 14.1328125 182.5234375 C9.1590777 188.20658736 9.1590777 188.20658736 4.1953125 193.8984375 C-3.81585663 201.69549966 -14.15566297 207.29942041 -24.6171875 211.0234375 C-25.26478027 211.25426025 -25.91237305 211.48508301 -26.57958984 211.72290039 C-50.30287021 219.52326631 -78.63102257 217.43276801 -101.0625 206.58984375 C-107.46356846 203.26095904 -113.19415833 198.95062497 -118.8671875 194.5234375 C-119.82238281 193.80542969 -120.77757812 193.08742188 -121.76171875 192.34765625 C-122.45652344 191.74566406 -123.15132812 191.14367187 -123.8671875 190.5234375 C-123.8671875 189.8634375 -123.8671875 189.2034375 -123.8671875 188.5234375 C-124.5271875 188.5234375 -125.1871875 188.5234375 -125.8671875 188.5234375 C-151.23833304 161.80880971 -158.89885051 126.60379005 -158.21484375 90.9296875 C-157.26768768 64.50437253 -148.65093395 37.49115282 -130.8671875 17.5234375 C-130.21621094 16.7190625 -129.56523438 15.9146875 -128.89453125 15.0859375 C-98.23060293 -21.59614498 -38.26656894 -27.54816879 0 0 Z M-95.8671875 49.5234375 C-108.93923625 66.05305831 -111.71993375 90.40126328 -109.6328125 110.81591797 C-106.90651393 131.33938601 -99.76250946 148.85980321 -83.4921875 162.3359375 C-69.00754889 173.01678406 -51.03655885 174.45974386 -33.60644531 172.23486328 C-15.9010288 169.08375595 -2.66229693 158.87479711 8.34375 145.17578125 C14.24802379 136.42250198 14.78409744 129.23354422 14.8046875 118.921875 C14.81757073 117.39742554 14.83102939 115.87298085 14.84503174 114.34854126 C14.86889996 111.15949062 14.87640205 107.97087184 14.87402344 104.78173828 C14.87361849 100.73311892 14.92809225 96.68733059 14.99711227 92.6393795 C15.04202853 89.49044593 15.04968718 86.34217201 15.04758453 83.1929512 C15.05224504 81.70281899 15.06959615 80.21266117 15.100914 78.7228508 C15.34912648 65.69081529 11.58482029 56.80052354 3.21875 46.8125 C-10.55123368 33.28061402 -25.81258129 26.24945167 -45.3671875 26.0234375 C-66.05025801 26.24412121 -82.38463357 33.99870384 -95.8671875 49.5234375 Z " fill="#FFFFFF" transform="translate(1487.8671875,96.4765625)"/>
<path d="M0 0 C0.85722656 0.77472656 1.71445313 1.54945312 2.59765625 2.34765625 C2.59765625 3.00765625 2.59765625 3.66765625 2.59765625 4.34765625 C3.18160156 4.59128906 3.76554687 4.83492187 4.3671875 5.0859375 C18.93137958 13.32452602 27.46525911 38.43722792 31.6875 53.45483398 C36.94246311 72.99964317 37.59765625 92.08424982 37.59765625 112.34765625 C-15.86234375 112.34765625 -69.32234375 112.34765625 -124.40234375 112.34765625 C-119.35456785 132.53875985 -111.92654367 149.53365013 -93.61328125 160.7421875 C-73.88017329 170.60874148 -49.35172091 171.2418495 -28.46679688 164.74560547 C-16.50158772 160.75620631 -6.05300139 154.45149516 2.87890625 145.5 C4.59765625 144.34765625 4.59765625 144.34765625 6.5859375 144.390625 C9.29954525 145.68156461 10.48080055 147.32441408 12.28515625 149.72265625 C13.32542969 151.07810547 13.32542969 151.07810547 14.38671875 152.4609375 C15.11632813 153.41355469 15.8459375 154.36617187 16.59765625 155.34765625 C18.11154253 157.20749936 19.63238134 159.06170504 21.16015625 160.91015625 C25.05685442 165.65925714 28.85630697 170.47548114 32.59765625 175.34765625 C10.82264184 197.78965309 -21.33612865 209.74140479 -52.26171875 210.5859375 C-82.17208051 211.00686303 -110.87995723 206.53907545 -134.40234375 186.34765625 C-135.2634375 185.64253906 -136.12453125 184.93742188 -137.01171875 184.2109375 C-157.68385362 166.54618948 -170.39451262 139.05433396 -173.19140625 112.16601562 C-174.45553423 95.27586118 -174.55754419 77.8539446 -170.40234375 61.34765625 C-170.23605469 60.67669922 -170.06976562 60.00574219 -169.8984375 59.31445312 C-162.75524855 31.61475375 -145.52557574 6.83434395 -120.76953125 -7.7734375 C-82.86070823 -28.92673666 -34.31940741 -27.40932479 0 0 Z M-106.40234375 35.34765625 C-117.25188061 48.08239632 -121.27311569 59.830744 -125.40234375 76.34765625 C-87.12234375 76.34765625 -48.84234375 76.34765625 -9.40234375 76.34765625 C-12.34206403 57.23947441 -16.84440047 41.12490112 -32.77734375 28.97265625 C-37.74693287 25.56807586 -42.65987467 23.14217784 -48.40234375 21.34765625 C-49.08296875 21.12335938 -49.76359375 20.8990625 -50.46484375 20.66796875 C-68.89155936 15.57270269 -93.38442617 20.77998658 -106.40234375 35.34765625 Z " fill="#FFFFFF" transform="translate(1100.40234375,101.65234375)"/>
<path d="M0 0 C15.51 0 31.02 0 47 0 C47 21.45 47 42.9 47 65 C69.11 65 91.22 65 114 65 C114 78.2 114 91.4 114 105 C91.89 105 69.78 105 47 105 C47.09096685 124.38682869 47.09096685 124.38682869 47.20898438 143.7734375 C47.26316257 151.68877671 47.31427831 159.60406431 47.34643555 167.51953125 C47.37258269 173.9063185 47.41306526 180.29287333 47.46318626 186.67951584 C47.47977806 189.10732491 47.49133991 191.53517411 47.49761391 193.96303177 C46.77097308 218.4313224 46.77097308 218.4313224 56.71875 239.9296875 C65.7876754 248.60274711 76.98389183 249.19936555 89 249 C97.3580572 248.57911801 105.66598817 247.77419782 114 247 C114 259.87 114 272.74 114 286 C89.23677786 294.25440738 60.38155808 295.39753964 36.09375 284.72265625 C21.26929685 277.20632537 10.23669716 264.38645489 4.875 248.7109375 C1.27206493 236.762969 -0.31051398 224.99050133 -0.22705078 212.50854492 C-0.22734283 211.33621811 -0.22763489 210.1638913 -0.22793579 208.95603943 C-0.2265568 205.13077047 -0.2110636 201.30570313 -0.1953125 197.48046875 C-0.19157727 194.80861583 -0.18863416 192.13677368 -0.18673706 189.46492004 C-0.18055815 183.18252643 -0.16419674 176.90020368 -0.14403808 170.61784106 C-0.12156633 163.45686362 -0.1106575 156.29588253 -0.10064721 149.13487852 C-0.07982666 134.42321137 -0.04319617 119.71162003 0 105 C-14.52 105 -29.04 105 -44 105 C-44 91.8 -44 78.6 -44 65 C-29.48 65 -14.96 65 0 65 C0 43.55 0 22.1 0 0 Z " fill="#FFFFFF" transform="translate(1195,20)"/>
</svg>
