<svg width="565" height="133" viewBox="0 0 565 133" fill="none" xmlns="http://www.w3.org/2000/svg">
<path d="M117.25 76.6366C128.802 76.6366 145.516 74.2541 145.516 60.5133C145.551 59.4528 145.455 58.3921 145.23 57.3551L138.35 27.4725C136.762 20.8975 135.368 17.9148 123.825 12.1433C114.867 7.56301 95.3548 0 89.5833 0C84.2089 0 82.6482 6.92583 76.2395 6.92583C70.0709 6.92583 65.4906 1.75454 59.7191 1.75454C54.1785 1.75454 50.5678 5.53143 47.779 13.2976C47.779 13.2976 40.0128 35.2017 39.0155 38.3783C38.857 38.9617 38.7885 39.5658 38.8123 40.1698C38.8123 48.684 72.3334 76.5997 117.25 76.5997M147.289 66.0909C148.887 73.6539 148.887 74.4481 148.887 75.4454C148.887 88.3736 134.352 95.5488 115.246 95.5488C72.0656 95.5765 34.2413 70.2741 34.2413 53.5505C34.2388 51.2227 34.7134 48.919 35.6357 46.7817C20.1034 47.5574 0 50.3277 0 68.0763C0 97.1463 68.8797 132.976 123.418 132.976C165.232 132.976 175.778 114.064 175.778 99.1317C175.778 87.3855 165.62 74.051 147.308 66.0909" fill="white"/>
<path d="M147.289 66.0909C148.887 73.6539 148.887 74.4481 148.887 75.4454C148.887 88.3736 134.352 95.5488 115.246 95.5488C72.0655 95.5765 34.2412 70.2741 34.2412 53.5505C34.2387 51.2227 34.7133 48.919 35.6356 46.7817L39.0154 38.4153C38.8606 38.9867 38.7921 39.5781 38.8123 40.1698C38.8123 48.684 72.3333 76.5997 117.25 76.5997C128.802 76.5997 145.516 74.2172 145.516 60.4764C145.551 59.4159 145.455 58.3552 145.23 57.3182L147.289 66.0909ZM534.896 85.2339C534.896 96.2136 541.498 101.551 553.54 101.551C557.247 101.459 560.932 100.938 564.52 99.9998V87.2655C562.226 87.9922 559.833 88.3537 557.428 88.3367C552.469 88.3367 550.631 86.7853 550.631 82.1219V62.6095H565V49.4966H550.631V32.8746L534.933 36.2729V49.4966H524.507V62.6095H534.896V85.2339ZM485.953 85.5294C485.953 82.1311 489.361 80.4782 494.504 80.4782C497.648 80.4964 500.779 80.887 503.831 81.6417V88.2443C500.823 89.8872 497.442 90.7238 494.015 90.673C488.973 90.673 485.953 88.7338 485.953 85.5294ZM490.755 101.745C496.296 101.745 500.765 100.582 504.939 97.765V100.877H520.471V67.947C520.471 55.4251 512.031 48.5547 497.949 48.5547C490.081 48.5547 482.305 50.4016 473.939 54.1877L479.572 65.7492C485.593 63.219 490.653 61.6676 495.114 61.6676C501.578 61.6676 504.921 64.1886 504.921 69.3414V71.8624C501.115 70.8773 497.198 70.3869 493.267 70.4034C480.052 70.4034 472.092 75.944 472.092 85.8526C472.092 94.8839 479.277 101.773 490.737 101.773L490.755 101.745ZM405.373 100.905H422.078V74.2634H450.05V100.877H466.801V32.8931H450.114V59.0173H422.143V32.8931H405.438L405.373 100.905ZM341.785 75.1407C341.785 67.7531 347.612 62.1201 355.286 62.1201C359.278 62.0391 363.155 63.4632 366.145 66.1094V84.0704C364.697 85.4393 362.991 86.5081 361.127 87.2149C359.263 87.9218 357.278 88.2528 355.286 88.1889C347.714 88.1889 341.785 82.5559 341.785 75.1776V75.1407ZM366.358 100.914H381.899V29.4948L366.201 32.8931V52.2208C362.205 49.9552 357.682 48.783 353.088 48.8225C338.137 48.8225 326.382 60.3748 326.382 75.1407C326.339 78.6053 326.987 82.0437 328.287 85.2553C329.588 88.4669 331.515 91.3873 333.956 93.8459C336.398 96.3045 339.304 98.2522 342.507 99.5751C345.709 100.898 349.143 101.57 352.608 101.551C357.562 101.575 362.393 100.012 366.395 97.0909L366.358 100.914ZM295.04 61.409C299.99 61.409 304.164 64.6134 305.817 69.5631H284.393C285.944 64.4564 289.832 61.409 295.04 61.409ZM268.565 75.2607C268.565 90.2205 280.801 101.874 296.527 101.874C305.17 101.874 311.487 99.538 317.997 94.099L307.599 84.8645C305.17 87.3948 301.578 88.7522 297.312 88.7522C294.629 88.8278 291.986 88.0892 289.731 86.6337C287.477 85.1783 285.715 83.0741 284.679 80.5982H321.294V76.692C321.294 60.3748 310.323 48.6286 295.363 48.6286C291.847 48.5755 288.355 49.2261 285.094 50.5421C281.832 51.8581 278.866 53.813 276.371 56.2917C273.876 58.7704 271.902 61.723 270.565 64.9759C269.227 68.2287 268.554 71.7161 268.584 75.233L268.565 75.2607ZM241.481 47.1695C247.021 47.1695 250.124 50.6601 250.124 54.8434C250.124 59.0266 247.021 62.5172 241.481 62.5172H224.96V47.1695H241.481ZM208.237 100.877H224.942V76.1103H237.657L250.484 100.877H269.184L254.224 73.6816C258.026 72.1354 261.278 69.487 263.562 66.0772C265.846 62.6673 267.058 58.652 267.041 54.5478C267.041 42.3122 257.428 32.8931 243.032 32.8931H208.237V100.877Z" fill="white"/>
</svg>
