<?xml version="1.0" encoding="UTF-8"?>
<svg version="1.1" xmlns="http://www.w3.org/2000/svg" width="1000" height="301">
<path d="M0 0 C1.36125 1.051875 1.36125 1.051875 2.75 2.125 C3.69617188 2.84300781 4.64234375 3.56101562 5.6171875 4.30078125 C9.09029865 7.20502074 11.29682626 10.59284574 13.625 14.4375 C14.22828125 15.40526367 14.22828125 15.40526367 14.84375 16.39257812 C15.82173663 17.96434236 16.78720845 19.54388233 17.75 21.125 C18.24628906 20.41214844 18.74257813 19.69929688 19.25390625 18.96484375 C27.17831755 7.79247639 35.85072263 -2.17427437 50.12109375 -4.625 C66.3893966 -6.17206 79.75353713 -3.93483884 92.6796875 6.71484375 C102.10368738 15.30969343 104.7238588 26.91678956 105.75 39.125 C105.87967457 42.24723971 105.89024346 45.36364635 105.8828125 48.48828125 C105.88426773 49.4019194 105.88572296 50.31555756 105.88722229 51.25688171 C105.88949324 54.3171276 105.88309508 57.37726477 105.875 60.4375 C105.87311676 61.50105713 105.87123352 62.56461426 105.86929321 63.66040039 C105.85290637 71.74141143 105.81200148 79.82221439 105.76314545 87.9030838 C105.74935206 90.23451894 105.73657951 92.56595825 105.72393799 94.8973999 C105.66663227 105.24348656 105.58706412 115.58915898 105.48553467 125.93490601 C105.45201834 129.39763701 105.42527408 132.86032259 105.40411377 136.32315063 C105.37843214 140.44293234 105.33818707 144.56232326 105.28693962 148.68186378 C105.27024315 150.21649314 105.25864058 151.7511871 105.25235176 153.28589439 C105.24279527 155.39674508 105.21490946 157.50658397 105.18237305 159.6171875 C105.16571846 161.40165283 105.16571846 161.40165283 105.14872742 163.22216797 C104.75 166.125 104.75 166.125 103.45257568 168.00549316 C100.46125005 169.97240103 96.97128384 169.59285612 93.50390625 169.59375 C92.69638412 169.60136353 91.888862 169.60897705 91.05686951 169.61682129 C89.34971202 169.62762197 87.64248846 169.6304755 85.93530273 169.62597656 C83.32488628 169.62500461 80.71741343 169.66661271 78.10742188 169.7109375 C76.44792279 169.71614493 74.7884135 169.71883269 73.12890625 169.71875 C72.34963272 169.73514526 71.57035919 169.75154053 70.76747131 169.76843262 C67.23563407 169.72345997 65.2281698 169.54725667 62.53970337 167.17315674 C60.05824528 162.94682888 60.22458242 159.55450419 60.31176758 154.73925781 C60.31330086 153.33071785 60.31330086 153.33071785 60.31486511 151.89372253 C60.32274913 148.78813005 60.35877406 145.68351107 60.39453125 142.578125 C60.4045434 140.40640034 60.4126259 138.23466601 60.41886902 136.06292725 C60.43981667 130.33506513 60.48385052 124.6076193 60.53363037 118.87994385 C60.60877845 109.75652266 60.64738114 100.63286182 60.68912315 91.5092392 C60.70659277 88.34504456 60.7327895 85.18102446 60.76069641 82.01690674 C60.82807941 73.19137819 60.84336559 64.37204645 60.44018555 55.55371094 C60.35259224 53.60461823 60.35259224 53.60461823 60.26322937 51.6161499 C59.71584164 47.89264391 58.5726703 45.39183261 56.75 42.125 C56.42 41.135 56.09 40.145 55.75 39.125 C49.67173469 36.66782892 42.80421681 35.83849895 36.47265625 37.84765625 C31.42333839 40.17015441 28.00910239 42.88000164 25.9419241 48.20759869 C23.88159245 54.62395252 23.32746721 60.38235093 23.38110352 67.0949707 C23.37733704 68.14178513 23.37357056 69.18859955 23.36968994 70.26713562 C23.36329318 72.52162598 23.36355365 74.77614335 23.36987495 77.03063393 C23.37903077 80.59931485 23.36871194 84.16747559 23.35325623 87.73612976 C23.31326557 97.87559277 23.31196129 108.01501222 23.31420898 118.15454102 C23.31426002 124.371262 23.29513327 130.58769906 23.26487541 136.80434227 C23.25404176 140.3193167 23.26618138 143.83375195 23.27870178 147.34870911 C23.26980054 149.49981219 23.25972727 151.65091085 23.24829102 153.80200195 C23.26290627 155.26629135 23.26290627 155.26629135 23.27781677 156.76016235 C23.23266577 161.00851102 23.11409588 163.494291 20.95654297 167.23173523 C17.68791622 170.03629239 14.47672439 169.80512904 10.37109375 169.71875 C9.5626149 169.71879028 8.75413605 169.71883057 7.92115784 169.71887207 C6.21566982 169.71352033 4.51018216 169.695952 2.80493164 169.66699219 C0.19275735 169.62508435 -2.41684266 169.62592791 -5.02929688 169.6328125 C-6.68751793 169.62232142 -8.3457257 169.60938375 -10.00390625 169.59375 C-10.78520401 169.59354858 -11.56650177 169.59334717 -12.37147522 169.59313965 C-17.77235955 169.4750328 -17.77235955 169.4750328 -19.95257568 167.87728882 C-21.59100108 165.66444722 -21.64401263 164.40747744 -21.68237305 161.66845703 C-21.70217224 160.75670715 -21.72197144 159.84495728 -21.74237061 158.90557861 C-21.74875549 157.9080658 -21.75514038 156.91055298 -21.76171875 155.8828125 C-21.77962463 154.83148132 -21.79753052 153.78015015 -21.815979 152.69696045 C-21.87098938 149.21468283 -21.9043478 145.73254882 -21.9375 142.25 C-21.97176165 139.83087791 -22.00701198 137.41176963 -22.04321289 134.99267578 C-22.21656314 122.38552597 -22.26883966 109.78008251 -22.234375 97.171875 C-22.23158035 95.97364105 -22.22878571 94.7754071 -22.22590637 93.54086304 C-22.21008138 87.79013622 -22.18012426 82.04004396 -22.12573242 76.28955078 C-21.2859069 57.23698413 -21.2859069 57.23698413 -28.25 40.125 C-33.49597485 36.05936949 -39.90679322 36.37573531 -46.25 37.125 C-50.57384144 38.41984022 -52.90101517 40.64396686 -55.5625 44.3125 C-59.26648808 51.76476037 -59.54045199 59.7206831 -59.50537109 67.88964844 C-59.51080177 69.44502068 -59.51080177 69.44502068 -59.51634216 71.03181458 C-59.5232 73.26777013 -59.52574843 75.50374229 -59.52439499 77.73970795 C-59.52342532 81.27883648 -59.53642186 84.81766503 -59.55337524 88.35675049 C-59.59953168 98.4134292 -59.62427424 108.47007434 -59.63085938 118.52685547 C-59.63586742 124.69057404 -59.66007226 130.85397476 -59.69618607 137.01758575 C-59.70599145 139.36352889 -59.70831202 141.70951568 -59.70301437 144.05547333 C-59.69596169 147.32997318 -59.71318683 150.60351997 -59.73583984 153.87792969 C-59.72766739 154.84634293 -59.71949493 155.81475616 -59.71107483 156.81251526 C-59.76321371 161.04219543 -59.89261994 163.50721183 -62.04444885 167.22698975 C-65.31105904 170.03810553 -68.52133579 169.80516985 -72.62890625 169.71875 C-73.4373851 169.71879028 -74.24586395 169.71883057 -75.07884216 169.71887207 C-76.78433018 169.71352033 -78.48981784 169.695952 -80.19506836 169.66699219 C-82.80724265 169.62508435 -85.41684266 169.62592791 -88.02929688 169.6328125 C-89.68751793 169.62232142 -91.3457257 169.60938375 -93.00390625 169.59375 C-93.78520401 169.59354858 -94.56650177 169.59334717 -95.37147522 169.59313965 C-100.71325718 169.47632525 -100.71325718 169.47632525 -102.955369 168.00874996 C-104.88178837 165.20571774 -104.63084495 162.94460944 -104.63768005 159.56507874 C-104.64306559 158.89563514 -104.64845113 158.22619154 -104.65399987 157.53646177 C-104.6683316 155.2885263 -104.66116326 153.04117537 -104.65405273 150.79321289 C-104.65975362 149.18351262 -104.66671678 147.5738164 -104.67485046 145.96412659 C-104.6928286 141.58808411 -104.69160475 137.21224164 -104.68590808 132.8361733 C-104.68282283 129.18543783 -104.68890128 125.53474116 -104.69494683 121.88401121 C-104.70900582 113.27265775 -104.70741945 104.66140347 -104.69604492 96.05004883 C-104.68456284 87.16073737 -104.69863769 78.27172758 -104.7254414 69.38245589 C-104.74758024 61.75519814 -104.75423987 54.12803522 -104.74836498 46.50074762 C-104.74498977 41.94321023 -104.74744772 37.38586622 -104.76461601 32.82835579 C-104.78005418 28.54287777 -104.77616472 24.25784744 -104.75731087 19.97238731 C-104.75361622 18.39859733 -104.75675891 16.82477441 -104.76719666 15.25101471 C-104.78034961 13.10412495 -104.76891233 10.95872976 -104.75120544 8.81190491 C-104.75099616 7.61009614 -104.75078688 6.40828737 -104.75057125 5.17006016 C-104.147323 1.50039834 -103.20971533 0.31675264 -100.25 -1.875 C-97.62967709 -2.28562939 -95.43469807 -2.46035053 -92.81640625 -2.44140625 C-91.74397926 -2.45070412 -91.74397926 -2.45070412 -90.64988708 -2.46018982 C-89.1411983 -2.46727779 -87.63243114 -2.46413163 -86.1237793 -2.45141602 C-83.82258169 -2.4375607 -81.52546285 -2.47161089 -79.22460938 -2.50976562 C-77.75520734 -2.51071704 -76.28580025 -2.50885677 -74.81640625 -2.50390625 C-74.13292618 -2.51716446 -73.44944611 -2.53042267 -72.74525452 -2.54408264 C-68.95916235 -2.47078672 -67.33055645 -1.93836535 -64.32128906 0.42871094 C-61.68367383 3.86221196 -61.47346885 6.76111718 -61.4375 10.9375 C-61.41236328 11.63037109 -61.38722656 12.32324219 -61.36132812 13.03710938 C-61.30286737 14.73247122 -61.27346953 16.42879287 -61.25 18.125 C-60.84910156 17.4959375 -60.44820312 16.866875 -60.03515625 16.21875 C-46.88788732 -3.5766844 -21.76410159 -12.55621245 0 0 Z " fill="#FFFFFF" transform="translate(274.25,5.875)"/>
<path d="M0 0 C2.09556654 0.02156336 4.18773494 -0.00001467 6.28320312 -0.02539062 C22.81343998 -0.05971807 39.28420062 4.70955095 51.49414062 16.32226562 C60.71034229 26.61734805 63.60007799 38.7738549 63.62060547 52.30175781 C63.62568619 53.04588928 63.63076691 53.79002075 63.63600159 54.55670166 C63.64664115 56.16134241 63.65528605 57.76599741 63.66212082 59.37065887 C63.67401016 61.91989106 63.69348812 64.46896134 63.71524048 67.01812744 C63.77651758 74.26235484 63.83078773 81.50656282 63.86425781 88.75097656 C63.88533002 93.19421191 63.9207287 97.63714593 63.96501541 102.08020782 C63.97907211 103.76247844 63.98787421 105.44480229 63.99106979 107.1271286 C64.01680929 119.38077942 64.38889171 130.34013726 72.08789062 140.39648438 C77.24081842 147.18367407 77.24081842 147.18367407 77.46289062 151.52148438 C74.13284449 156.75441402 69.26430946 160.24748457 64.43945312 164.06445312 C62.36686987 165.77528628 60.45818056 167.45089424 58.54882812 169.32226562 C57.61296875 170.23363281 56.67710937 171.145 55.71289062 172.08398438 C54.87242187 172.93089844 54.03195312 173.7778125 53.16601562 174.65039062 C49.66081383 177.07667915 47.64563389 177.08968808 43.46289062 176.52148438 C41.27539062 175.27148438 41.27539062 175.27148438 39.46289062 173.52148438 C38.8003125 172.88597656 38.13773438 172.25046875 37.45507812 171.59570312 C28.75303189 162.53533734 28.75303189 162.53533734 26.46289062 157.52148438 C22.94486389 159.05352828 20.45364119 161.1785876 17.58789062 163.70898438 C1.60841423 176.95400491 -15.3612181 178.90596551 -35.53710938 177.52148438 C-46.98088063 176.02848905 -56.77319649 169.58417747 -64.00585938 160.74804688 C-72.85865315 147.87536204 -74.17864717 132.31572649 -72.07226562 117.18164062 C-68.78900746 102.39726511 -60.94321319 90.45073225 -48.27539062 82.14648438 C-28.88831459 70.6414578 -3.86889039 66.98595006 18.46289062 67.52148438 C18.40236647 64.51948612 18.31513451 61.52212016 18.21289062 58.52148438 C18.19871094 57.68230469 18.18453125 56.843125 18.16992188 55.97851562 C17.89036252 48.76588429 16.21813827 43.14232969 10.90039062 38.08398438 C4.81358361 34.18218501 -2.58607804 34.90610132 -9.53710938 35.52148438 C-14.70399074 37.04656895 -18.3457427 39.17335893 -21.91210938 43.20898438 C-23.69704484 46.84750668 -25.16108273 50.52930589 -26.50976562 54.34960938 C-27.53710938 56.52148438 -27.53710938 56.52148438 -30.53710938 58.52148438 C-32.81445312 58.59667969 -32.81445312 58.59667969 -35.47460938 58.34960938 C-36.45300781 58.26195312 -37.43140625 58.17429688 -38.43945312 58.08398438 C-39.46167969 57.98085938 -40.48390625 57.87773438 -41.53710938 57.77148438 C-42.52839844 57.68382812 -43.5196875 57.59617188 -44.54101562 57.50585938 C-62.80676588 55.79121268 -62.80676588 55.79121268 -66.34570312 53.19433594 C-68.17793548 50.6217015 -67.62842177 48.24292916 -67.16992188 45.24804688 C-63.83170564 30.86486827 -56.2745496 20.32858973 -44.53710938 11.52148438 C-30.79040036 2.9907849 -15.98086455 -0.19470594 0 0 Z M-20.34960938 105.33398438 C-25.9235519 113.45601491 -26.35051846 120.83965677 -25.53710938 130.52148438 C-24.70049102 134.99042078 -23.07693563 138.34250317 -19.66210938 141.39648438 C-14.47789374 144.92175101 -10.86356747 146.14375894 -4.53710938 145.52148438 C3.10671408 143.57667905 8.22230291 140.20067978 12.46289062 133.52148438 C16.15375951 126.13015994 18.60692902 119.30435792 18.56054688 111.00195312 C18.55732422 109.98037109 18.55410156 108.95878906 18.55078125 107.90625 C18.54240234 106.85115234 18.53402344 105.79605469 18.52539062 104.70898438 C18.52087891 103.63455078 18.51636719 102.56011719 18.51171875 101.453125 C18.49996792 98.80918754 18.4835385 96.16536486 18.46289062 93.52148438 C4.16803116 92.82147837 -9.88399485 94.86836985 -20.34960938 105.33398438 Z " fill="#FFFFFF" transform="translate(477.537109375,-0.521484375)"/>
<path d="M0 0 C2.12199705 0.00852599 4.24130231 -0.02040738 6.36303711 -0.05200195 C22.57612807 -0.13622672 39.52290101 4.38429534 51.68920898 15.63354492 C62.62487262 27.58742678 63.9762225 41.30430944 64.0247345 56.72244072 C64.03310967 59.30103233 64.05369227 61.87928412 64.07727051 64.45777893 C64.12522512 69.93298304 64.15832587 75.40822137 64.18920898 80.88354492 C64.22503599 87.23091983 64.26715132 93.57812629 64.32514954 99.92534065 C64.34502845 102.44996113 64.35349793 104.97444836 64.3614502 107.49913025 C64.46490243 123.38212127 67.05071081 133.53769759 76.65014648 146.30541992 C77.68920898 148.44604492 77.68920898 148.44604492 77.72045898 150.85229492 C76.26484842 154.51337604 73.71905354 156.66640431 70.81420898 159.19604492 C70.23501709 159.71537598 69.6558252 160.23470703 69.05908203 160.76977539 C64.43103928 164.88654045 59.67171014 168.83631486 54.83374023 172.70385742 C52.64894896 174.41766004 52.64894896 174.41766004 50.68920898 176.44604492 C47.71111644 177.12852446 46.5453792 177.28764204 43.68920898 176.44604492 C36.06788911 171.29081066 30.74673834 164.0040846 25.68920898 156.44604492 C25.10526367 157.08219727 25.10526367 157.08219727 24.50952148 157.73120117 C13.32697631 169.45483725 -0.64379533 177.13632355 -16.98266602 177.78198242 C-33.63919422 178.03194582 -46.3598808 177.04790199 -59.31079102 165.44604492 C-69.8405643 155.09575641 -71.75154647 142.90583643 -71.87329102 128.75854492 C-71.88803467 127.61853027 -71.90277832 126.47851562 -71.91796875 125.30395508 C-71.80057082 115.6014025 -69.49440812 107.32539173 -64.31079102 99.07104492 C-63.83641602 98.30018555 -63.36204102 97.52932617 -62.87329102 96.73510742 C-52.21043019 81.11401631 -34.91212234 74.29195642 -16.90258789 70.8840332 C-5.19045392 68.9047973 6.79253791 67.16041056 18.68920898 67.44604492 C18.60165469 64.42391238 18.49469836 61.40451811 18.37670898 58.38354492 C18.35415039 57.53598633 18.3315918 56.68842773 18.30834961 55.81518555 C18.04871862 49.70205598 17.32761801 44.51044707 13.18920898 39.70385742 C6.19772155 34.42382785 -0.89033161 34.82263239 -9.31079102 35.44604492 C-15.01310528 36.95118066 -19.30796644 40.33692253 -22.31079102 45.44604492 C-23.41680215 47.99623606 -24.40700784 50.55063408 -25.31860352 53.17651367 C-26.39602075 55.64099954 -27.19332637 56.80304646 -29.31079102 58.44604492 C-31.57226563 58.63476562 -31.57226563 58.63476562 -34.21313477 58.37182617 C-35.18089844 58.28239746 -36.14866211 58.19296875 -37.14575195 58.10083008 C-38.68150879 57.93139893 -38.68150879 57.93139893 -40.24829102 57.75854492 C-41.28630859 57.6533252 -42.32432617 57.54810547 -43.39379883 57.43969727 C-46.36880343 57.12877153 -49.3396731 56.79191433 -52.31079102 56.44604492 C-53.03862793 56.36692871 -53.76646484 56.2878125 -54.51635742 56.20629883 C-63.53382914 55.19966459 -63.53382914 55.19966459 -66.13110352 52.68041992 C-68.44388323 48.29992324 -66.69654481 43.96768778 -65.31079102 39.44604492 C-58.80254391 23.11126134 -48.59952514 13.36854259 -32.93579102 5.69604492 C-22.21956368 1.16437167 -11.52211267 -0.07028104 0 0 Z M-17.31079102 102.44604492 C-24.14810916 109.88393831 -25.8486316 116.86789856 -25.68969727 126.89135742 C-25.06598716 132.74265841 -23.10235167 137.82895681 -18.74829102 141.91088867 C-14.06742003 145.19920054 -9.9189741 145.81379463 -4.31079102 145.44604492 C3.13380029 143.82312402 9.12016093 139.43945127 13.23217773 133.04760742 C18.14898999 123.67538464 18.97642026 115.37747775 18.81420898 104.94604492 C18.80518555 103.83745117 18.79616211 102.72885742 18.78686523 101.58666992 C18.76347066 98.872899 18.73069073 96.15958947 18.68920898 93.44604492 C6.65684116 93.14032918 -7.92675489 93.81364276 -17.31079102 102.44604492 Z " fill="#FFFFFF" transform="translate(71.310791015625,-0.446044921875)"/>
<path d="M0 0 C10.33785994 8.33294165 14.68196773 19.27950958 16.578125 32.078125 C16.85593481 36.486642 16.86193721 40.88257691 16.8527832 45.29882812 C16.85789413 46.58454712 16.86300507 47.87026611 16.86827087 49.19494629 C16.88155245 52.69027418 16.88225275 56.18549327 16.87970757 59.68084145 C16.87863239 62.60390948 16.88353414 65.52695598 16.888313 68.45001936 C16.89936635 75.33974312 16.89986644 82.22941231 16.89379883 89.11914062 C16.88773516 96.22780417 16.90013984 103.33627099 16.9213689 110.44490099 C16.93895382 116.55804725 16.94499198 122.67113065 16.94173115 128.78430128 C16.93991626 132.43174073 16.94257669 136.07903917 16.95644569 139.72645569 C16.97129447 143.78196166 16.96208161 147.83706177 16.95043945 151.89257812 C16.95808319 153.10397461 16.96572693 154.31537109 16.97360229 155.56347656 C16.96658798 156.66244263 16.95957367 157.76140869 16.9523468 158.89367676 C16.95251454 159.85225838 16.95268229 160.81084 16.95285511 161.79846954 C16.82919417 162.55075584 16.70553324 163.30304214 16.578125 164.078125 C12.7797912 166.61034754 9.69936406 166.38402135 5.296875 166.37890625 C4.0820343 166.38533394 4.0820343 166.38533394 2.84265137 166.39189148 C1.13127578 166.39763138 -0.5801242 166.39813754 -2.29150391 166.39379883 C-4.91220584 166.39063667 -7.53178122 166.41410872 -10.15234375 166.43945312 C-11.81510274 166.44172591 -13.47786477 166.44242971 -15.140625 166.44140625 C-15.92505981 166.450616 -16.70949463 166.45982574 -17.5177002 166.46931458 C-22.95089391 166.4230098 -22.95089391 166.4230098 -25.12880707 164.82819176 C-26.75467318 162.62770858 -26.79791987 161.42498206 -26.80041504 158.70474243 C-26.80861771 157.81067688 -26.81682037 156.91661133 -26.82527161 155.99545288 C-26.81912338 155.01678253 -26.81297516 154.03811218 -26.80664062 153.02978516 C-26.8120134 151.99684326 -26.81738617 150.96390137 -26.82292175 149.8996582 C-26.83271772 147.65216571 -26.83563844 145.40463531 -26.83256531 143.15712357 C-26.82809216 139.59100581 -26.84207785 136.02538569 -26.86096191 132.45932007 C-26.89780859 124.87393002 -26.91144552 117.28859133 -26.921875 109.703125 C-26.93397742 100.94542407 -26.95574372 92.18796375 -27.00187683 83.43037033 C-27.01536877 79.93359474 -27.01128811 76.4371292 -27.00646973 72.94033813 C-26.40742142 53.29641781 -26.40742142 53.29641781 -34.421875 36.078125 C-37.85309258 33.50471182 -42.21052829 33.0409879 -46.421875 33.078125 C-52.27004094 33.99839477 -56.53478451 36.1256075 -60.140625 40.86328125 C-66.06640207 51.10692638 -66.56590697 62.51029878 -66.57958984 74.0324707 C-66.58467056 74.98320969 -66.58975128 75.93394867 -66.59498596 76.91349792 C-66.6056204 78.96120115 -66.61426723 81.00891549 -66.62110519 83.0566349 C-66.63297099 86.29719093 -66.65243814 89.53761825 -66.67422485 92.77812195 C-66.73561943 101.985583 -66.79002026 111.19302523 -66.82324219 120.40063477 C-66.84415199 126.04562659 -66.87940973 131.69037378 -66.92399979 137.33522606 C-66.9381718 139.48381875 -66.94688492 141.6324546 -66.95005417 143.78109169 C-66.95494725 146.77790759 -66.97805876 149.77406856 -67.00537109 152.77075195 C-67.00236496 153.65860382 -66.99935883 154.54645569 -66.9962616 155.46121216 C-67.04430295 158.99980766 -67.09818 161.44159683 -68.7183075 164.62748718 C-71.60559226 167.08609505 -75.05550692 166.64681249 -78.66796875 166.609375 C-79.47549088 166.6132019 -80.283013 166.61702881 -81.11500549 166.62097168 C-82.8222071 166.62369253 -84.52945027 166.61631909 -86.23657227 166.59960938 C-88.84681502 166.57822788 -91.45429686 166.5993885 -94.06445312 166.625 C-95.7239644 166.62235621 -97.38347396 166.61723016 -99.04296875 166.609375 C-99.82224228 166.61747192 -100.60151581 166.62556885 -101.40440369 166.63391113 C-104.71746388 166.57674887 -106.9157417 166.44925024 -109.62739468 164.46091461 C-112.00564876 161.30296462 -111.92728287 159.37028104 -111.9365387 155.43591309 C-111.94348422 154.76969862 -111.95042975 154.10348414 -111.95758575 153.41708136 C-111.97587447 151.18591628 -111.9655873 148.95581228 -111.95532227 146.72460938 C-111.96237981 145.12461043 -111.97112413 143.52461816 -111.98143005 141.92463684 C-112.00395125 137.57959318 -112.00097823 133.23491329 -111.99210858 128.88983345 C-111.98700266 125.26389063 -111.99428794 121.63801642 -112.00158066 118.01208067 C-112.01858797 109.45965307 -112.01500504 100.90740387 -111.99829102 92.35498047 C-111.98136272 83.52749528 -111.99721192 74.70050432 -112.0295139 65.8730731 C-112.05618895 58.29673458 -112.06349164 50.72055011 -112.05499882 43.14416933 C-112.05006421 38.61790784 -112.05231401 34.09194388 -112.07278633 29.5657196 C-112.09111128 25.31050188 -112.08522445 21.05599667 -112.06058693 16.80081749 C-112.05556909 15.23831731 -112.05909407 13.67576314 -112.07173538 12.11330605 C-112.08762013 9.98149234 -112.07276416 7.85203833 -112.05006409 5.72033691 C-112.04947778 4.52720131 -112.04889147 3.3340657 -112.04828739 2.10477448 C-111.421875 -0.921875 -111.421875 -0.921875 -109.10345364 -3.30466461 C-105.67178496 -5.3742404 -102.75051125 -5.49926806 -98.85546875 -5.453125 C-97.78160667 -5.45886536 -97.78160667 -5.45886536 -96.68605042 -5.46472168 C-95.17911363 -5.46743316 -93.67212916 -5.46012539 -92.1652832 -5.44335938 C-89.86237634 -5.42190296 -87.56257719 -5.44319869 -85.25976562 -5.46875 C-83.79165981 -5.4661072 -82.32355592 -5.4609832 -80.85546875 -5.453125 C-80.16996445 -5.46122192 -79.48446014 -5.46931885 -78.77818298 -5.47766113 C-75.50521293 -5.41360513 -73.67629688 -5.10526149 -70.99536133 -3.17285156 C-69.24343227 -0.66660084 -68.89423838 0.60068008 -68.8125 3.625 C-68.78027344 4.46933594 -68.74804688 5.31367188 -68.71484375 6.18359375 C-68.70066406 7.05628906 -68.68648437 7.92898437 -68.671875 8.828125 C-68.64222656 9.71628906 -68.61257813 10.60445312 -68.58203125 11.51953125 C-68.51150582 13.70581949 -68.45872863 15.89105268 -68.421875 18.078125 C-67.96296875 17.34207031 -67.5040625 16.60601563 -67.03125 15.84765625 C-66.41765625 14.87183594 -65.8040625 13.89601563 -65.171875 12.890625 C-64.56859375 11.92769531 -63.9653125 10.96476562 -63.34375 9.97265625 C-57.49282682 1.16059512 -49.59388058 -4.84252127 -39.2265625 -7.48046875 C-25.23206516 -9.68294535 -11.83677317 -8.04900576 0 0 Z " fill="#FFFFFF" transform="translate(983.421875,8.921875)"/>
<path d="M0 0 C0.928125 0.7425 1.85625 1.485 2.8125 2.25 C2.8125 2.91 2.8125 3.57 2.8125 4.25 C3.38484375 4.47429688 3.9571875 4.69859375 4.546875 4.9296875 C15.63138189 11.38927945 22.70089064 29.84366021 26.1875 41.5 C26.75885826 43.74264409 27.30275415 45.99255411 27.8125 48.25 C28.02519531 49.17425781 28.23789062 50.09851562 28.45703125 51.05078125 C34.28113164 80.67408322 30.15262841 111.22328418 13.5 136.5625 C1.66352956 152.42443674 -12.42725461 160.9320536 -31.75 165 C-49.91550927 166.32112795 -66.45623745 163.06380197 -81.171875 152.0078125 C-83.6363147 149.84956076 -85.9291533 147.6216838 -88.1875 145.25 C-88.81914063 144.61449219 -89.45078125 143.97898438 -90.1015625 143.32421875 C-110.66712017 121.44500211 -112.1200354 90.56160013 -111.37109375 62.26513672 C-111.08439742 54.59309812 -109.54233216 47.52997133 -107.1875 40.25 C-106.81367187 39.00992188 -106.43984375 37.76984375 -106.0546875 36.4921875 C-99.88891722 17.58654751 -88.04575232 2.50137985 -70.5 -6.9375 C-47.09235985 -18.02992649 -21.01196329 -14.21767576 0 0 Z M-55.68359375 26.7578125 C-65.07824252 38.7450498 -64.53743911 55.67099325 -64.50317383 70.09033203 C-64.50003033 72.84839052 -64.52347864 75.60535592 -64.54882812 78.36328125 C-64.60761792 94.88756589 -64.17138762 113.75335028 -52.84765625 126.875 C-48.36981065 130.58370977 -43.47634824 130.68936143 -37.90234375 130.5546875 C-32.10839959 129.9044319 -28.70552697 127.17248571 -25 122.8125 C-18.00028255 112.79953519 -17.03629938 100.09873603 -17.01953125 88.24609375 C-17.01620285 87.40514664 -17.01287445 86.56419952 -17.00944519 85.69776917 C-17.00441005 83.92539003 -17.0020358 82.15300152 -17.00219727 80.38061523 C-17.00002576 77.71907184 -16.98187471 75.05795388 -16.96289062 72.39648438 C-16.49210078 46.6437705 -16.49210078 46.6437705 -27.63671875 24.51953125 C-32.23305242 20.75678958 -37.73743964 20.80974725 -43.4375 20.94140625 C-48.41620423 21.50009607 -52.14670658 23.19322125 -55.68359375 26.7578125 Z " fill="#FFFFFF" transform="translate(820.1875,13.75)"/>
<path d="M0 0 C4.41557834 1.10895832 7.874782 3.12876923 11.78125 5.41796875 C13.40358587 6.34093989 15.02730858 7.26147723 16.65234375 8.1796875 C17.45913574 8.63649902 18.26592773 9.09331055 19.09716797 9.56396484 C42.94342528 22.90153105 68.60240761 33.03050883 94.40625 41.85546875 C95.03619873 42.07138672 95.66614746 42.28730469 96.31518555 42.50976562 C128.73617038 53.57568537 162.39647617 61.63520166 196.40625 65.85546875 C197.17978821 65.95150391 197.95332642 66.04753906 198.75030518 66.14648438 C264.14214831 74.12431857 329.63490236 70.43510616 393.40625 53.85546875 C394.50211426 53.57058594 395.59797852 53.28570312 396.72705078 52.9921875 C414.46185035 48.31769241 432.20439133 43.14562695 449.15234375 36.08984375 C450.27060547 35.62553955 451.38886719 35.16123535 452.54101562 34.68286133 C454.68488612 33.78065444 456.82097067 32.85963073 458.94726562 31.91674805 C464.97291876 29.36241673 469.9689874 27.83460287 476.40625 29.85546875 C478.40625 31.66796875 478.40625 31.66796875 479.40625 33.85546875 C479.839375 34.78359375 479.839375 34.78359375 480.28125 35.73046875 C480.4920712 39.31442921 479.4466737 40.88227993 477.40625 43.85546875 C474.28243623 46.51528507 470.86776447 48.66216284 467.40625 50.85546875 C466.21217963 51.62751145 465.01817249 52.39965194 463.82421875 53.171875 C414.89217697 84.52916362 358.94799766 102.08660787 301.40625 108.85546875 C300.71109283 108.94208771 300.01593567 109.02870667 299.29971313 109.11795044 C291.90941497 109.96197515 284.55755722 110.03408111 277.125 110.05859375 C276.11175911 110.06283482 276.11175911 110.06283482 275.07804871 110.06716156 C271.48838936 110.08207545 267.89876923 110.0913486 264.30908203 110.09570312 C261.40237594 110.10004689 258.49597353 110.11378848 255.58935547 110.13671875 C231.69469726 110.32120016 208.3940791 108.84774842 184.90625 104.10546875 C182.9725354 103.72140869 182.9725354 103.72140869 180.99975586 103.32958984 C112.9544315 89.57859743 48.41287519 58.24595261 -2.59375 10.85546875 C-3.17382812 10.32695312 -3.75390625 9.7984375 -4.3515625 9.25390625 C-5.59375 7.85546875 -5.59375 7.85546875 -5.96875 5.35546875 C-5.59375 2.85546875 -5.59375 2.85546875 -4.46875 0.98046875 C-2.59375 -0.14453125 -2.59375 -0.14453125 0 0 Z " fill="#FFFFFF" transform="translate(145.59375,191.14453125)"/>
<path d="M0 0 C1.04915085 -0.00540298 2.0983017 -0.01080597 3.179245 -0.01637268 C6.6496495 -0.02888749 10.11922896 -0.01235101 13.58959961 0.00561523 C15.99808292 0.00546032 18.40656649 0.00397265 20.81504822 0.00120544 C25.863139 -0.00017975 30.91094608 0.01240102 35.95898438 0.03515625 C42.43811616 0.06355608 48.91677692 0.06080086 55.39594364 0.04806614 C60.36897321 0.04112053 65.34189338 0.04888525 70.31490898 0.06132317 C72.70438658 0.06584746 75.09387588 0.06616598 77.48335457 0.06225777 C80.81857626 0.05935618 84.15314228 0.0758022 87.48828125 0.09765625 C88.97749588 0.09090378 88.97749588 0.09090378 90.49679565 0.08401489 C91.85740364 0.09887184 91.85740364 0.09887184 93.24549866 0.11402893 C94.03396714 0.11645883 94.82243563 0.11888872 95.6347971 0.12139225 C98.21482194 0.60129268 99.10088342 1.4383813 100.67944336 3.50170898 C102.42368476 13.35997282 102.73401117 26.40312215 98.05444336 35.37670898 C96.62019377 37.1053116 95.15736003 38.8102891 93.67944336 40.50170898 C92.04557011 42.7619632 90.46855228 45.05698606 88.89038086 47.35644531 C87.09124136 49.97664036 85.26631717 52.57696016 83.43334961 55.17358398 C79.79367912 60.33615681 76.17295354 65.51179354 72.55444336 70.68920898 C68.21784636 76.8892534 63.86320782 83.07606866 59.49194336 89.25170898 C53.80957235 97.28160119 48.23147747 105.38131263 42.67944336 113.50170898 C43.98655273 113.59967773 45.29366211 113.69764648 46.64038086 113.79858398 C61.83995003 115.02881388 76.37368872 116.92252755 90.49194336 122.93920898 C91.14396729 123.21531006 91.79599121 123.49141113 92.46777344 123.77587891 C97.22862816 125.94810106 101.29141594 128.72565416 103.67944336 133.50170898 C103.93704493 137.74769348 103.9504289 141.99744201 103.97460938 146.25024414 C103.99182403 148.3620697 104.03571275 150.47232957 104.07983398 152.58374023 C104.08996131 153.92878082 104.09847729 155.2738347 104.10522461 156.61889648 C104.11980713 157.84205566 104.13438965 159.06521484 104.14941406 160.32543945 C103.67944336 163.50170898 103.67944336 163.50170898 101.82885742 165.93652344 C99.67944336 167.50170898 99.67944336 167.50170898 96.86303711 167.42749023 C93.35746357 166.40807805 90.09763101 165.12840184 86.74194336 163.68920898 C59.96538286 152.55576172 27.6605517 151.2249803 0.59838867 162.23779297 C-0.835929 162.84933957 -2.26322611 163.47777371 -3.6809082 164.12695312 C-7.91065995 166.0592919 -11.63289053 167.52971177 -16.32055664 167.50170898 C-19.00245041 164.90348332 -20.20440347 163.21777285 -20.80639648 159.5065918 C-20.79817871 158.41701172 -20.78996094 157.32743164 -20.78149414 156.20483398 C-20.77762695 154.99827148 -20.77375977 153.79170898 -20.76977539 152.54858398 C-20.7452832 151.29561523 -20.72079102 150.04264648 -20.69555664 148.75170898 C-20.69426758 147.51420898 -20.69297852 146.27670898 -20.69165039 145.00170898 C-20.59552295 134.96173235 -20.06857671 127.00010554 -14.07055664 118.68920898 C-13.63582031 118.06232178 -13.20108398 117.43543457 -12.75317383 116.78955078 C-11.79898872 115.41795124 -10.83809362 114.05100088 -9.87133789 112.68823242 C-8.24718134 110.3982535 -6.64178024 108.09596916 -5.03930664 105.79077148 C-2.08075298 101.54138122 0.89410986 97.30369416 3.8737793 93.0690918 C6.77319089 88.94656444 9.66401615 84.81803829 12.55444336 80.68920898 C13.12211426 79.87887207 13.68978516 79.06853516 14.2746582 78.23364258 C17.47104654 73.6680111 20.65796012 69.0959718 23.83569336 64.51733398 C24.53839355 63.50517822 25.24109375 62.49302246 25.96508789 61.45019531 C27.31092524 59.5106987 28.6557328 57.5704869 29.99926758 55.62939453 C33.25537002 50.93692467 36.55171497 46.27956137 39.91625977 41.6640625 C40.6245694 40.69187271 41.33287903 39.71968292 42.06265259 38.71803284 C42.59619354 37.98664597 43.1297345 37.25525909 43.67944336 36.50170898 C42.65586983 36.49624054 42.65586983 36.49624054 41.61161804 36.49066162 C34.52263068 36.44891896 27.43429574 36.37963133 20.34570312 36.29418945 C17.69863402 36.26592719 15.05147969 36.244739 12.40429688 36.23071289 C8.60363973 36.20935688 4.80401299 36.16274171 1.00366211 36.11108398 C-0.7776989 36.10924103 -0.7776989 36.10924103 -2.595047 36.10736084 C-3.69596176 36.08764221 -4.79687653 36.06792358 -5.93115234 36.04760742 C-6.9015596 36.03872498 -7.87196686 36.02984253 -8.8717804 36.02069092 C-11.32055664 35.50170898 -11.32055664 35.50170898 -13.13214111 33.64691162 C-15.70044937 29.01087186 -14.78767166 23.16549218 -14.75805664 18.00170898 C-14.77803711 16.76549805 -14.79801758 15.52928711 -14.81860352 14.25561523 C-14.81795898 13.06838867 -14.81731445 11.88116211 -14.81665039 10.65795898 C-14.81850342 9.57321289 -14.82035645 8.4884668 -14.82226562 7.37084961 C-13.38981682 -0.82094518 -6.79841987 -0.06633818 0 0 Z " fill="#FFFFFF" transform="translate(591.320556640625,3.498291015625)"/>
<path d="M0 0 C4.83053575 5.87221577 3.63990033 13.83695864 3 21 C-0.39918957 47.8444687 -11.79613194 73.19489311 -31.796875 91.70703125 C-34.67399884 93.39555606 -36.72050818 93.30687982 -40 93 C-40.33 92.67 -40.66 92.34 -41 92 C-40.59269958 86.57126727 -39.55876748 82.33983636 -37.375 77.3125 C-25.42512477 50.45910451 -25.42512477 50.45910451 -24.8125 22.125 C-30.62069847 16.48275005 -40.36611111 16.63910139 -48.00952148 16.63476562 C-49.76824585 16.66086914 -49.76824585 16.66086914 -51.5625 16.6875 C-52.79105713 16.69587891 -54.01961426 16.70425781 -55.28540039 16.71289062 C-62.95092878 16.81344193 -70.47156669 17.27283734 -78.06811523 18.28344727 C-84.40078931 19.12331845 -90.62363505 19.20278192 -97 19 C-97.61328125 16.65234375 -97.61328125 16.65234375 -98 14 C-89.16235734 2.11489435 -70.12569621 -2.8148117 -56.15454102 -5.22583008 C-39.07453675 -7.63393166 -15.38911603 -9.36635614 0 0 Z " fill="#FFFFFF" transform="translate(669,187)"/>
</svg>
